%TF.GenerationSoftware,KiCad,Pcbnew,8.0.0*%
%TF.CreationDate,2025-04-28T20:31:36+05:30*%
%TF.ProjectId,ATA6503_mikrobus,41544136-3530-4335-9f6d-696b726f6275,rev?*%
%TF.SameCoordinates,Original*%
%TF.FileFunction,Legend,Bot*%
%TF.FilePolarity,Positive*%
%FSLAX46Y46*%
G04 Gerber Fmt 4.6, Leading zero omitted, Abs format (unit mm)*
G04 Created by KiCad (PCBNEW 8.0.0) date 2025-04-28 20:31:36*
%MOMM*%
%LPD*%
G01*
G04 APERTURE LIST*
%ADD10C,0.150000*%
%ADD11C,0.508000*%
%ADD12C,0.120000*%
G04 APERTURE END LIST*
D10*
X113363333Y-97454819D02*
X113363333Y-98169104D01*
X113363333Y-98169104D02*
X113410952Y-98311961D01*
X113410952Y-98311961D02*
X113506190Y-98407200D01*
X113506190Y-98407200D02*
X113649047Y-98454819D01*
X113649047Y-98454819D02*
X113744285Y-98454819D01*
X112363333Y-98454819D02*
X112934761Y-98454819D01*
X112649047Y-98454819D02*
X112649047Y-97454819D01*
X112649047Y-97454819D02*
X112744285Y-97597676D01*
X112744285Y-97597676D02*
X112839523Y-97692914D01*
X112839523Y-97692914D02*
X112934761Y-97740533D01*
X136223333Y-97454819D02*
X136223333Y-98169104D01*
X136223333Y-98169104D02*
X136270952Y-98311961D01*
X136270952Y-98311961D02*
X136366190Y-98407200D01*
X136366190Y-98407200D02*
X136509047Y-98454819D01*
X136509047Y-98454819D02*
X136604285Y-98454819D01*
X135794761Y-97550057D02*
X135747142Y-97502438D01*
X135747142Y-97502438D02*
X135651904Y-97454819D01*
X135651904Y-97454819D02*
X135413809Y-97454819D01*
X135413809Y-97454819D02*
X135318571Y-97502438D01*
X135318571Y-97502438D02*
X135270952Y-97550057D01*
X135270952Y-97550057D02*
X135223333Y-97645295D01*
X135223333Y-97645295D02*
X135223333Y-97740533D01*
X135223333Y-97740533D02*
X135270952Y-97883390D01*
X135270952Y-97883390D02*
X135842380Y-98454819D01*
X135842380Y-98454819D02*
X135223333Y-98454819D01*
D11*
%TO.C,J4*%
X133427000Y-61899800D02*
G75*
G02*
X132665000Y-61899800I-381000J0D01*
G01*
X132665000Y-61899800D02*
G75*
G02*
X133427000Y-61899800I381000J0D01*
G01*
D12*
%TO.C,J1*%
X111700000Y-101600000D02*
X114360000Y-101600000D01*
X111700000Y-119440000D02*
X111700000Y-101600000D01*
X111700000Y-119440000D02*
X114360000Y-119440000D01*
X113030000Y-99000000D02*
X114360000Y-99000000D01*
X114360000Y-99000000D02*
X114360000Y-100330000D01*
X114360000Y-119440000D02*
X114360000Y-101600000D01*
%TO.C,J2*%
X134560000Y-101600000D02*
X137220000Y-101600000D01*
X134560000Y-119440000D02*
X134560000Y-101600000D01*
X134560000Y-119440000D02*
X137220000Y-119440000D01*
X135890000Y-99000000D02*
X137220000Y-99000000D01*
X137220000Y-99000000D02*
X137220000Y-100330000D01*
X137220000Y-119440000D02*
X137220000Y-101600000D01*
%TD*%
M02*
