%TF.GenerationSoftware,KiCad,Pcbnew,8.0.0*%
%TF.CreationDate,2025-04-28T20:31:36+05:30*%
%TF.ProjectId,ATA6503_mikrobus,41544136-3530-4335-9f6d-696b726f6275,rev?*%
%TF.SameCoordinates,Original*%
%TF.FileFunction,Copper,L1,Top*%
%TF.FilePolarity,Positive*%
%FSLAX46Y46*%
G04 Gerber Fmt 4.6, Leading zero omitted, Abs format (unit mm)*
G04 Created by KiCad (PCBNEW 8.0.0) date 2025-04-28 20:31:36*
%MOMM*%
%LPD*%
G01*
G04 APERTURE LIST*
G04 Aperture macros list*
%AMRoundRect*
0 Rectangle with rounded corners*
0 $1 Rounding radius*
0 $2 $3 $4 $5 $6 $7 $8 $9 X,Y pos of 4 corners*
0 Add a 4 corners polygon primitive as box body*
4,1,4,$2,$3,$4,$5,$6,$7,$8,$9,$2,$3,0*
0 Add four circle primitives for the rounded corners*
1,1,$1+$1,$2,$3*
1,1,$1+$1,$4,$5*
1,1,$1+$1,$6,$7*
1,1,$1+$1,$8,$9*
0 Add four rect primitives between the rounded corners*
20,1,$1+$1,$2,$3,$4,$5,0*
20,1,$1+$1,$4,$5,$6,$7,0*
20,1,$1+$1,$6,$7,$8,$9,0*
20,1,$1+$1,$8,$9,$2,$3,0*%
G04 Aperture macros list end*
%TA.AperFunction,SMDPad,CuDef*%
%ADD10RoundRect,0.250000X0.450000X-0.350000X0.450000X0.350000X-0.450000X0.350000X-0.450000X-0.350000X0*%
%TD*%
%TA.AperFunction,SMDPad,CuDef*%
%ADD11RoundRect,0.250000X-0.450000X0.325000X-0.450000X-0.325000X0.450000X-0.325000X0.450000X0.325000X0*%
%TD*%
%TA.AperFunction,SMDPad,CuDef*%
%ADD12RoundRect,0.250000X-0.337500X-0.475000X0.337500X-0.475000X0.337500X0.475000X-0.337500X0.475000X0*%
%TD*%
%TA.AperFunction,SMDPad,CuDef*%
%ADD13RoundRect,0.250000X-0.475000X0.337500X-0.475000X-0.337500X0.475000X-0.337500X0.475000X0.337500X0*%
%TD*%
%TA.AperFunction,SMDPad,CuDef*%
%ADD14RoundRect,0.250000X-0.450000X0.350000X-0.450000X-0.350000X0.450000X-0.350000X0.450000X0.350000X0*%
%TD*%
%TA.AperFunction,ComponentPad*%
%ADD15C,1.397000*%
%TD*%
%TA.AperFunction,SMDPad,CuDef*%
%ADD16RoundRect,0.250000X-0.350000X-0.450000X0.350000X-0.450000X0.350000X0.450000X-0.350000X0.450000X0*%
%TD*%
%TA.AperFunction,SMDPad,CuDef*%
%ADD17RoundRect,0.250000X-0.325000X-0.450000X0.325000X-0.450000X0.325000X0.450000X-0.325000X0.450000X0*%
%TD*%
%TA.AperFunction,SMDPad,CuDef*%
%ADD18RoundRect,0.250000X0.350000X0.450000X-0.350000X0.450000X-0.350000X-0.450000X0.350000X-0.450000X0*%
%TD*%
%TA.AperFunction,SMDPad,CuDef*%
%ADD19R,0.711200X0.254000*%
%TD*%
%TA.AperFunction,SMDPad,CuDef*%
%ADD20R,1.803400X2.387600*%
%TD*%
%TA.AperFunction,SMDPad,CuDef*%
%ADD21RoundRect,0.250000X0.337500X0.475000X-0.337500X0.475000X-0.337500X-0.475000X0.337500X-0.475000X0*%
%TD*%
%TA.AperFunction,SMDPad,CuDef*%
%ADD22R,1.397000X3.505200*%
%TD*%
%TA.AperFunction,SMDPad,CuDef*%
%ADD23R,10.718800X8.407400*%
%TD*%
%TA.AperFunction,ComponentPad*%
%ADD24R,1.879600X1.879600*%
%TD*%
%TA.AperFunction,ComponentPad*%
%ADD25C,1.879600*%
%TD*%
%TA.AperFunction,ComponentPad*%
%ADD26C,5.080000*%
%TD*%
%TA.AperFunction,SMDPad,CuDef*%
%ADD27R,1.300000X1.550000*%
%TD*%
%TA.AperFunction,ComponentPad*%
%ADD28R,1.700000X1.700000*%
%TD*%
%TA.AperFunction,ComponentPad*%
%ADD29O,1.700000X1.700000*%
%TD*%
%TA.AperFunction,ViaPad*%
%ADD30C,0.600000*%
%TD*%
%TA.AperFunction,Conductor*%
%ADD31C,0.200000*%
%TD*%
G04 APERTURE END LIST*
D10*
%TO.P,R11,1*%
%TO.N,VIO*%
X114046000Y-95758000D03*
%TO.P,R11,2*%
%TO.N,Net-(D4-A)*%
X114046000Y-93758000D03*
%TD*%
D11*
%TO.P,D4,1,K*%
%TO.N,GND*%
X114300000Y-88882000D03*
%TO.P,D4,2,A*%
%TO.N,Net-(D4-A)*%
X114300000Y-90932000D03*
%TD*%
D12*
%TO.P,C10,1*%
%TO.N,VCC*%
X115019000Y-84074000D03*
%TO.P,C10,2*%
%TO.N,GND*%
X117094000Y-84074000D03*
%TD*%
%TO.P,C1,1*%
%TO.N,Net-(D3-K)*%
X125476000Y-73914000D03*
%TO.P,C1,2*%
%TO.N,GND*%
X127551000Y-73914000D03*
%TD*%
D13*
%TO.P,C6,1*%
%TO.N,VCC*%
X119888000Y-102319000D03*
%TO.P,C6,2*%
%TO.N,GND*%
X119888000Y-104394000D03*
%TD*%
D14*
%TO.P,R9,1*%
%TO.N,Vbat*%
X136144000Y-82804000D03*
%TO.P,R9,2*%
%TO.N,Net-(C9-Pad1)*%
X136144000Y-84804000D03*
%TD*%
D10*
%TO.P,R12,1*%
%TO.N,EP*%
X116996000Y-95758000D03*
%TO.P,R12,2*%
%TO.N,Net-(D5-A)*%
X116996000Y-93758000D03*
%TD*%
D15*
%TO.P,J4,1,Pin_1*%
%TO.N,Vbat*%
X132742000Y-65709800D03*
%TO.P,J4,2,Pin_2*%
%TO.N,VCC*%
X132742000Y-69519800D03*
%TO.P,J4,3,Pin_3*%
%TO.N,3.3V*%
X132742000Y-73329800D03*
%TO.P,J4,4,Pin_4*%
%TO.N,GND*%
X132742000Y-77139800D03*
%TD*%
D12*
%TO.P,C3,1*%
%TO.N,/CAN_H*%
X128227000Y-60198000D03*
%TO.P,C3,2*%
%TO.N,GND*%
X130302000Y-60198000D03*
%TD*%
D16*
%TO.P,R4,1*%
%TO.N,Net-(R4-Pad1)*%
X118142000Y-111252000D03*
%TO.P,R4,2*%
%TO.N,/RST*%
X120142000Y-111252000D03*
%TD*%
D17*
%TO.P,D3,1,K*%
%TO.N,Net-(D3-K)*%
X125458000Y-65786000D03*
%TO.P,D3,2,A*%
%TO.N,Vbat*%
X127508000Y-65786000D03*
%TD*%
D12*
%TO.P,C2,1*%
%TO.N,Net-(D3-K)*%
X125476000Y-71120000D03*
%TO.P,C2,2*%
%TO.N,GND*%
X127551000Y-71120000D03*
%TD*%
%TO.P,C4,1*%
%TO.N,GND*%
X119083000Y-60198000D03*
%TO.P,C4,2*%
%TO.N,/CAN_L*%
X121158000Y-60198000D03*
%TD*%
D13*
%TO.P,C5,1*%
%TO.N,Net-(C5-Pad1)*%
X132820500Y-98509000D03*
%TO.P,C5,2*%
%TO.N,GND*%
X132820500Y-100584000D03*
%TD*%
D16*
%TO.P,R8,1*%
%TO.N,3.3V*%
X121444000Y-114808000D03*
%TO.P,R8,2*%
%TO.N,VIO*%
X123444000Y-114808000D03*
%TD*%
D18*
%TO.P,R5,1*%
%TO.N,VCC*%
X128016000Y-118110000D03*
%TO.P,R5,2*%
%TO.N,Net-(R4-Pad1)*%
X126016000Y-118110000D03*
%TD*%
D11*
%TO.P,D6,1,K*%
%TO.N,GND*%
X119888000Y-88900000D03*
%TO.P,D6,2,A*%
%TO.N,Net-(D6-A)*%
X119888000Y-90950000D03*
%TD*%
D10*
%TO.P,R13,1*%
%TO.N,Comm*%
X119946000Y-95758000D03*
%TO.P,R13,2*%
%TO.N,Net-(D6-A)*%
X119946000Y-93758000D03*
%TD*%
D18*
%TO.P,R7,1*%
%TO.N,VCC*%
X127762000Y-114808000D03*
%TO.P,R7,2*%
%TO.N,VIO*%
X125762000Y-114808000D03*
%TD*%
D16*
%TO.P,R2,1*%
%TO.N,/CAN_H*%
X128302000Y-97514500D03*
%TO.P,R2,2*%
%TO.N,Net-(C5-Pad1)*%
X130302000Y-97514500D03*
%TD*%
D19*
%TO.P,U1,1,TXD*%
%TO.N,/Tx*%
X122250200Y-97551999D03*
%TO.P,U1,2,RXD*%
%TO.N,/Rx*%
X122250200Y-98052001D03*
%TO.P,U1,3,VCC*%
%TO.N,VCC*%
X122250200Y-98552000D03*
%TO.P,U1,4,VIO*%
%TO.N,VIO*%
X122250200Y-99051999D03*
%TO.P,U1,5,NRES*%
%TO.N,/RST*%
X122250200Y-99552001D03*
%TO.P,U1,6,WAKE*%
%TO.N,/WUP*%
X125145800Y-99552001D03*
%TO.P,U1,7,VS*%
%TO.N,Net-(D3-K)*%
X125145800Y-99051999D03*
%TO.P,U1,8,CANL*%
%TO.N,/CAN_L*%
X125145800Y-98552000D03*
%TO.P,U1,9,CANH*%
%TO.N,/CAN_H*%
X125145800Y-98052001D03*
%TO.P,U1,10,EN*%
%TO.N,/En*%
X125145800Y-97551999D03*
D20*
%TO.P,U1,11,GND*%
%TO.N,GND*%
X123698000Y-98552000D03*
%TD*%
D12*
%TO.P,C8,1*%
%TO.N,VIO*%
X128989000Y-111252000D03*
%TO.P,C8,2*%
%TO.N,GND*%
X131064000Y-111252000D03*
%TD*%
D18*
%TO.P,R6,1*%
%TO.N,Net-(R4-Pad1)*%
X123698000Y-118110000D03*
%TO.P,R6,2*%
%TO.N,3.3V*%
X121698000Y-118110000D03*
%TD*%
D21*
%TO.P,C11,1*%
%TO.N,3.3V*%
X121158000Y-84074000D03*
%TO.P,C11,2*%
%TO.N,GND*%
X119083000Y-84074000D03*
%TD*%
D16*
%TO.P,R1,1*%
%TO.N,Net-(D3-K)*%
X125508000Y-68580000D03*
%TO.P,R1,2*%
%TO.N,GND*%
X127508000Y-68580000D03*
%TD*%
D22*
%TO.P,U2,1,INPUT*%
%TO.N,VCC*%
X115189000Y-79794100D03*
%TO.P,U2,2,GROUND*%
%TO.N,GND*%
X117729000Y-79794100D03*
%TO.P,U2,3,OUTPUT*%
%TO.N,3.3V*%
X120269000Y-79794100D03*
D23*
%TO.P,U2,4,4*%
%TO.N,GND*%
X117729000Y-68453000D03*
%TD*%
D21*
%TO.P,C9,1*%
%TO.N,Net-(C9-Pad1)*%
X128524000Y-84836000D03*
%TO.P,C9,2*%
%TO.N,GND*%
X126449000Y-84836000D03*
%TD*%
D16*
%TO.P,R10,1*%
%TO.N,/WUP*%
X126524000Y-87884000D03*
%TO.P,R10,2*%
%TO.N,Net-(C9-Pad1)*%
X128524000Y-87884000D03*
%TD*%
D24*
%TO.P,J3,1,1*%
%TO.N,unconnected-(J3-Pad1)*%
X118920000Y-56945500D03*
D25*
%TO.P,J3,2,2*%
%TO.N,/CAN_L*%
X121690000Y-56945500D03*
%TO.P,J3,3,3*%
%TO.N,GND*%
X124460000Y-56945500D03*
%TO.P,J3,4,4*%
%TO.N,unconnected-(J3-Pad4)*%
X127230000Y-56945500D03*
%TO.P,J3,5,5*%
%TO.N,unconnected-(J3-Pad5)*%
X130000000Y-56945500D03*
%TO.P,J3,6,6*%
%TO.N,unconnected-(J3-Pad6)*%
X120310000Y-54105500D03*
%TO.P,J3,7,7*%
%TO.N,/CAN_H*%
X123080000Y-54105500D03*
%TO.P,J3,8,8*%
%TO.N,unconnected-(J3-Pad8)*%
X125840000Y-54105500D03*
%TO.P,J3,9,9*%
%TO.N,unconnected-(J3-Pad9)*%
X128610000Y-54105500D03*
D26*
%TO.P,J3,G1*%
%TO.N,N/C*%
X111960000Y-55525500D03*
%TO.P,J3,G2*%
X136960000Y-55525500D03*
%TD*%
D27*
%TO.P,SW1,1,1*%
%TO.N,Net-(C9-Pad1)*%
X135689000Y-87175000D03*
X135689000Y-95125000D03*
%TO.P,SW1,2,2*%
%TO.N,GND*%
X131189000Y-87175000D03*
X131189000Y-95125000D03*
%TD*%
D13*
%TO.P,C7,1*%
%TO.N,VCC*%
X122428000Y-102362000D03*
%TO.P,C7,2*%
%TO.N,GND*%
X122428000Y-104437000D03*
%TD*%
D16*
%TO.P,R3,1*%
%TO.N,/CAN_L*%
X128302000Y-99800500D03*
%TO.P,R3,2*%
%TO.N,Net-(C5-Pad1)*%
X130302000Y-99800500D03*
%TD*%
D11*
%TO.P,D5,1,K*%
%TO.N,GND*%
X117094000Y-88882000D03*
%TO.P,D5,2,A*%
%TO.N,Net-(D5-A)*%
X117094000Y-90932000D03*
%TD*%
D28*
%TO.P,J1,1,Pin_1*%
%TO.N,unconnected-(J1-Pin_1-Pad1)*%
X113030000Y-100330000D03*
D29*
%TO.P,J1,2,Pin_2*%
%TO.N,unconnected-(J1-Pin_2-Pad2)*%
X113030000Y-102870000D03*
%TO.P,J1,3,Pin_3*%
%TO.N,EP*%
X113030000Y-105410000D03*
%TO.P,J1,4,Pin_4*%
%TO.N,Comm*%
X113030000Y-107950000D03*
%TO.P,J1,5,Pin_5*%
%TO.N,unconnected-(J1-Pin_5-Pad5)*%
X113030000Y-110490000D03*
%TO.P,J1,6,Pin_6*%
%TO.N,unconnected-(J1-Pin_6-Pad6)*%
X113030000Y-113030000D03*
%TO.P,J1,7,Pin_7*%
%TO.N,3.3V*%
X113030000Y-115570000D03*
%TO.P,J1,8,Pin_8*%
%TO.N,GND*%
X113030000Y-118110000D03*
%TD*%
D28*
%TO.P,J2,1,Pin_1*%
%TO.N,/En*%
X135890000Y-100330000D03*
D29*
%TO.P,J2,2,Pin_2*%
%TO.N,/RST*%
X135890000Y-102870000D03*
%TO.P,J2,3,Pin_3*%
%TO.N,/Tx*%
X135890000Y-105410000D03*
%TO.P,J2,4,Pin_4*%
%TO.N,/Rx*%
X135890000Y-107950000D03*
%TO.P,J2,5,Pin_5*%
%TO.N,unconnected-(J2-Pin_5-Pad5)*%
X135890000Y-110490000D03*
%TO.P,J2,6,Pin_6*%
%TO.N,unconnected-(J2-Pin_6-Pad6)*%
X135890000Y-113030000D03*
%TO.P,J2,7,Pin_7*%
%TO.N,VCC*%
X135890000Y-115570000D03*
%TO.P,J2,8,Pin_8*%
%TO.N,GND*%
X135890000Y-118110000D03*
%TD*%
D30*
%TO.N,GND*%
X133604000Y-86868000D03*
X116078000Y-99568000D03*
X118618000Y-103632000D03*
X134112000Y-83820000D03*
X134112000Y-118872000D03*
X130810000Y-114554000D03*
X132842000Y-102870000D03*
%TO.N,Net-(D3-K)*%
X126492000Y-99314000D03*
X126492000Y-96012000D03*
%TO.N,/CAN_H*%
X128270000Y-61722000D03*
X128016000Y-96012000D03*
%TO.N,/CAN_L*%
X121158000Y-61976000D03*
X128270000Y-101092000D03*
%TO.N,VIO*%
X121412000Y-96520000D03*
X120904000Y-100584000D03*
X125476000Y-102870000D03*
X122682000Y-106172000D03*
X114046000Y-97282000D03*
X122682000Y-108712000D03*
%TO.N,3.3V*%
X122682000Y-84074000D03*
%TO.N,/RST*%
X122428000Y-100838000D03*
X120396000Y-109728000D03*
X124968000Y-101092000D03*
%TO.N,/En*%
X124714000Y-96266000D03*
%TO.N,Comm*%
X119888000Y-97028000D03*
X115316000Y-107950000D03*
%TO.N,EP*%
X115316000Y-105410000D03*
X117094000Y-97028000D03*
%TO.N,/Tx*%
X118364000Y-97282000D03*
X118364000Y-99060000D03*
X118364000Y-99060000D03*
%TO.N,VCC*%
X133350000Y-114808000D03*
X123952000Y-102362000D03*
X115062000Y-85598000D03*
%TO.N,Net-(R4-Pad1)*%
X118364000Y-116332000D03*
X118110000Y-112776000D03*
%TO.N,/WUP*%
X126746000Y-89408000D03*
X126238000Y-100076000D03*
%TD*%
D31*
%TO.N,GND*%
X119888000Y-104394000D02*
X119380000Y-104394000D01*
X132820500Y-102848500D02*
X132842000Y-102870000D01*
X122428000Y-104437000D02*
X119931000Y-104437000D01*
X122428000Y-105410000D02*
X121920000Y-105918000D01*
X119380000Y-104394000D02*
X118618000Y-103632000D01*
X132820500Y-100584000D02*
X132820500Y-102848500D01*
X119931000Y-104437000D02*
X119888000Y-104394000D01*
%TO.N,Net-(D3-K)*%
X126229999Y-99051999D02*
X126492000Y-99314000D01*
X125508000Y-68580000D02*
X125508000Y-68612000D01*
X125508000Y-68612000D02*
X125476000Y-68644000D01*
X125476000Y-73914000D02*
X125476000Y-96037599D01*
X126492000Y-96012000D02*
X125501599Y-96012000D01*
X125476000Y-68644000D02*
X125476000Y-71120000D01*
X125458000Y-68530000D02*
X125508000Y-68580000D01*
X125476000Y-71120000D02*
X125476000Y-73914000D01*
X125458000Y-65786000D02*
X125458000Y-68530000D01*
X125145800Y-99051999D02*
X126229999Y-99051999D01*
X125501599Y-96012000D02*
X125476000Y-96037599D01*
%TO.N,/CAN_H*%
X128227000Y-60198000D02*
X128227000Y-61679000D01*
X130048000Y-53790158D02*
X129089842Y-52832000D01*
X128227000Y-60198000D02*
X128760200Y-59664800D01*
X128760200Y-55708642D02*
X130048000Y-54420842D01*
X125145800Y-98052001D02*
X127764499Y-98052001D01*
X130048000Y-54420842D02*
X130048000Y-53790158D01*
X129089842Y-52832000D02*
X124353500Y-52832000D01*
X124353500Y-52832000D02*
X123080000Y-54105500D01*
X128760200Y-59664800D02*
X128760200Y-55708642D01*
X127764499Y-98052001D02*
X128302000Y-97514500D01*
X128302000Y-97514500D02*
X128302000Y-96298000D01*
X128302000Y-96298000D02*
X128016000Y-96012000D01*
X128227000Y-61679000D02*
X128270000Y-61722000D01*
%TO.N,/CAN_L*%
X127053500Y-98552000D02*
X128302000Y-99800500D01*
X125145800Y-98552000D02*
X127053500Y-98552000D01*
X128270000Y-99832500D02*
X128302000Y-99800500D01*
X121690000Y-56945500D02*
X121690000Y-59666000D01*
X121158000Y-60198000D02*
X121158000Y-61976000D01*
X121690000Y-59666000D02*
X121158000Y-60198000D01*
X128270000Y-101092000D02*
X128270000Y-99832500D01*
%TO.N,Net-(C5-Pad1)*%
X130302000Y-99800500D02*
X131529000Y-99800500D01*
X131826000Y-97514500D02*
X132820500Y-98509000D01*
X130302000Y-97514500D02*
X131826000Y-97514500D01*
X131529000Y-99800500D02*
X132820500Y-98509000D01*
%TO.N,VIO*%
X124714000Y-114808000D02*
X124714000Y-113030000D01*
X122682000Y-108712000D02*
X125222000Y-111252000D01*
X120904000Y-100584000D02*
X121794500Y-101474500D01*
X124714000Y-113030000D02*
X126492000Y-111252000D01*
X126492000Y-111252000D02*
X128989000Y-111252000D01*
X122250200Y-99051999D02*
X122177201Y-98979000D01*
X124080500Y-101474500D02*
X125476000Y-102870000D01*
X124714000Y-114808000D02*
X123444000Y-114808000D01*
X125222000Y-111252000D02*
X126492000Y-111252000D01*
X125762000Y-114808000D02*
X124714000Y-114808000D01*
X114046000Y-95758000D02*
X114046000Y-97282000D01*
X120904000Y-99881285D02*
X120904000Y-100584000D01*
X125476000Y-102870000D02*
X125476000Y-103378000D01*
X121794500Y-101474500D02*
X124080500Y-101474500D01*
X122177201Y-98979000D02*
X121806285Y-98979000D01*
X121806285Y-98979000D02*
X120904000Y-99881285D01*
X125476000Y-103378000D02*
X122682000Y-106172000D01*
%TO.N,Net-(C9-Pad1)*%
X128524000Y-84836000D02*
X128524000Y-87884000D01*
X133350000Y-84836000D02*
X128524000Y-84836000D01*
X135689000Y-87175000D02*
X133350000Y-84836000D01*
X136144000Y-84804000D02*
X136144000Y-86720000D01*
X136144000Y-86720000D02*
X135689000Y-87175000D01*
X135689000Y-87175000D02*
X135689000Y-95125000D01*
%TO.N,3.3V*%
X115570000Y-118110000D02*
X121698000Y-118110000D01*
X121158000Y-84074000D02*
X122682000Y-84074000D01*
X113253000Y-88007000D02*
X112106000Y-89154000D01*
X117225000Y-88007000D02*
X113253000Y-88007000D01*
X113030000Y-115570000D02*
X115570000Y-118110000D01*
X120269000Y-79794100D02*
X120269000Y-83185000D01*
X115916000Y-100916000D02*
X115916000Y-112684000D01*
X120269000Y-83185000D02*
X121158000Y-84074000D01*
X121158000Y-84074000D02*
X117225000Y-88007000D01*
X115916000Y-112684000D02*
X113030000Y-115570000D01*
X112106000Y-89154000D02*
X112106000Y-97106000D01*
X113030000Y-115570000D02*
X120682000Y-115570000D01*
X112106000Y-97106000D02*
X115916000Y-100916000D01*
X120682000Y-115570000D02*
X121444000Y-114808000D01*
%TO.N,Vbat*%
X127584200Y-65709800D02*
X127508000Y-65786000D01*
X132742000Y-65709800D02*
X127584200Y-65709800D01*
X132742000Y-65709800D02*
X136144000Y-69111800D01*
X136144000Y-69111800D02*
X136144000Y-82804000D01*
%TO.N,Net-(D4-A)*%
X114300000Y-93504000D02*
X114046000Y-93758000D01*
X114300000Y-90932000D02*
X114300000Y-93504000D01*
%TO.N,Net-(D5-A)*%
X117094000Y-93660000D02*
X116996000Y-93758000D01*
X117094000Y-90932000D02*
X117094000Y-93660000D01*
%TO.N,Net-(D6-A)*%
X119888000Y-93700000D02*
X119946000Y-93758000D01*
X119888000Y-90950000D02*
X119888000Y-93700000D01*
%TO.N,/RST*%
X124714000Y-100838000D02*
X124968000Y-101092000D01*
X122250200Y-99552001D02*
X122250200Y-100660200D01*
X122250200Y-100660200D02*
X122428000Y-100838000D01*
X134366000Y-104394000D02*
X135890000Y-102870000D01*
X120142000Y-109982000D02*
X120396000Y-109728000D01*
X120142000Y-111252000D02*
X120142000Y-109982000D01*
X122428000Y-100838000D02*
X124714000Y-100838000D01*
X126238000Y-102362000D02*
X126238000Y-104394000D01*
X124968000Y-101092000D02*
X126238000Y-102362000D01*
X126238000Y-104394000D02*
X134366000Y-104394000D01*
%TO.N,/En*%
X125145800Y-96697800D02*
X124714000Y-96266000D01*
X125145800Y-97551999D02*
X125145800Y-96697800D01*
%TO.N,Comm*%
X119946000Y-96970000D02*
X119888000Y-97028000D01*
X119946000Y-95758000D02*
X119946000Y-96970000D01*
X115316000Y-107950000D02*
X113030000Y-107950000D01*
%TO.N,EP*%
X115316000Y-105410000D02*
X113030000Y-105410000D01*
X116996000Y-95758000D02*
X116996000Y-96930000D01*
X116996000Y-96930000D02*
X117094000Y-97028000D01*
%TO.N,/Tx*%
X120212530Y-97551999D02*
X122250200Y-97551999D01*
X118364000Y-97282000D02*
X118710000Y-97628000D01*
X117856000Y-106934000D02*
X117856000Y-99568000D01*
X118710000Y-97628000D02*
X120136529Y-97628000D01*
X135890000Y-105410000D02*
X134366000Y-106934000D01*
X134366000Y-106934000D02*
X117856000Y-106934000D01*
X117856000Y-99568000D02*
X118364000Y-99060000D01*
X120136529Y-97628000D02*
X120212530Y-97551999D01*
%TO.N,/Rx*%
X117094000Y-98044000D02*
X117102001Y-98052001D01*
X135890000Y-107950000D02*
X117094000Y-107950000D01*
X117102001Y-98052001D02*
X122250200Y-98052001D01*
X117094000Y-107950000D02*
X117094000Y-98044000D01*
%TO.N,VCC*%
X135890000Y-115570000D02*
X134112000Y-115570000D01*
X115019000Y-84074000D02*
X115019000Y-85555000D01*
X119888000Y-102319000D02*
X122385000Y-102319000D01*
X134112000Y-115570000D02*
X133350000Y-114808000D01*
X115189000Y-79794100D02*
X115189000Y-83904000D01*
X122385000Y-102319000D02*
X122428000Y-102362000D01*
X119888000Y-100331599D02*
X119888000Y-102319000D01*
X121667599Y-98552000D02*
X119888000Y-100331599D01*
X122428000Y-102362000D02*
X123952000Y-102362000D01*
X135890000Y-115570000D02*
X128524000Y-115570000D01*
X115189000Y-83904000D02*
X115019000Y-84074000D01*
X128524000Y-115570000D02*
X127762000Y-114808000D01*
X122250200Y-98552000D02*
X121667599Y-98552000D01*
X115019000Y-85555000D02*
X115062000Y-85598000D01*
X119909500Y-102340500D02*
X119888000Y-102319000D01*
X135890000Y-115570000D02*
X133350000Y-118110000D01*
X133350000Y-118110000D02*
X128016000Y-118110000D01*
%TO.N,Net-(R4-Pad1)*%
X124968000Y-118110000D02*
X124968000Y-117094000D01*
X124968000Y-118110000D02*
X124714000Y-118110000D01*
X124206000Y-116332000D02*
X118364000Y-116332000D01*
X124714000Y-118110000D02*
X124460000Y-118110000D01*
X124714000Y-118110000D02*
X123698000Y-118110000D01*
X118110000Y-111284000D02*
X118142000Y-111252000D01*
X118110000Y-112776000D02*
X118110000Y-111284000D01*
X124968000Y-117094000D02*
X124206000Y-116332000D01*
X126016000Y-118110000D02*
X124968000Y-118110000D01*
%TO.N,/WUP*%
X126524000Y-87884000D02*
X126524000Y-89186000D01*
X125145800Y-99552001D02*
X125669799Y-100076000D01*
X125669799Y-100076000D02*
X126238000Y-100076000D01*
X126524000Y-89186000D02*
X126746000Y-89408000D01*
%TD*%
%TA.AperFunction,Conductor*%
%TO.N,GND*%
G36*
X114486442Y-117879685D02*
G01*
X114507084Y-117896319D01*
X115085139Y-118474374D01*
X115085149Y-118474385D01*
X115089479Y-118478715D01*
X115089480Y-118478716D01*
X115201284Y-118590520D01*
X115201286Y-118590521D01*
X115201290Y-118590524D01*
X115338209Y-118669573D01*
X115338216Y-118669577D01*
X115450019Y-118699534D01*
X115490942Y-118710500D01*
X115490943Y-118710500D01*
X120517699Y-118710500D01*
X120584738Y-118730185D01*
X120630493Y-118782989D01*
X120635403Y-118795492D01*
X120663186Y-118879334D01*
X120755288Y-119028656D01*
X120879344Y-119152712D01*
X121028666Y-119244814D01*
X121195203Y-119299999D01*
X121297991Y-119310500D01*
X122098008Y-119310499D01*
X122098016Y-119310498D01*
X122098019Y-119310498D01*
X122154302Y-119304748D01*
X122200797Y-119299999D01*
X122367334Y-119244814D01*
X122516656Y-119152712D01*
X122610319Y-119059049D01*
X122671642Y-119025564D01*
X122741334Y-119030548D01*
X122785681Y-119059049D01*
X122879344Y-119152712D01*
X123028666Y-119244814D01*
X123195203Y-119299999D01*
X123297991Y-119310500D01*
X124098008Y-119310499D01*
X124098016Y-119310498D01*
X124098019Y-119310498D01*
X124154302Y-119304748D01*
X124200797Y-119299999D01*
X124367334Y-119244814D01*
X124516656Y-119152712D01*
X124640712Y-119028656D01*
X124732814Y-118879334D01*
X124739295Y-118859775D01*
X124779066Y-118802332D01*
X124843582Y-118775509D01*
X124912358Y-118787824D01*
X124963558Y-118835367D01*
X124974703Y-118859772D01*
X124981186Y-118879334D01*
X125073288Y-119028656D01*
X125197344Y-119152712D01*
X125346666Y-119244814D01*
X125513203Y-119299999D01*
X125615991Y-119310500D01*
X126416008Y-119310499D01*
X126416016Y-119310498D01*
X126416019Y-119310498D01*
X126472302Y-119304748D01*
X126518797Y-119299999D01*
X126685334Y-119244814D01*
X126834656Y-119152712D01*
X126928319Y-119059049D01*
X126989642Y-119025564D01*
X127059334Y-119030548D01*
X127103681Y-119059049D01*
X127197344Y-119152712D01*
X127346666Y-119244814D01*
X127513203Y-119299999D01*
X127615991Y-119310500D01*
X128416008Y-119310499D01*
X128416016Y-119310498D01*
X128416019Y-119310498D01*
X128472302Y-119304748D01*
X128518797Y-119299999D01*
X128685334Y-119244814D01*
X128834656Y-119152712D01*
X128958712Y-119028656D01*
X129050814Y-118879334D01*
X129078595Y-118795495D01*
X129118368Y-118738051D01*
X129182884Y-118711228D01*
X129196301Y-118710500D01*
X133263331Y-118710500D01*
X133263347Y-118710501D01*
X133270943Y-118710501D01*
X133429054Y-118710501D01*
X133429057Y-118710501D01*
X133581785Y-118669577D01*
X133631904Y-118640639D01*
X133718716Y-118590520D01*
X133830520Y-118478716D01*
X133830520Y-118478714D01*
X133840728Y-118468507D01*
X133840730Y-118468504D01*
X134412916Y-117896317D01*
X134474237Y-117862834D01*
X134500595Y-117860000D01*
X135456988Y-117860000D01*
X135424075Y-117917007D01*
X135390000Y-118044174D01*
X135390000Y-118175826D01*
X135424075Y-118302993D01*
X135456988Y-118360000D01*
X134559364Y-118360000D01*
X134616567Y-118573486D01*
X134616570Y-118573492D01*
X134716399Y-118787578D01*
X134851894Y-118981082D01*
X135018917Y-119148105D01*
X135212421Y-119283600D01*
X135426507Y-119383429D01*
X135426516Y-119383433D01*
X135640000Y-119440634D01*
X135640000Y-118543012D01*
X135697007Y-118575925D01*
X135824174Y-118610000D01*
X135955826Y-118610000D01*
X136082993Y-118575925D01*
X136140000Y-118543012D01*
X136140000Y-119440633D01*
X136353483Y-119383433D01*
X136353492Y-119383429D01*
X136567579Y-119283599D01*
X136567585Y-119283595D01*
X136718376Y-119178010D01*
X136784582Y-119155682D01*
X136852349Y-119172692D01*
X136900163Y-119223639D01*
X136913500Y-119279584D01*
X136913500Y-121295500D01*
X136893815Y-121362539D01*
X136841011Y-121408294D01*
X136789500Y-121419500D01*
X112130500Y-121419500D01*
X112063461Y-121399815D01*
X112017706Y-121347011D01*
X112006500Y-121295500D01*
X112006500Y-119279584D01*
X112026185Y-119212545D01*
X112078989Y-119166790D01*
X112148147Y-119156846D01*
X112201624Y-119178010D01*
X112352414Y-119283595D01*
X112352420Y-119283599D01*
X112566507Y-119383429D01*
X112566516Y-119383433D01*
X112780000Y-119440634D01*
X112780000Y-118543012D01*
X112837007Y-118575925D01*
X112964174Y-118610000D01*
X113095826Y-118610000D01*
X113222993Y-118575925D01*
X113280000Y-118543012D01*
X113280000Y-119440633D01*
X113493483Y-119383433D01*
X113493492Y-119383429D01*
X113707578Y-119283600D01*
X113901082Y-119148105D01*
X114068105Y-118981082D01*
X114203600Y-118787578D01*
X114303429Y-118573492D01*
X114303432Y-118573486D01*
X114360636Y-118360000D01*
X113463012Y-118360000D01*
X113495925Y-118302993D01*
X113530000Y-118175826D01*
X113530000Y-118044174D01*
X113495925Y-117917007D01*
X113463012Y-117860000D01*
X114419403Y-117860000D01*
X114486442Y-117879685D01*
G37*
%TD.AperFunction*%
%TA.AperFunction,Conductor*%
G36*
X134667948Y-108570185D02*
G01*
X134713292Y-108622097D01*
X134715965Y-108627830D01*
X134791264Y-108735368D01*
X134851501Y-108821395D01*
X134851506Y-108821402D01*
X135018597Y-108988493D01*
X135018603Y-108988498D01*
X135204158Y-109118425D01*
X135247783Y-109173002D01*
X135254977Y-109242500D01*
X135223454Y-109304855D01*
X135204158Y-109321575D01*
X135018597Y-109451505D01*
X134851505Y-109618597D01*
X134715965Y-109812169D01*
X134715964Y-109812171D01*
X134616098Y-110026335D01*
X134616096Y-110026340D01*
X134554938Y-110254586D01*
X134554936Y-110254596D01*
X134534341Y-110489999D01*
X134534341Y-110490000D01*
X134554936Y-110725403D01*
X134554938Y-110725413D01*
X134616094Y-110953655D01*
X134616096Y-110953659D01*
X134616097Y-110953663D01*
X134638637Y-111002000D01*
X134715965Y-111167830D01*
X134715967Y-111167834D01*
X134851501Y-111361395D01*
X134851506Y-111361402D01*
X135018597Y-111528493D01*
X135018603Y-111528498D01*
X135204158Y-111658425D01*
X135247783Y-111713002D01*
X135254977Y-111782500D01*
X135223454Y-111844855D01*
X135204158Y-111861575D01*
X135018597Y-111991505D01*
X134851505Y-112158597D01*
X134715965Y-112352169D01*
X134715964Y-112352171D01*
X134616098Y-112566335D01*
X134616094Y-112566344D01*
X134554938Y-112794586D01*
X134554936Y-112794596D01*
X134534341Y-113029999D01*
X134534341Y-113030000D01*
X134554936Y-113265403D01*
X134554938Y-113265413D01*
X134616094Y-113493655D01*
X134616096Y-113493659D01*
X134616097Y-113493663D01*
X134674077Y-113618001D01*
X134715965Y-113707830D01*
X134715967Y-113707834D01*
X134851501Y-113901395D01*
X134851506Y-113901402D01*
X135018597Y-114068493D01*
X135018603Y-114068498D01*
X135204158Y-114198425D01*
X135247783Y-114253002D01*
X135254977Y-114322500D01*
X135223454Y-114384855D01*
X135204158Y-114401575D01*
X135018597Y-114531505D01*
X134851506Y-114698596D01*
X134715965Y-114892170D01*
X134715962Y-114892175D01*
X134713289Y-114897909D01*
X134667115Y-114950346D01*
X134600909Y-114969500D01*
X134412098Y-114969500D01*
X134345059Y-114949815D01*
X134324421Y-114933185D01*
X134180698Y-114789463D01*
X134147215Y-114728143D01*
X134145163Y-114715686D01*
X134135368Y-114628745D01*
X134075789Y-114458478D01*
X133979816Y-114305738D01*
X133852262Y-114178184D01*
X133699523Y-114082211D01*
X133529254Y-114022631D01*
X133529249Y-114022630D01*
X133350004Y-114002435D01*
X133349996Y-114002435D01*
X133170750Y-114022630D01*
X133170745Y-114022631D01*
X133000476Y-114082211D01*
X132847737Y-114178184D01*
X132720184Y-114305737D01*
X132624211Y-114458476D01*
X132564631Y-114628745D01*
X132564630Y-114628750D01*
X132544435Y-114807996D01*
X132544435Y-114808000D01*
X132547096Y-114831615D01*
X132535042Y-114900437D01*
X132487694Y-114951817D01*
X132423876Y-114969500D01*
X128986500Y-114969500D01*
X128919461Y-114949815D01*
X128873706Y-114897011D01*
X128862500Y-114845500D01*
X128862499Y-114307998D01*
X128862498Y-114307980D01*
X128851999Y-114205203D01*
X128851998Y-114205200D01*
X128806698Y-114068495D01*
X128796814Y-114038666D01*
X128704712Y-113889344D01*
X128580656Y-113765288D01*
X128487501Y-113707830D01*
X128431336Y-113673187D01*
X128431331Y-113673185D01*
X128429862Y-113672698D01*
X128264797Y-113618001D01*
X128264795Y-113618000D01*
X128162010Y-113607500D01*
X127361998Y-113607500D01*
X127361980Y-113607501D01*
X127259203Y-113618000D01*
X127259200Y-113618001D01*
X127092668Y-113673185D01*
X127092663Y-113673187D01*
X126943342Y-113765289D01*
X126849681Y-113858951D01*
X126788358Y-113892436D01*
X126718666Y-113887452D01*
X126674319Y-113858951D01*
X126580657Y-113765289D01*
X126580656Y-113765288D01*
X126487501Y-113707830D01*
X126431336Y-113673187D01*
X126431331Y-113673185D01*
X126429862Y-113672698D01*
X126264797Y-113618001D01*
X126264795Y-113618000D01*
X126162016Y-113607500D01*
X125438500Y-113607500D01*
X125371461Y-113587815D01*
X125325706Y-113535011D01*
X125314500Y-113483500D01*
X125314500Y-113330097D01*
X125334185Y-113263058D01*
X125350819Y-113242416D01*
X126704417Y-111888819D01*
X126765740Y-111855334D01*
X126792098Y-111852500D01*
X127812915Y-111852500D01*
X127879954Y-111872185D01*
X127925709Y-111924989D01*
X127930618Y-111937489D01*
X127966686Y-112046334D01*
X128058788Y-112195656D01*
X128182844Y-112319712D01*
X128332166Y-112411814D01*
X128498703Y-112466999D01*
X128601491Y-112477500D01*
X129376508Y-112477499D01*
X129376516Y-112477498D01*
X129376519Y-112477498D01*
X129434422Y-112471583D01*
X129479297Y-112466999D01*
X129645834Y-112411814D01*
X129795156Y-112319712D01*
X129919212Y-112195656D01*
X129921252Y-112192347D01*
X129923245Y-112190555D01*
X129923693Y-112189989D01*
X129923789Y-112190065D01*
X129973194Y-112145623D01*
X130042156Y-112134395D01*
X130106240Y-112162234D01*
X130132329Y-112192339D01*
X130134181Y-112195341D01*
X130134183Y-112195344D01*
X130258154Y-112319315D01*
X130407375Y-112411356D01*
X130407380Y-112411358D01*
X130573802Y-112466505D01*
X130573809Y-112466506D01*
X130676519Y-112476999D01*
X130813999Y-112476999D01*
X130814000Y-112476998D01*
X130814000Y-111502000D01*
X131314000Y-111502000D01*
X131314000Y-112476999D01*
X131451472Y-112476999D01*
X131451486Y-112476998D01*
X131554197Y-112466505D01*
X131720619Y-112411358D01*
X131720624Y-112411356D01*
X131869845Y-112319315D01*
X131993815Y-112195345D01*
X132085856Y-112046124D01*
X132085858Y-112046119D01*
X132141005Y-111879697D01*
X132141006Y-111879690D01*
X132151499Y-111776986D01*
X132151500Y-111776973D01*
X132151500Y-111502000D01*
X131314000Y-111502000D01*
X130814000Y-111502000D01*
X130814000Y-110027000D01*
X131314000Y-110027000D01*
X131314000Y-111002000D01*
X132151499Y-111002000D01*
X132151499Y-110727028D01*
X132151498Y-110727013D01*
X132141005Y-110624302D01*
X132085858Y-110457880D01*
X132085856Y-110457875D01*
X131993815Y-110308654D01*
X131869845Y-110184684D01*
X131720624Y-110092643D01*
X131720619Y-110092641D01*
X131554197Y-110037494D01*
X131554190Y-110037493D01*
X131451486Y-110027000D01*
X131314000Y-110027000D01*
X130814000Y-110027000D01*
X130676527Y-110027000D01*
X130676512Y-110027001D01*
X130573802Y-110037494D01*
X130407380Y-110092641D01*
X130407375Y-110092643D01*
X130258154Y-110184684D01*
X130134183Y-110308655D01*
X130134179Y-110308660D01*
X130132326Y-110311665D01*
X130130518Y-110313290D01*
X130129702Y-110314323D01*
X130129525Y-110314183D01*
X130080374Y-110358385D01*
X130011411Y-110369601D01*
X129947331Y-110341752D01*
X129921253Y-110311653D01*
X129921237Y-110311628D01*
X129919212Y-110308344D01*
X129795156Y-110184288D01*
X129686364Y-110117185D01*
X129645836Y-110092187D01*
X129645831Y-110092185D01*
X129601581Y-110077522D01*
X129479297Y-110037001D01*
X129479295Y-110037000D01*
X129376510Y-110026500D01*
X128601498Y-110026500D01*
X128601480Y-110026501D01*
X128498703Y-110037000D01*
X128498700Y-110037001D01*
X128332168Y-110092185D01*
X128332163Y-110092187D01*
X128182842Y-110184289D01*
X128058789Y-110308342D01*
X127966687Y-110457663D01*
X127966685Y-110457668D01*
X127930621Y-110566504D01*
X127890848Y-110623949D01*
X127826333Y-110650772D01*
X127812915Y-110651500D01*
X126578670Y-110651500D01*
X126578654Y-110651499D01*
X126571058Y-110651499D01*
X126412943Y-110651499D01*
X126405347Y-110651499D01*
X126405331Y-110651500D01*
X125522097Y-110651500D01*
X125455058Y-110631815D01*
X125434416Y-110615181D01*
X123581416Y-108762181D01*
X123547931Y-108700858D01*
X123552915Y-108631166D01*
X123594787Y-108575233D01*
X123660251Y-108550816D01*
X123669097Y-108550500D01*
X134600909Y-108550500D01*
X134667948Y-108570185D01*
G37*
%TD.AperFunction*%
%TA.AperFunction,Conductor*%
G36*
X120081039Y-104163685D02*
G01*
X120126794Y-104216489D01*
X120138000Y-104268000D01*
X120138000Y-105481499D01*
X120412972Y-105481499D01*
X120412986Y-105481498D01*
X120515697Y-105471005D01*
X120682119Y-105415858D01*
X120682124Y-105415856D01*
X120831345Y-105323815D01*
X120955317Y-105199843D01*
X121042437Y-105058598D01*
X121094384Y-105011873D01*
X121163347Y-105000650D01*
X121227429Y-105028493D01*
X121265680Y-105084685D01*
X121268639Y-105093614D01*
X121268643Y-105093624D01*
X121360684Y-105242845D01*
X121484654Y-105366815D01*
X121633875Y-105458856D01*
X121633880Y-105458858D01*
X121800302Y-105514005D01*
X121800309Y-105514006D01*
X121903018Y-105524499D01*
X121919075Y-105524499D01*
X121986115Y-105544180D01*
X122031873Y-105596982D01*
X122041820Y-105666140D01*
X122024075Y-105714470D01*
X121956212Y-105822474D01*
X121896631Y-105992745D01*
X121896630Y-105992750D01*
X121876435Y-106171996D01*
X121876435Y-106172000D01*
X121879096Y-106195615D01*
X121867042Y-106264437D01*
X121819694Y-106315817D01*
X121755876Y-106333500D01*
X118580500Y-106333500D01*
X118513461Y-106313815D01*
X118467706Y-106261011D01*
X118456500Y-106209500D01*
X118456500Y-104997775D01*
X118476185Y-104930736D01*
X118528989Y-104884981D01*
X118598147Y-104875037D01*
X118661703Y-104904062D01*
X118698206Y-104958771D01*
X118728641Y-105050619D01*
X118728643Y-105050624D01*
X118820684Y-105199845D01*
X118944654Y-105323815D01*
X119093875Y-105415856D01*
X119093880Y-105415858D01*
X119260302Y-105471005D01*
X119260309Y-105471006D01*
X119363019Y-105481499D01*
X119637999Y-105481499D01*
X119638000Y-105481498D01*
X119638000Y-104268000D01*
X119657685Y-104200961D01*
X119710489Y-104155206D01*
X119762000Y-104144000D01*
X120014000Y-104144000D01*
X120081039Y-104163685D01*
G37*
%TD.AperFunction*%
%TA.AperFunction,Conductor*%
G36*
X118661703Y-102830651D02*
G01*
X118698205Y-102885359D01*
X118728186Y-102975834D01*
X118820288Y-103125156D01*
X118944344Y-103249212D01*
X118947628Y-103251237D01*
X118947653Y-103251253D01*
X118949445Y-103253246D01*
X118950011Y-103253693D01*
X118949934Y-103253789D01*
X118994379Y-103303199D01*
X119005603Y-103372161D01*
X118977761Y-103436244D01*
X118947665Y-103462326D01*
X118944660Y-103464179D01*
X118944655Y-103464183D01*
X118820684Y-103588154D01*
X118728643Y-103737375D01*
X118728641Y-103737380D01*
X118698206Y-103829229D01*
X118658433Y-103886674D01*
X118593918Y-103913497D01*
X118525142Y-103901182D01*
X118473942Y-103853639D01*
X118456500Y-103790225D01*
X118456500Y-102924364D01*
X118476185Y-102857325D01*
X118528989Y-102811570D01*
X118598147Y-102801626D01*
X118661703Y-102830651D01*
G37*
%TD.AperFunction*%
%TA.AperFunction,Conductor*%
G36*
X133116942Y-85456185D02*
G01*
X133137584Y-85472819D01*
X134502181Y-86837416D01*
X134535666Y-86898739D01*
X134538500Y-86925097D01*
X134538500Y-87997870D01*
X134538501Y-87997876D01*
X134544908Y-88057483D01*
X134595202Y-88192328D01*
X134595206Y-88192335D01*
X134681452Y-88307544D01*
X134681455Y-88307547D01*
X134796664Y-88393793D01*
X134796671Y-88393797D01*
X134931516Y-88444091D01*
X134977757Y-88449063D01*
X135042307Y-88475801D01*
X135082155Y-88533194D01*
X135088500Y-88572352D01*
X135088500Y-93727648D01*
X135068815Y-93794687D01*
X135016011Y-93840442D01*
X134977755Y-93850938D01*
X134931516Y-93855909D01*
X134796671Y-93906202D01*
X134796664Y-93906206D01*
X134681455Y-93992452D01*
X134681452Y-93992455D01*
X134595206Y-94107664D01*
X134595202Y-94107671D01*
X134544908Y-94242517D01*
X134538501Y-94302116D01*
X134538500Y-94302135D01*
X134538500Y-95947870D01*
X134538501Y-95947876D01*
X134544908Y-96007483D01*
X134595202Y-96142328D01*
X134595206Y-96142335D01*
X134681452Y-96257544D01*
X134681455Y-96257547D01*
X134796664Y-96343793D01*
X134796671Y-96343797D01*
X134931517Y-96394091D01*
X134931516Y-96394091D01*
X134938444Y-96394835D01*
X134991127Y-96400500D01*
X136386872Y-96400499D01*
X136446483Y-96394091D01*
X136581331Y-96343796D01*
X136696546Y-96257546D01*
X136696548Y-96257542D01*
X136701819Y-96252273D01*
X136763142Y-96218788D01*
X136832834Y-96223772D01*
X136888767Y-96265644D01*
X136913184Y-96331108D01*
X136913500Y-96339954D01*
X136913500Y-98855500D01*
X136893815Y-98922539D01*
X136841011Y-98968294D01*
X136789500Y-98979500D01*
X134992129Y-98979500D01*
X134992123Y-98979501D01*
X134932516Y-98985908D01*
X134797671Y-99036202D01*
X134797664Y-99036206D01*
X134682455Y-99122452D01*
X134682452Y-99122455D01*
X134596206Y-99237664D01*
X134596202Y-99237671D01*
X134545908Y-99372517D01*
X134539501Y-99432116D01*
X134539500Y-99432135D01*
X134539500Y-101227870D01*
X134539501Y-101227876D01*
X134545908Y-101287483D01*
X134596202Y-101422328D01*
X134596206Y-101422335D01*
X134682452Y-101537544D01*
X134682455Y-101537547D01*
X134797664Y-101623793D01*
X134797671Y-101623797D01*
X134929081Y-101672810D01*
X134985015Y-101714681D01*
X135009432Y-101780145D01*
X134994580Y-101848418D01*
X134973430Y-101876673D01*
X134851503Y-101998600D01*
X134715965Y-102192169D01*
X134715964Y-102192171D01*
X134616098Y-102406335D01*
X134616094Y-102406344D01*
X134554938Y-102634586D01*
X134554936Y-102634596D01*
X134534341Y-102869999D01*
X134534341Y-102870000D01*
X134554936Y-103105403D01*
X134554938Y-103105413D01*
X134589327Y-103233756D01*
X134587664Y-103303606D01*
X134557233Y-103353530D01*
X134153584Y-103757181D01*
X134092261Y-103790666D01*
X134065903Y-103793500D01*
X126962500Y-103793500D01*
X126895461Y-103773815D01*
X126849706Y-103721011D01*
X126838500Y-103669500D01*
X126838500Y-102282943D01*
X126838499Y-102282939D01*
X126824909Y-102232219D01*
X126814178Y-102192171D01*
X126797577Y-102130215D01*
X126784103Y-102106878D01*
X126765698Y-102074999D01*
X126765698Y-102074998D01*
X126718524Y-101993290D01*
X126718521Y-101993286D01*
X126718520Y-101993284D01*
X126606716Y-101881480D01*
X126606715Y-101881479D01*
X126602385Y-101877149D01*
X126602374Y-101877139D01*
X125798700Y-101073465D01*
X125765215Y-101012142D01*
X125763161Y-100999666D01*
X125756903Y-100944120D01*
X125768958Y-100875299D01*
X125816307Y-100823920D01*
X125883918Y-100806296D01*
X125921078Y-100813197D01*
X126058737Y-100861366D01*
X126058743Y-100861367D01*
X126058745Y-100861368D01*
X126058746Y-100861368D01*
X126058750Y-100861369D01*
X126237996Y-100881565D01*
X126238000Y-100881565D01*
X126238004Y-100881565D01*
X126417249Y-100861369D01*
X126417252Y-100861368D01*
X126417255Y-100861368D01*
X126587522Y-100801789D01*
X126740262Y-100705816D01*
X126867816Y-100578262D01*
X126963789Y-100425522D01*
X126968991Y-100410656D01*
X126974885Y-100393812D01*
X127015605Y-100337035D01*
X127080557Y-100311286D01*
X127149119Y-100324741D01*
X127199523Y-100373127D01*
X127208756Y-100397239D01*
X127209871Y-100396870D01*
X127233322Y-100467640D01*
X127267186Y-100569834D01*
X127351059Y-100705815D01*
X127359289Y-100719157D01*
X127449317Y-100809185D01*
X127482802Y-100870508D01*
X127484856Y-100910749D01*
X127464435Y-101091996D01*
X127464435Y-101092003D01*
X127484630Y-101271249D01*
X127484631Y-101271254D01*
X127544211Y-101441523D01*
X127640184Y-101594262D01*
X127767738Y-101721816D01*
X127920478Y-101817789D01*
X128008011Y-101848418D01*
X128090745Y-101877368D01*
X128090750Y-101877369D01*
X128269996Y-101897565D01*
X128270000Y-101897565D01*
X128270004Y-101897565D01*
X128449249Y-101877369D01*
X128449252Y-101877368D01*
X128449255Y-101877368D01*
X128619522Y-101817789D01*
X128772262Y-101721816D01*
X128899816Y-101594262D01*
X128995789Y-101441522D01*
X129055368Y-101271255D01*
X129055369Y-101271249D01*
X129075565Y-101092003D01*
X129075565Y-101091997D01*
X129065312Y-101000999D01*
X129061089Y-100963522D01*
X129073143Y-100894702D01*
X129115433Y-100848259D01*
X129114987Y-100847695D01*
X129118416Y-100844982D01*
X129119226Y-100844093D01*
X129120656Y-100843212D01*
X129214319Y-100749549D01*
X129275642Y-100716064D01*
X129345334Y-100721048D01*
X129389681Y-100749549D01*
X129483344Y-100843212D01*
X129632666Y-100935314D01*
X129799203Y-100990499D01*
X129901991Y-101001000D01*
X130702008Y-101000999D01*
X130702016Y-101000998D01*
X130702019Y-101000998D01*
X130758302Y-100995248D01*
X130804797Y-100990499D01*
X130971334Y-100935314D01*
X131120656Y-100843212D01*
X131129868Y-100834000D01*
X131595501Y-100834000D01*
X131595501Y-100971486D01*
X131605994Y-101074197D01*
X131661141Y-101240619D01*
X131661143Y-101240624D01*
X131753184Y-101389845D01*
X131877154Y-101513815D01*
X132026375Y-101605856D01*
X132026380Y-101605858D01*
X132192802Y-101661005D01*
X132192809Y-101661006D01*
X132295519Y-101671499D01*
X132570499Y-101671499D01*
X132570500Y-101671498D01*
X132570500Y-100834000D01*
X133070500Y-100834000D01*
X133070500Y-101671499D01*
X133345472Y-101671499D01*
X133345486Y-101671498D01*
X133448197Y-101661005D01*
X133614619Y-101605858D01*
X133614624Y-101605856D01*
X133763845Y-101513815D01*
X133887815Y-101389845D01*
X133979856Y-101240624D01*
X133979858Y-101240619D01*
X134035005Y-101074197D01*
X134035006Y-101074190D01*
X134045499Y-100971486D01*
X134045500Y-100971473D01*
X134045500Y-100834000D01*
X133070500Y-100834000D01*
X132570500Y-100834000D01*
X131595501Y-100834000D01*
X131129868Y-100834000D01*
X131244712Y-100719156D01*
X131336814Y-100569834D01*
X131364595Y-100485995D01*
X131404368Y-100428552D01*
X131468884Y-100401729D01*
X131482301Y-100401001D01*
X131608054Y-100401001D01*
X131608057Y-100401001D01*
X131760785Y-100360077D01*
X131765966Y-100357085D01*
X131777178Y-100350613D01*
X131839178Y-100334000D01*
X134045499Y-100334000D01*
X134045499Y-100196528D01*
X134045498Y-100196513D01*
X134035005Y-100093802D01*
X133979858Y-99927380D01*
X133979856Y-99927375D01*
X133887815Y-99778154D01*
X133763844Y-99654183D01*
X133763841Y-99654181D01*
X133760839Y-99652329D01*
X133759213Y-99650521D01*
X133758177Y-99649702D01*
X133758317Y-99649524D01*
X133714117Y-99600380D01*
X133702897Y-99531417D01*
X133730743Y-99467336D01*
X133760844Y-99441254D01*
X133764156Y-99439212D01*
X133888212Y-99315156D01*
X133980314Y-99165834D01*
X134035499Y-98999297D01*
X134046000Y-98896509D01*
X134045999Y-98121492D01*
X134045570Y-98117297D01*
X134035499Y-98018703D01*
X134035498Y-98018700D01*
X134017685Y-97964945D01*
X133980314Y-97852166D01*
X133888212Y-97702844D01*
X133764156Y-97578788D01*
X133614834Y-97486686D01*
X133448297Y-97431501D01*
X133448295Y-97431500D01*
X133345516Y-97421000D01*
X133345509Y-97421000D01*
X132633097Y-97421000D01*
X132566058Y-97401315D01*
X132545416Y-97384681D01*
X132313590Y-97152855D01*
X132313588Y-97152852D01*
X132194717Y-97033981D01*
X132194716Y-97033980D01*
X132096849Y-96977477D01*
X132096848Y-96977476D01*
X132057783Y-96954922D01*
X131979077Y-96933833D01*
X131905057Y-96913999D01*
X131746943Y-96913999D01*
X131739347Y-96913999D01*
X131739331Y-96914000D01*
X131482301Y-96914000D01*
X131415262Y-96894315D01*
X131369507Y-96841511D01*
X131364595Y-96829004D01*
X131362594Y-96822964D01*
X131336814Y-96745166D01*
X131244712Y-96595844D01*
X131244710Y-96595842D01*
X131240920Y-96589697D01*
X131243533Y-96588084D01*
X131222573Y-96536060D01*
X131235644Y-96467424D01*
X131283747Y-96416750D01*
X131345985Y-96400000D01*
X131886828Y-96400000D01*
X131886844Y-96399999D01*
X131946372Y-96393598D01*
X131946379Y-96393596D01*
X132081086Y-96343354D01*
X132081093Y-96343350D01*
X132196187Y-96257190D01*
X132196190Y-96257187D01*
X132282350Y-96142093D01*
X132282354Y-96142086D01*
X132332596Y-96007379D01*
X132332598Y-96007372D01*
X132338999Y-95947844D01*
X132339000Y-95947827D01*
X132339000Y-95375000D01*
X130039000Y-95375000D01*
X130039000Y-95947844D01*
X130045401Y-96007372D01*
X130045403Y-96007379D01*
X130097354Y-96146667D01*
X130102338Y-96216359D01*
X130068853Y-96277682D01*
X130007530Y-96311166D01*
X129981174Y-96314000D01*
X129901999Y-96314000D01*
X129901980Y-96314001D01*
X129799203Y-96324500D01*
X129799200Y-96324501D01*
X129632668Y-96379685D01*
X129632663Y-96379687D01*
X129483342Y-96471789D01*
X129389681Y-96565451D01*
X129328358Y-96598936D01*
X129258666Y-96593952D01*
X129214319Y-96565451D01*
X129120657Y-96471789D01*
X129120656Y-96471788D01*
X128971334Y-96379686D01*
X128971332Y-96379685D01*
X128965187Y-96375895D01*
X128966290Y-96374105D01*
X128921649Y-96334790D01*
X128902500Y-96268591D01*
X128902500Y-96218945D01*
X128902500Y-96218943D01*
X128880871Y-96138223D01*
X128861577Y-96066215D01*
X128832387Y-96015656D01*
X128816555Y-95967539D01*
X128801369Y-95832750D01*
X128801368Y-95832745D01*
X128778000Y-95765963D01*
X128741789Y-95662478D01*
X128725267Y-95636184D01*
X128645815Y-95509737D01*
X128518262Y-95382184D01*
X128365523Y-95286211D01*
X128195254Y-95226631D01*
X128195249Y-95226630D01*
X128016004Y-95206435D01*
X128015996Y-95206435D01*
X127836750Y-95226630D01*
X127836745Y-95226631D01*
X127666476Y-95286211D01*
X127513737Y-95382184D01*
X127386184Y-95509737D01*
X127386182Y-95509740D01*
X127358993Y-95553011D01*
X127306658Y-95599302D01*
X127237605Y-95609949D01*
X127173756Y-95581574D01*
X127149007Y-95553011D01*
X127121817Y-95509740D01*
X127121815Y-95509737D01*
X126994262Y-95382184D01*
X126841523Y-95286211D01*
X126671254Y-95226631D01*
X126671249Y-95226630D01*
X126492004Y-95206435D01*
X126491996Y-95206435D01*
X126312750Y-95226630D01*
X126312742Y-95226632D01*
X126241454Y-95251577D01*
X126171675Y-95255138D01*
X126111048Y-95220409D01*
X126078821Y-95158415D01*
X126076500Y-95134535D01*
X126076500Y-94875000D01*
X130039000Y-94875000D01*
X130939000Y-94875000D01*
X130939000Y-93850000D01*
X131439000Y-93850000D01*
X131439000Y-94875000D01*
X132339000Y-94875000D01*
X132339000Y-94302172D01*
X132338999Y-94302155D01*
X132332598Y-94242627D01*
X132332596Y-94242620D01*
X132282354Y-94107913D01*
X132282350Y-94107906D01*
X132196190Y-93992812D01*
X132196187Y-93992809D01*
X132081093Y-93906649D01*
X132081086Y-93906645D01*
X131946379Y-93856403D01*
X131946372Y-93856401D01*
X131886844Y-93850000D01*
X131439000Y-93850000D01*
X130939000Y-93850000D01*
X130491155Y-93850000D01*
X130431627Y-93856401D01*
X130431620Y-93856403D01*
X130296913Y-93906645D01*
X130296906Y-93906649D01*
X130181812Y-93992809D01*
X130181809Y-93992812D01*
X130095649Y-94107906D01*
X130095645Y-94107913D01*
X130045403Y-94242620D01*
X130045401Y-94242627D01*
X130039000Y-94302155D01*
X130039000Y-94875000D01*
X126076500Y-94875000D01*
X126076500Y-90157094D01*
X126096185Y-90090055D01*
X126148989Y-90044300D01*
X126218147Y-90034356D01*
X126266471Y-90052100D01*
X126304193Y-90075802D01*
X126396475Y-90133788D01*
X126566745Y-90193368D01*
X126566750Y-90193369D01*
X126745996Y-90213565D01*
X126746000Y-90213565D01*
X126746004Y-90213565D01*
X126925249Y-90193369D01*
X126925252Y-90193368D01*
X126925255Y-90193368D01*
X127095522Y-90133789D01*
X127248262Y-90037816D01*
X127375816Y-89910262D01*
X127471789Y-89757522D01*
X127531368Y-89587255D01*
X127536228Y-89544124D01*
X127551565Y-89408003D01*
X127551565Y-89407996D01*
X127531369Y-89228750D01*
X127531368Y-89228745D01*
X127471788Y-89058475D01*
X127439679Y-89007375D01*
X127420678Y-88940138D01*
X127441045Y-88873303D01*
X127494313Y-88828088D01*
X127563569Y-88818850D01*
X127626826Y-88848522D01*
X127632353Y-88853721D01*
X127705344Y-88926712D01*
X127854666Y-89018814D01*
X128021203Y-89073999D01*
X128123991Y-89084500D01*
X128924008Y-89084499D01*
X128924016Y-89084498D01*
X128924019Y-89084498D01*
X128980302Y-89078748D01*
X129026797Y-89073999D01*
X129193334Y-89018814D01*
X129342656Y-88926712D01*
X129466712Y-88802656D01*
X129558814Y-88653334D01*
X129613999Y-88486797D01*
X129624500Y-88384009D01*
X129624499Y-87425000D01*
X130039000Y-87425000D01*
X130039000Y-87997844D01*
X130045401Y-88057372D01*
X130045403Y-88057379D01*
X130095645Y-88192086D01*
X130095649Y-88192093D01*
X130181809Y-88307187D01*
X130181812Y-88307190D01*
X130296906Y-88393350D01*
X130296913Y-88393354D01*
X130431620Y-88443596D01*
X130431627Y-88443598D01*
X130491155Y-88449999D01*
X130491172Y-88450000D01*
X130939000Y-88450000D01*
X130939000Y-87425000D01*
X131439000Y-87425000D01*
X131439000Y-88450000D01*
X131886828Y-88450000D01*
X131886844Y-88449999D01*
X131946372Y-88443598D01*
X131946379Y-88443596D01*
X132081086Y-88393354D01*
X132081093Y-88393350D01*
X132196187Y-88307190D01*
X132196190Y-88307187D01*
X132282350Y-88192093D01*
X132282354Y-88192086D01*
X132332596Y-88057379D01*
X132332598Y-88057372D01*
X132338999Y-87997844D01*
X132339000Y-87997827D01*
X132339000Y-87425000D01*
X131439000Y-87425000D01*
X130939000Y-87425000D01*
X130039000Y-87425000D01*
X129624499Y-87425000D01*
X129624499Y-87383992D01*
X129613999Y-87281203D01*
X129558814Y-87114666D01*
X129466712Y-86965344D01*
X129426368Y-86925000D01*
X130039000Y-86925000D01*
X130939000Y-86925000D01*
X130939000Y-85900000D01*
X131439000Y-85900000D01*
X131439000Y-86925000D01*
X132339000Y-86925000D01*
X132339000Y-86352172D01*
X132338999Y-86352155D01*
X132332598Y-86292627D01*
X132332596Y-86292620D01*
X132282354Y-86157913D01*
X132282350Y-86157906D01*
X132196190Y-86042812D01*
X132196187Y-86042809D01*
X132081093Y-85956649D01*
X132081086Y-85956645D01*
X131946379Y-85906403D01*
X131946372Y-85906401D01*
X131886844Y-85900000D01*
X131439000Y-85900000D01*
X130939000Y-85900000D01*
X130491155Y-85900000D01*
X130431627Y-85906401D01*
X130431620Y-85906403D01*
X130296913Y-85956645D01*
X130296906Y-85956649D01*
X130181812Y-86042809D01*
X130181809Y-86042812D01*
X130095649Y-86157906D01*
X130095645Y-86157913D01*
X130045403Y-86292620D01*
X130045401Y-86292627D01*
X130039000Y-86352155D01*
X130039000Y-86925000D01*
X129426368Y-86925000D01*
X129342656Y-86841288D01*
X129193334Y-86749186D01*
X129193332Y-86749185D01*
X129187187Y-86745395D01*
X129188290Y-86743605D01*
X129143649Y-86704290D01*
X129124500Y-86638091D01*
X129124500Y-86099767D01*
X129144185Y-86032728D01*
X129183401Y-85994230D01*
X129330156Y-85903712D01*
X129454212Y-85779656D01*
X129546314Y-85630334D01*
X129582379Y-85521494D01*
X129622152Y-85464051D01*
X129686667Y-85437228D01*
X129700085Y-85436500D01*
X133049903Y-85436500D01*
X133116942Y-85456185D01*
G37*
%TD.AperFunction*%
%TA.AperFunction,Conductor*%
G36*
X127290460Y-54736947D02*
G01*
X127337005Y-54789056D01*
X127338552Y-54792443D01*
X127338953Y-54793356D01*
X127469506Y-54993182D01*
X127631168Y-55168795D01*
X127819531Y-55315403D01*
X128029455Y-55429009D01*
X128040239Y-55432711D01*
X128088476Y-55449271D01*
X128145492Y-55489656D01*
X128171623Y-55554455D01*
X128167989Y-55598645D01*
X128157911Y-55636257D01*
X128121546Y-55695918D01*
X128058699Y-55726447D01*
X127989324Y-55718152D01*
X127979118Y-55713219D01*
X127810546Y-55621991D01*
X127810541Y-55621989D01*
X127584786Y-55544488D01*
X127427826Y-55518296D01*
X127349347Y-55505200D01*
X127110653Y-55505200D01*
X127051793Y-55515022D01*
X126875213Y-55544488D01*
X126649458Y-55621989D01*
X126649453Y-55621991D01*
X126439529Y-55735598D01*
X126251169Y-55882204D01*
X126089506Y-56057817D01*
X125958949Y-56257649D01*
X125958275Y-56259187D01*
X125957832Y-56259713D01*
X125956511Y-56262155D01*
X125956008Y-56261882D01*
X125913310Y-56312665D01*
X125846571Y-56333344D01*
X125779246Y-56314659D01*
X125732711Y-56262541D01*
X125731168Y-56259162D01*
X125730605Y-56257879D01*
X125639942Y-56119109D01*
X124949494Y-56809557D01*
X124933381Y-56749419D01*
X124866502Y-56633580D01*
X124771920Y-56538998D01*
X124656081Y-56472119D01*
X124595941Y-56456004D01*
X125287158Y-55764786D01*
X125287158Y-55764784D01*
X125250203Y-55736021D01*
X125250192Y-55736014D01*
X125040349Y-55622453D01*
X125040339Y-55622448D01*
X124814664Y-55544974D01*
X124579304Y-55505700D01*
X124340696Y-55505700D01*
X124105335Y-55544974D01*
X123879660Y-55622448D01*
X123879655Y-55622450D01*
X123669804Y-55736016D01*
X123632839Y-55764786D01*
X124324058Y-56456004D01*
X124263919Y-56472119D01*
X124148080Y-56538998D01*
X124053498Y-56633580D01*
X123986619Y-56749419D01*
X123970504Y-56809558D01*
X123280056Y-56119110D01*
X123189392Y-56257883D01*
X123189389Y-56257888D01*
X123188824Y-56259178D01*
X123188452Y-56259619D01*
X123186949Y-56262398D01*
X123186377Y-56262088D01*
X123143863Y-56312660D01*
X123077125Y-56333344D01*
X123009799Y-56314664D01*
X122963260Y-56262549D01*
X122961718Y-56259172D01*
X122961049Y-56257649D01*
X122961048Y-56257647D01*
X122961047Y-56257644D01*
X122830494Y-56057818D01*
X122668832Y-55882205D01*
X122480469Y-55735597D01*
X122375237Y-55678648D01*
X122270546Y-55621991D01*
X122270541Y-55621989D01*
X122044786Y-55544488D01*
X121887826Y-55518296D01*
X121809347Y-55505200D01*
X121570653Y-55505200D01*
X121511793Y-55515022D01*
X121335213Y-55544488D01*
X121109458Y-55621989D01*
X121109453Y-55621991D01*
X120899529Y-55735598D01*
X120711169Y-55882204D01*
X120574988Y-56030136D01*
X120515101Y-56066127D01*
X120445262Y-56064026D01*
X120387646Y-56024502D01*
X120360545Y-55960102D01*
X120360468Y-55959405D01*
X120360299Y-55957832D01*
X120360299Y-55957828D01*
X120353891Y-55898217D01*
X120312670Y-55787699D01*
X120303597Y-55763371D01*
X120303595Y-55763368D01*
X120289180Y-55744112D01*
X120264762Y-55678648D01*
X120279613Y-55610375D01*
X120329017Y-55560969D01*
X120388446Y-55545800D01*
X120429346Y-55545800D01*
X120429347Y-55545800D01*
X120664784Y-55506512D01*
X120890545Y-55429009D01*
X121100469Y-55315403D01*
X121288832Y-55168795D01*
X121450494Y-54993182D01*
X121581047Y-54793356D01*
X121581442Y-54792454D01*
X121581704Y-54792143D01*
X121583489Y-54788845D01*
X121584167Y-54789212D01*
X121626396Y-54738968D01*
X121693131Y-54718275D01*
X121760460Y-54736947D01*
X121807005Y-54789056D01*
X121808552Y-54792443D01*
X121808953Y-54793356D01*
X121939506Y-54993182D01*
X122101168Y-55168795D01*
X122289531Y-55315403D01*
X122499455Y-55429009D01*
X122725216Y-55506512D01*
X122960653Y-55545800D01*
X122960654Y-55545800D01*
X123199346Y-55545800D01*
X123199347Y-55545800D01*
X123434784Y-55506512D01*
X123660545Y-55429009D01*
X123870469Y-55315403D01*
X124058832Y-55168795D01*
X124220494Y-54993182D01*
X124351047Y-54793356D01*
X124351049Y-54793352D01*
X124353852Y-54789062D01*
X124354789Y-54789674D01*
X124400155Y-54743958D01*
X124468370Y-54728844D01*
X124533928Y-54753009D01*
X124565522Y-54789470D01*
X124566148Y-54789062D01*
X124568951Y-54793352D01*
X124568953Y-54793356D01*
X124699506Y-54993182D01*
X124861168Y-55168795D01*
X125049531Y-55315403D01*
X125259455Y-55429009D01*
X125485216Y-55506512D01*
X125720653Y-55545800D01*
X125720654Y-55545800D01*
X125959346Y-55545800D01*
X125959347Y-55545800D01*
X126194784Y-55506512D01*
X126420545Y-55429009D01*
X126630469Y-55315403D01*
X126818832Y-55168795D01*
X126980494Y-54993182D01*
X127111047Y-54793356D01*
X127111442Y-54792454D01*
X127111704Y-54792143D01*
X127113489Y-54788845D01*
X127114167Y-54789212D01*
X127156396Y-54738968D01*
X127223131Y-54718275D01*
X127290460Y-54736947D01*
G37*
%TD.AperFunction*%
%TA.AperFunction,Conductor*%
G36*
X139904539Y-45986185D02*
G01*
X139950294Y-46038989D01*
X139961500Y-46090500D01*
X139961500Y-54203162D01*
X139941815Y-54270201D01*
X139889011Y-54315956D01*
X139819853Y-54325900D01*
X139756297Y-54296875D01*
X139722939Y-54250615D01*
X139703712Y-54204199D01*
X139703712Y-54204198D01*
X139538522Y-53905308D01*
X139538520Y-53905306D01*
X139538519Y-53905303D01*
X139538516Y-53905298D01*
X139340907Y-53626796D01*
X139340906Y-53626795D01*
X139340904Y-53626792D01*
X139113346Y-53372154D01*
X138858708Y-53144596D01*
X138858705Y-53144594D01*
X138858703Y-53144592D01*
X138580201Y-52946983D01*
X138580196Y-52946980D01*
X138281669Y-52781991D01*
X138281302Y-52781788D01*
X137965796Y-52651101D01*
X137881448Y-52626800D01*
X137637646Y-52556562D01*
X137637637Y-52556560D01*
X137300971Y-52499358D01*
X137300959Y-52499356D01*
X136960000Y-52480209D01*
X136619040Y-52499356D01*
X136619028Y-52499358D01*
X136282362Y-52556560D01*
X136282353Y-52556562D01*
X135954207Y-52651100D01*
X135954204Y-52651101D01*
X135920166Y-52665200D01*
X135638699Y-52781787D01*
X135339803Y-52946980D01*
X135339798Y-52946983D01*
X135061296Y-53144592D01*
X134806654Y-53372154D01*
X134579092Y-53626796D01*
X134381483Y-53905298D01*
X134381480Y-53905303D01*
X134216287Y-54204199D01*
X134085600Y-54519707D01*
X133991062Y-54847853D01*
X133991060Y-54847862D01*
X133933858Y-55184528D01*
X133933856Y-55184540D01*
X133914709Y-55525500D01*
X133933856Y-55866459D01*
X133933858Y-55866471D01*
X133967424Y-56064026D01*
X133991061Y-56203141D01*
X134085601Y-56531296D01*
X134188948Y-56780798D01*
X134216287Y-56846800D01*
X134381480Y-57145696D01*
X134381483Y-57145701D01*
X134572397Y-57414767D01*
X134579096Y-57424208D01*
X134806654Y-57678846D01*
X135061292Y-57906404D01*
X135061295Y-57906406D01*
X135061296Y-57906407D01*
X135339798Y-58104016D01*
X135339803Y-58104019D01*
X135339806Y-58104020D01*
X135339808Y-58104022D01*
X135638698Y-58269212D01*
X135954204Y-58399899D01*
X136282359Y-58494439D01*
X136619036Y-58551643D01*
X136960000Y-58570791D01*
X137300964Y-58551643D01*
X137637641Y-58494439D01*
X137965796Y-58399899D01*
X138281302Y-58269212D01*
X138580192Y-58104022D01*
X138580197Y-58104018D01*
X138580201Y-58104016D01*
X138759549Y-57976761D01*
X138858708Y-57906404D01*
X139113346Y-57678846D01*
X139340904Y-57424208D01*
X139511780Y-57183381D01*
X139538516Y-57145701D01*
X139538519Y-57145696D01*
X139538522Y-57145692D01*
X139703712Y-56846802D01*
X139722939Y-56800385D01*
X139766780Y-56745981D01*
X139833074Y-56723916D01*
X139900773Y-56741195D01*
X139948384Y-56792332D01*
X139961500Y-56847837D01*
X139961500Y-57746155D01*
X139945162Y-57807676D01*
X136980200Y-62996358D01*
X136979927Y-62996834D01*
X136947584Y-63052855D01*
X136947354Y-63053420D01*
X136947115Y-63054001D01*
X136946768Y-63054837D01*
X136930323Y-63117317D01*
X136930182Y-63117847D01*
X136913488Y-63180148D01*
X136913374Y-63181051D01*
X136913305Y-63181579D01*
X136913210Y-63182294D01*
X136913499Y-63246993D01*
X136913500Y-63247545D01*
X136913500Y-68780838D01*
X136893815Y-68847877D01*
X136841011Y-68893632D01*
X136771853Y-68903576D01*
X136708297Y-68874551D01*
X136682113Y-68842838D01*
X136624522Y-68743087D01*
X136624518Y-68743082D01*
X135312837Y-67431401D01*
X133952099Y-66070664D01*
X133918615Y-66009342D01*
X133920516Y-65949046D01*
X133925634Y-65931060D01*
X133946137Y-65709800D01*
X133925634Y-65488540D01*
X133864824Y-65274816D01*
X133765778Y-65075904D01*
X133631868Y-64898578D01*
X133631866Y-64898575D01*
X133467655Y-64748878D01*
X133467653Y-64748876D01*
X133278733Y-64631902D01*
X133278727Y-64631899D01*
X133171080Y-64590197D01*
X133071528Y-64551630D01*
X132853104Y-64510800D01*
X132630896Y-64510800D01*
X132412472Y-64551630D01*
X132362695Y-64570913D01*
X132205272Y-64631899D01*
X132205266Y-64631902D01*
X132016346Y-64748876D01*
X132016344Y-64748878D01*
X131852133Y-64898575D01*
X131730212Y-65060027D01*
X131674103Y-65101663D01*
X131631258Y-65109300D01*
X128638051Y-65109300D01*
X128571012Y-65089615D01*
X128525257Y-65036811D01*
X128520346Y-65024308D01*
X128517814Y-65016666D01*
X128425712Y-64867344D01*
X128301656Y-64743288D01*
X128152334Y-64651186D01*
X127985797Y-64596001D01*
X127985795Y-64596000D01*
X127883010Y-64585500D01*
X127132998Y-64585500D01*
X127132980Y-64585501D01*
X127030203Y-64596000D01*
X127030200Y-64596001D01*
X126863668Y-64651185D01*
X126863663Y-64651187D01*
X126714342Y-64743289D01*
X126590285Y-64867346D01*
X126588537Y-64870182D01*
X126586829Y-64871717D01*
X126585807Y-64873011D01*
X126585585Y-64872836D01*
X126536589Y-64916905D01*
X126467626Y-64928126D01*
X126403544Y-64900282D01*
X126377463Y-64870182D01*
X126375714Y-64867346D01*
X126251657Y-64743289D01*
X126251656Y-64743288D01*
X126102334Y-64651186D01*
X125935797Y-64596001D01*
X125935795Y-64596000D01*
X125833010Y-64585500D01*
X125082998Y-64585500D01*
X125082980Y-64585501D01*
X124980203Y-64596000D01*
X124980200Y-64596001D01*
X124813668Y-64651185D01*
X124813663Y-64651187D01*
X124664342Y-64743289D01*
X124540289Y-64867342D01*
X124448187Y-65016663D01*
X124448185Y-65016668D01*
X124433000Y-65062494D01*
X124393001Y-65183203D01*
X124393001Y-65183204D01*
X124393000Y-65183204D01*
X124382500Y-65285983D01*
X124382500Y-66286001D01*
X124382501Y-66286019D01*
X124393000Y-66388796D01*
X124393001Y-66388799D01*
X124395154Y-66395295D01*
X124448186Y-66555334D01*
X124540288Y-66704656D01*
X124664344Y-66828712D01*
X124798597Y-66911519D01*
X124845321Y-66963465D01*
X124857500Y-67017057D01*
X124857500Y-67364362D01*
X124837815Y-67431401D01*
X124798598Y-67469899D01*
X124730288Y-67512033D01*
X124689342Y-67537289D01*
X124565289Y-67661342D01*
X124473187Y-67810663D01*
X124473185Y-67810668D01*
X124473115Y-67810880D01*
X124418001Y-67977203D01*
X124418001Y-67977204D01*
X124418000Y-67977204D01*
X124407500Y-68079983D01*
X124407500Y-69080001D01*
X124407501Y-69080019D01*
X124418000Y-69182796D01*
X124418001Y-69182799D01*
X124464863Y-69324216D01*
X124473186Y-69349334D01*
X124565288Y-69498656D01*
X124689344Y-69622712D01*
X124816598Y-69701202D01*
X124863321Y-69753147D01*
X124875500Y-69806739D01*
X124875500Y-69856232D01*
X124855815Y-69923271D01*
X124816598Y-69961769D01*
X124720923Y-70020781D01*
X124669842Y-70052289D01*
X124545789Y-70176342D01*
X124453687Y-70325663D01*
X124453685Y-70325668D01*
X124425849Y-70409670D01*
X124398501Y-70492203D01*
X124398501Y-70492204D01*
X124398500Y-70492204D01*
X124388000Y-70594983D01*
X124388000Y-71645001D01*
X124388001Y-71645019D01*
X124398500Y-71747796D01*
X124398501Y-71747799D01*
X124453615Y-71914119D01*
X124453686Y-71914334D01*
X124545788Y-72063656D01*
X124669844Y-72187712D01*
X124816597Y-72278229D01*
X124863321Y-72330175D01*
X124875500Y-72383767D01*
X124875500Y-72650232D01*
X124855815Y-72717271D01*
X124816598Y-72755769D01*
X124803127Y-72764079D01*
X124669842Y-72846289D01*
X124545789Y-72970342D01*
X124453687Y-73119663D01*
X124453685Y-73119668D01*
X124441414Y-73156699D01*
X124398501Y-73286203D01*
X124398501Y-73286204D01*
X124398500Y-73286204D01*
X124388000Y-73388983D01*
X124388000Y-74439001D01*
X124388001Y-74439019D01*
X124398500Y-74541796D01*
X124398501Y-74541799D01*
X124453615Y-74708119D01*
X124453686Y-74708334D01*
X124545788Y-74857656D01*
X124669844Y-74981712D01*
X124816597Y-75072229D01*
X124863321Y-75124175D01*
X124875500Y-75177767D01*
X124875500Y-95339875D01*
X124855815Y-95406914D01*
X124803011Y-95452669D01*
X124737619Y-95463096D01*
X124731325Y-95462387D01*
X124714000Y-95460435D01*
X124713998Y-95460435D01*
X124713997Y-95460435D01*
X124713996Y-95460435D01*
X124534750Y-95480630D01*
X124534745Y-95480631D01*
X124364476Y-95540211D01*
X124211737Y-95636184D01*
X124084184Y-95763737D01*
X123988211Y-95916476D01*
X123928631Y-96086745D01*
X123928630Y-96086750D01*
X123908435Y-96265996D01*
X123908435Y-96266003D01*
X123928630Y-96445249D01*
X123928631Y-96445254D01*
X123988211Y-96615523D01*
X124021328Y-96668228D01*
X124040328Y-96735465D01*
X124019960Y-96802300D01*
X123966692Y-96847514D01*
X123956529Y-96849670D01*
X123948000Y-96858200D01*
X123948000Y-98678000D01*
X123928315Y-98745039D01*
X123875511Y-98790794D01*
X123824000Y-98802000D01*
X123572000Y-98802000D01*
X123504961Y-98782315D01*
X123459206Y-98729511D01*
X123448000Y-98678000D01*
X123448000Y-96858200D01*
X122748455Y-96858200D01*
X122688927Y-96864601D01*
X122688923Y-96864602D01*
X122549296Y-96916681D01*
X122505962Y-96924499D01*
X122293314Y-96924499D01*
X122226275Y-96904814D01*
X122180520Y-96852010D01*
X122170576Y-96782852D01*
X122176272Y-96759544D01*
X122184335Y-96736500D01*
X122197368Y-96699255D01*
X122200864Y-96668228D01*
X122217565Y-96520003D01*
X122217565Y-96519996D01*
X122197369Y-96340750D01*
X122197368Y-96340745D01*
X122188010Y-96314001D01*
X122137789Y-96170478D01*
X122129960Y-96158019D01*
X122041815Y-96017737D01*
X121914262Y-95890184D01*
X121761523Y-95794211D01*
X121591254Y-95734631D01*
X121591249Y-95734630D01*
X121412004Y-95714435D01*
X121411996Y-95714435D01*
X121284382Y-95728813D01*
X121215560Y-95716758D01*
X121164181Y-95669409D01*
X121146499Y-95605593D01*
X121146499Y-95357998D01*
X121146498Y-95357981D01*
X121135999Y-95255203D01*
X121135998Y-95255200D01*
X121119839Y-95206435D01*
X121080814Y-95088666D01*
X120988712Y-94939344D01*
X120895049Y-94845681D01*
X120861564Y-94784358D01*
X120866548Y-94714666D01*
X120895049Y-94670319D01*
X120988712Y-94576656D01*
X121080814Y-94427334D01*
X121135999Y-94260797D01*
X121146500Y-94158009D01*
X121146499Y-93357992D01*
X121135999Y-93255203D01*
X121080814Y-93088666D01*
X120988712Y-92939344D01*
X120864656Y-92815288D01*
X120715334Y-92723186D01*
X120611669Y-92688834D01*
X120573495Y-92676185D01*
X120516051Y-92636412D01*
X120489228Y-92571896D01*
X120488500Y-92558479D01*
X120488500Y-92105300D01*
X120508185Y-92038261D01*
X120560989Y-91992506D01*
X120573482Y-91987599D01*
X120657334Y-91959814D01*
X120806656Y-91867712D01*
X120930712Y-91743656D01*
X121022814Y-91594334D01*
X121077999Y-91427797D01*
X121088500Y-91325009D01*
X121088499Y-90574992D01*
X121086659Y-90556983D01*
X121077999Y-90472203D01*
X121077998Y-90472200D01*
X121072033Y-90454200D01*
X121022814Y-90305666D01*
X120930712Y-90156344D01*
X120806656Y-90032288D01*
X120803342Y-90030243D01*
X120801546Y-90028248D01*
X120800989Y-90027807D01*
X120801064Y-90027711D01*
X120756618Y-89978297D01*
X120745397Y-89909334D01*
X120773240Y-89845252D01*
X120803348Y-89819165D01*
X120806342Y-89817318D01*
X120930315Y-89693345D01*
X121022356Y-89544124D01*
X121022358Y-89544119D01*
X121077505Y-89377697D01*
X121077506Y-89377690D01*
X121087999Y-89274986D01*
X121088000Y-89274973D01*
X121088000Y-89150000D01*
X118688001Y-89150000D01*
X118688001Y-89274986D01*
X118698494Y-89377697D01*
X118753641Y-89544119D01*
X118753643Y-89544124D01*
X118845684Y-89693345D01*
X118969655Y-89817316D01*
X118969659Y-89817319D01*
X118972656Y-89819168D01*
X118974279Y-89820972D01*
X118975323Y-89821798D01*
X118975181Y-89821976D01*
X119019381Y-89871116D01*
X119030602Y-89940079D01*
X119002759Y-90004161D01*
X118972661Y-90030241D01*
X118969349Y-90032283D01*
X118969343Y-90032288D01*
X118845289Y-90156342D01*
X118753187Y-90305663D01*
X118753186Y-90305666D01*
X118698001Y-90472203D01*
X118698001Y-90472204D01*
X118698000Y-90472204D01*
X118687500Y-90574983D01*
X118687500Y-91325001D01*
X118687501Y-91325019D01*
X118698000Y-91427796D01*
X118698001Y-91427799D01*
X118747220Y-91576331D01*
X118753186Y-91594334D01*
X118845288Y-91743656D01*
X118969344Y-91867712D01*
X119118666Y-91959814D01*
X119202505Y-91987595D01*
X119259948Y-92027366D01*
X119286772Y-92091882D01*
X119287500Y-92105300D01*
X119287500Y-92596918D01*
X119267815Y-92663957D01*
X119215011Y-92709712D01*
X119202506Y-92714623D01*
X119176672Y-92723183D01*
X119176663Y-92723187D01*
X119027342Y-92815289D01*
X118903289Y-92939342D01*
X118811187Y-93088663D01*
X118811186Y-93088666D01*
X118756001Y-93255203D01*
X118756001Y-93255204D01*
X118756000Y-93255204D01*
X118745500Y-93357983D01*
X118745500Y-94158001D01*
X118745501Y-94158019D01*
X118756000Y-94260796D01*
X118756001Y-94260799D01*
X118769711Y-94302172D01*
X118811186Y-94427334D01*
X118903287Y-94576655D01*
X118903289Y-94576657D01*
X118996951Y-94670319D01*
X119030436Y-94731642D01*
X119025452Y-94801334D01*
X118996951Y-94845681D01*
X118903289Y-94939342D01*
X118811187Y-95088663D01*
X118811186Y-95088666D01*
X118756001Y-95255203D01*
X118756001Y-95255204D01*
X118756000Y-95255204D01*
X118745500Y-95357983D01*
X118745500Y-96158001D01*
X118745501Y-96158019D01*
X118756000Y-96260796D01*
X118756001Y-96260799D01*
X118786563Y-96353027D01*
X118787838Y-96356876D01*
X118793002Y-96372458D01*
X118795404Y-96442286D01*
X118759672Y-96502328D01*
X118697152Y-96533521D01*
X118634342Y-96528504D01*
X118543257Y-96496632D01*
X118543249Y-96496630D01*
X118364004Y-96476435D01*
X118363996Y-96476435D01*
X118297401Y-96483938D01*
X118228579Y-96471883D01*
X118177200Y-96424534D01*
X118159576Y-96356923D01*
X118165810Y-96321722D01*
X118185999Y-96260797D01*
X118196500Y-96158009D01*
X118196499Y-95357992D01*
X118194648Y-95339875D01*
X118185999Y-95255203D01*
X118185998Y-95255200D01*
X118169839Y-95206435D01*
X118130814Y-95088666D01*
X118038712Y-94939344D01*
X117945049Y-94845681D01*
X117911564Y-94784358D01*
X117916548Y-94714666D01*
X117945049Y-94670319D01*
X118038712Y-94576656D01*
X118130814Y-94427334D01*
X118185999Y-94260797D01*
X118196500Y-94158009D01*
X118196499Y-93357992D01*
X118185999Y-93255203D01*
X118130814Y-93088666D01*
X118038712Y-92939344D01*
X117914656Y-92815288D01*
X117765334Y-92723186D01*
X117765332Y-92723185D01*
X117759187Y-92719395D01*
X117759959Y-92718142D01*
X117713648Y-92677355D01*
X117694500Y-92611158D01*
X117694500Y-92087300D01*
X117714185Y-92020261D01*
X117766989Y-91974506D01*
X117779482Y-91969599D01*
X117863334Y-91941814D01*
X118012656Y-91849712D01*
X118136712Y-91725656D01*
X118228814Y-91576334D01*
X118283999Y-91409797D01*
X118294500Y-91307009D01*
X118294499Y-90556992D01*
X118283999Y-90454203D01*
X118228814Y-90287666D01*
X118136712Y-90138344D01*
X118012656Y-90014288D01*
X118009342Y-90012243D01*
X118007546Y-90010248D01*
X118006989Y-90009807D01*
X118007064Y-90009711D01*
X117962618Y-89960297D01*
X117951397Y-89891334D01*
X117979240Y-89827252D01*
X118009348Y-89801165D01*
X118012342Y-89799318D01*
X118136315Y-89675345D01*
X118228356Y-89526124D01*
X118228358Y-89526119D01*
X118283505Y-89359697D01*
X118283506Y-89359690D01*
X118293999Y-89256986D01*
X118294000Y-89256973D01*
X118294000Y-89132000D01*
X115894001Y-89132000D01*
X115894001Y-89256986D01*
X115904494Y-89359697D01*
X115959641Y-89526119D01*
X115959643Y-89526124D01*
X116051684Y-89675345D01*
X116175655Y-89799316D01*
X116175659Y-89799319D01*
X116178656Y-89801168D01*
X116180279Y-89802972D01*
X116181323Y-89803798D01*
X116181181Y-89803976D01*
X116225381Y-89853116D01*
X116236602Y-89922079D01*
X116208759Y-89986161D01*
X116178661Y-90012241D01*
X116175349Y-90014283D01*
X116175343Y-90014288D01*
X116051289Y-90138342D01*
X115959187Y-90287663D01*
X115959185Y-90287668D01*
X115931349Y-90371670D01*
X115904001Y-90454203D01*
X115904001Y-90454204D01*
X115904000Y-90454204D01*
X115893500Y-90556983D01*
X115893500Y-91307001D01*
X115893501Y-91307019D01*
X115904000Y-91409796D01*
X115904001Y-91409799D01*
X115959185Y-91576331D01*
X115959187Y-91576336D01*
X115994069Y-91632888D01*
X116051288Y-91725656D01*
X116175344Y-91849712D01*
X116324666Y-91941814D01*
X116408505Y-91969595D01*
X116465948Y-92009366D01*
X116492772Y-92073882D01*
X116493500Y-92087300D01*
X116493500Y-92546265D01*
X116473815Y-92613304D01*
X116421011Y-92659059D01*
X116395461Y-92667517D01*
X116393205Y-92667999D01*
X116226668Y-92723185D01*
X116226663Y-92723187D01*
X116077342Y-92815289D01*
X115953289Y-92939342D01*
X115861187Y-93088663D01*
X115861186Y-93088666D01*
X115806001Y-93255203D01*
X115806001Y-93255204D01*
X115806000Y-93255204D01*
X115795500Y-93357983D01*
X115795500Y-94158001D01*
X115795501Y-94158019D01*
X115806000Y-94260796D01*
X115806001Y-94260799D01*
X115819711Y-94302172D01*
X115861186Y-94427334D01*
X115953287Y-94576655D01*
X115953289Y-94576657D01*
X116046951Y-94670319D01*
X116080436Y-94731642D01*
X116075452Y-94801334D01*
X116046951Y-94845681D01*
X115953289Y-94939342D01*
X115861187Y-95088663D01*
X115861186Y-95088666D01*
X115806001Y-95255203D01*
X115806001Y-95255204D01*
X115806000Y-95255204D01*
X115795500Y-95357983D01*
X115795500Y-96158001D01*
X115795501Y-96158019D01*
X115806000Y-96260796D01*
X115806001Y-96260799D01*
X115861185Y-96427331D01*
X115861187Y-96427336D01*
X115886039Y-96467627D01*
X115953288Y-96576656D01*
X116077344Y-96700712D01*
X116226666Y-96792814D01*
X116226670Y-96792815D01*
X116229722Y-96794238D01*
X116231469Y-96795776D01*
X116232813Y-96796605D01*
X116232671Y-96796834D01*
X116282165Y-96840407D01*
X116301321Y-96907600D01*
X116300545Y-96920506D01*
X116288435Y-97027994D01*
X116288435Y-97028003D01*
X116308630Y-97207249D01*
X116308631Y-97207254D01*
X116368211Y-97377523D01*
X116464184Y-97530262D01*
X116544635Y-97610713D01*
X116578120Y-97672036D01*
X116573136Y-97741728D01*
X116564341Y-97760394D01*
X116534424Y-97812211D01*
X116534423Y-97812215D01*
X116493499Y-97964943D01*
X116493499Y-97964945D01*
X116493499Y-98133046D01*
X116493500Y-98133059D01*
X116493500Y-100344902D01*
X116473815Y-100411941D01*
X116421011Y-100457696D01*
X116351853Y-100467640D01*
X116288297Y-100438615D01*
X116281819Y-100432583D01*
X114129931Y-98280695D01*
X114096446Y-98219372D01*
X114101430Y-98149680D01*
X114143302Y-98093747D01*
X114203729Y-98069794D01*
X114225249Y-98067369D01*
X114225252Y-98067368D01*
X114225255Y-98067368D01*
X114395522Y-98007789D01*
X114548262Y-97911816D01*
X114675816Y-97784262D01*
X114771789Y-97631522D01*
X114831368Y-97461255D01*
X114834685Y-97431816D01*
X114851565Y-97282003D01*
X114851565Y-97281996D01*
X114831369Y-97102750D01*
X114831368Y-97102745D01*
X114792543Y-96991789D01*
X114772262Y-96933832D01*
X114768702Y-96864054D01*
X114803431Y-96803426D01*
X114824203Y-96787343D01*
X114964656Y-96700712D01*
X115088712Y-96576656D01*
X115180814Y-96427334D01*
X115235999Y-96260797D01*
X115246500Y-96158009D01*
X115246499Y-95357992D01*
X115244648Y-95339875D01*
X115235999Y-95255203D01*
X115235998Y-95255200D01*
X115219839Y-95206435D01*
X115180814Y-95088666D01*
X115088712Y-94939344D01*
X114995049Y-94845681D01*
X114961564Y-94784358D01*
X114966548Y-94714666D01*
X114995049Y-94670319D01*
X115088712Y-94576656D01*
X115180814Y-94427334D01*
X115235999Y-94260797D01*
X115246500Y-94158009D01*
X115246499Y-93357992D01*
X115235999Y-93255203D01*
X115180814Y-93088666D01*
X115088712Y-92939344D01*
X114964656Y-92815288D01*
X114959400Y-92812046D01*
X114912677Y-92760097D01*
X114900500Y-92706509D01*
X114900500Y-92087300D01*
X114920185Y-92020261D01*
X114972989Y-91974506D01*
X114985482Y-91969599D01*
X115069334Y-91941814D01*
X115218656Y-91849712D01*
X115342712Y-91725656D01*
X115434814Y-91576334D01*
X115489999Y-91409797D01*
X115500500Y-91307009D01*
X115500499Y-90556992D01*
X115489999Y-90454203D01*
X115434814Y-90287666D01*
X115342712Y-90138344D01*
X115218656Y-90014288D01*
X115215342Y-90012243D01*
X115213546Y-90010248D01*
X115212989Y-90009807D01*
X115213064Y-90009711D01*
X115168618Y-89960297D01*
X115157397Y-89891334D01*
X115185240Y-89827252D01*
X115215348Y-89801165D01*
X115218342Y-89799318D01*
X115342315Y-89675345D01*
X115434356Y-89526124D01*
X115434358Y-89526119D01*
X115489505Y-89359697D01*
X115489506Y-89359690D01*
X115499999Y-89256986D01*
X115500000Y-89256973D01*
X115500000Y-89132000D01*
X114174000Y-89132000D01*
X114106961Y-89112315D01*
X114061206Y-89059511D01*
X114050000Y-89008000D01*
X114050000Y-88756000D01*
X114069685Y-88688961D01*
X114114648Y-88650000D01*
X118688000Y-88650000D01*
X119638000Y-88650000D01*
X119638000Y-87825000D01*
X120138000Y-87825000D01*
X120138000Y-88650000D01*
X121087999Y-88650000D01*
X121087999Y-88525028D01*
X121087998Y-88525013D01*
X121077505Y-88422302D01*
X121022358Y-88255880D01*
X121022356Y-88255875D01*
X120930315Y-88106654D01*
X120806345Y-87982684D01*
X120657124Y-87890643D01*
X120657119Y-87890641D01*
X120490697Y-87835494D01*
X120490690Y-87835493D01*
X120387986Y-87825000D01*
X120138000Y-87825000D01*
X119638000Y-87825000D01*
X119388029Y-87825000D01*
X119388012Y-87825001D01*
X119285302Y-87835494D01*
X119118880Y-87890641D01*
X119118875Y-87890643D01*
X118969654Y-87982684D01*
X118845684Y-88106654D01*
X118753643Y-88255875D01*
X118753641Y-88255880D01*
X118698494Y-88422302D01*
X118698493Y-88422309D01*
X118688000Y-88525013D01*
X118688000Y-88650000D01*
X114114648Y-88650000D01*
X114122489Y-88643206D01*
X114174000Y-88632000D01*
X115509825Y-88632000D01*
X115549503Y-88610334D01*
X115575861Y-88607500D01*
X115818138Y-88607500D01*
X115885177Y-88627185D01*
X115891152Y-88632000D01*
X118293999Y-88632000D01*
X118293999Y-88507028D01*
X118293998Y-88507013D01*
X118283505Y-88404302D01*
X118228358Y-88237880D01*
X118228353Y-88237869D01*
X118132952Y-88083201D01*
X118114511Y-88015809D01*
X118135433Y-87949145D01*
X118150799Y-87930434D01*
X120745416Y-85335818D01*
X120806739Y-85302333D01*
X120833097Y-85299499D01*
X121545502Y-85299499D01*
X121545508Y-85299499D01*
X121648297Y-85288999D01*
X121814834Y-85233814D01*
X121964156Y-85141712D01*
X122088212Y-85017656D01*
X122180314Y-84868334D01*
X122180317Y-84868322D01*
X122181713Y-84865332D01*
X122183223Y-84863616D01*
X122184105Y-84862187D01*
X122184349Y-84862337D01*
X122227882Y-84812891D01*
X122295075Y-84793735D01*
X122335053Y-84800690D01*
X122502737Y-84859366D01*
X122502743Y-84859367D01*
X122502745Y-84859368D01*
X122502746Y-84859368D01*
X122502750Y-84859369D01*
X122681996Y-84879565D01*
X122682000Y-84879565D01*
X122682004Y-84879565D01*
X122861249Y-84859369D01*
X122861252Y-84859368D01*
X122861255Y-84859368D01*
X123031522Y-84799789D01*
X123184262Y-84703816D01*
X123311816Y-84576262D01*
X123407789Y-84423522D01*
X123467368Y-84253255D01*
X123467369Y-84253249D01*
X123487565Y-84074003D01*
X123487565Y-84073996D01*
X123467369Y-83894750D01*
X123467368Y-83894745D01*
X123466528Y-83892344D01*
X123407789Y-83724478D01*
X123402662Y-83716319D01*
X123368582Y-83662080D01*
X123311816Y-83571738D01*
X123184262Y-83444184D01*
X123031523Y-83348211D01*
X122861254Y-83288631D01*
X122861249Y-83288630D01*
X122682004Y-83268435D01*
X122681996Y-83268435D01*
X122502750Y-83288630D01*
X122502742Y-83288632D01*
X122335051Y-83347310D01*
X122265273Y-83350871D01*
X122204645Y-83316142D01*
X122181710Y-83282661D01*
X122180315Y-83279669D01*
X122180314Y-83279666D01*
X122088212Y-83130344D01*
X121964156Y-83006288D01*
X121814834Y-82914186D01*
X121648297Y-82859001D01*
X121648295Y-82859000D01*
X121545516Y-82848500D01*
X121545509Y-82848500D01*
X120993500Y-82848500D01*
X120926461Y-82828815D01*
X120880706Y-82776011D01*
X120869500Y-82724500D01*
X120869500Y-82171199D01*
X120889185Y-82104160D01*
X120941989Y-82058405D01*
X120993500Y-82047199D01*
X121015371Y-82047199D01*
X121015372Y-82047199D01*
X121074983Y-82040791D01*
X121209831Y-81990496D01*
X121325046Y-81904246D01*
X121411296Y-81789031D01*
X121461591Y-81654183D01*
X121468000Y-81594573D01*
X121467999Y-77993628D01*
X121461591Y-77934017D01*
X121447513Y-77896273D01*
X121411297Y-77799171D01*
X121411293Y-77799164D01*
X121325047Y-77683955D01*
X121325044Y-77683952D01*
X121209835Y-77597706D01*
X121209828Y-77597702D01*
X121074982Y-77547408D01*
X121074983Y-77547408D01*
X121015383Y-77541001D01*
X121015381Y-77541000D01*
X121015373Y-77541000D01*
X121015364Y-77541000D01*
X119522629Y-77541000D01*
X119522623Y-77541001D01*
X119463016Y-77547408D01*
X119328171Y-77597702D01*
X119328164Y-77597706D01*
X119212955Y-77683952D01*
X119212952Y-77683955D01*
X119126706Y-77799164D01*
X119126701Y-77799174D01*
X119114914Y-77830776D01*
X119073042Y-77886709D01*
X119007578Y-77911125D01*
X118939305Y-77896273D01*
X118889900Y-77846867D01*
X118882551Y-77830774D01*
X118870854Y-77799413D01*
X118870850Y-77799406D01*
X118784690Y-77684312D01*
X118784687Y-77684309D01*
X118669593Y-77598149D01*
X118669586Y-77598145D01*
X118534879Y-77547903D01*
X118534872Y-77547901D01*
X118475344Y-77541500D01*
X117979000Y-77541500D01*
X117979000Y-82046700D01*
X118475328Y-82046700D01*
X118475344Y-82046699D01*
X118534872Y-82040298D01*
X118534879Y-82040296D01*
X118669586Y-81990054D01*
X118669593Y-81990050D01*
X118784687Y-81903890D01*
X118784690Y-81903887D01*
X118870850Y-81788793D01*
X118870855Y-81788784D01*
X118882551Y-81757426D01*
X118924421Y-81701492D01*
X118989885Y-81677074D01*
X119058158Y-81691925D01*
X119107564Y-81741330D01*
X119114915Y-81757424D01*
X119126703Y-81789030D01*
X119126706Y-81789035D01*
X119212952Y-81904244D01*
X119212955Y-81904247D01*
X119328164Y-81990493D01*
X119328171Y-81990497D01*
X119373118Y-82007261D01*
X119463017Y-82040791D01*
X119522627Y-82047200D01*
X119544497Y-82047199D01*
X119611535Y-82066881D01*
X119657292Y-82119683D01*
X119668500Y-82171199D01*
X119668500Y-82731916D01*
X119648815Y-82798955D01*
X119596011Y-82844710D01*
X119531898Y-82855274D01*
X119470488Y-82849000D01*
X119333000Y-82849000D01*
X119333000Y-84200000D01*
X119313315Y-84267039D01*
X119260511Y-84312794D01*
X119209000Y-84324000D01*
X117344000Y-84324000D01*
X117344000Y-85298999D01*
X117481472Y-85298999D01*
X117481486Y-85298998D01*
X117584197Y-85288505D01*
X117750619Y-85233358D01*
X117750624Y-85233356D01*
X117899845Y-85141315D01*
X118000819Y-85040342D01*
X118062142Y-85006857D01*
X118131834Y-85011841D01*
X118176181Y-85040342D01*
X118277154Y-85141315D01*
X118426375Y-85233356D01*
X118426380Y-85233358D01*
X118592802Y-85288505D01*
X118592809Y-85288506D01*
X118695519Y-85298999D01*
X118784400Y-85298999D01*
X118851439Y-85318683D01*
X118897195Y-85371486D01*
X118907139Y-85440645D01*
X118878115Y-85504201D01*
X118872082Y-85510680D01*
X117012584Y-87370181D01*
X116951261Y-87403666D01*
X116924903Y-87406500D01*
X113339669Y-87406500D01*
X113339653Y-87406499D01*
X113332057Y-87406499D01*
X113173943Y-87406499D01*
X113066587Y-87435265D01*
X113021210Y-87447424D01*
X113021209Y-87447425D01*
X112971096Y-87476359D01*
X112971095Y-87476360D01*
X112927689Y-87501420D01*
X112884285Y-87526479D01*
X112884282Y-87526481D01*
X112218181Y-88192583D01*
X112156858Y-88226068D01*
X112087166Y-88221084D01*
X112031233Y-88179212D01*
X112006816Y-88113748D01*
X112006500Y-88104902D01*
X112006500Y-84599001D01*
X113931000Y-84599001D01*
X113931001Y-84599019D01*
X113941500Y-84701796D01*
X113941501Y-84701799D01*
X113951664Y-84732467D01*
X113996686Y-84868334D01*
X114088788Y-85017656D01*
X114212844Y-85141712D01*
X114260153Y-85170892D01*
X114306878Y-85222839D01*
X114318101Y-85291802D01*
X114312099Y-85317386D01*
X114276631Y-85418745D01*
X114276630Y-85418750D01*
X114256435Y-85597996D01*
X114256435Y-85598003D01*
X114276630Y-85777249D01*
X114276631Y-85777254D01*
X114336211Y-85947523D01*
X114431873Y-86099767D01*
X114432184Y-86100262D01*
X114559738Y-86227816D01*
X114712478Y-86323789D01*
X114793592Y-86352172D01*
X114882745Y-86383368D01*
X114882750Y-86383369D01*
X115061996Y-86403565D01*
X115062000Y-86403565D01*
X115062004Y-86403565D01*
X115241249Y-86383369D01*
X115241252Y-86383368D01*
X115241255Y-86383368D01*
X115411522Y-86323789D01*
X115564262Y-86227816D01*
X115691816Y-86100262D01*
X115787789Y-85947522D01*
X115847368Y-85777255D01*
X115847369Y-85777249D01*
X115867565Y-85598003D01*
X115867565Y-85597996D01*
X115847369Y-85418750D01*
X115847368Y-85418745D01*
X115795533Y-85270609D01*
X115791972Y-85200830D01*
X115824894Y-85141972D01*
X115825150Y-85141715D01*
X115825156Y-85141712D01*
X115949212Y-85017656D01*
X115951252Y-85014347D01*
X115953245Y-85012555D01*
X115953693Y-85011989D01*
X115953789Y-85012065D01*
X116003194Y-84967623D01*
X116072156Y-84956395D01*
X116136240Y-84984234D01*
X116162329Y-85014339D01*
X116164181Y-85017341D01*
X116164183Y-85017344D01*
X116288154Y-85141315D01*
X116437375Y-85233356D01*
X116437380Y-85233358D01*
X116603802Y-85288505D01*
X116603809Y-85288506D01*
X116706519Y-85298999D01*
X116843999Y-85298999D01*
X116844000Y-85298998D01*
X116844000Y-82849000D01*
X117344000Y-82849000D01*
X117344000Y-83824000D01*
X118833000Y-83824000D01*
X118833000Y-82849000D01*
X118695527Y-82849000D01*
X118695512Y-82849001D01*
X118592802Y-82859494D01*
X118426380Y-82914641D01*
X118426375Y-82914643D01*
X118277154Y-83006684D01*
X118176181Y-83107658D01*
X118114858Y-83141143D01*
X118045166Y-83136159D01*
X118000819Y-83107658D01*
X117899845Y-83006684D01*
X117750624Y-82914643D01*
X117750619Y-82914641D01*
X117584197Y-82859494D01*
X117584190Y-82859493D01*
X117481486Y-82849000D01*
X117344000Y-82849000D01*
X116844000Y-82849000D01*
X116706527Y-82849000D01*
X116706512Y-82849001D01*
X116603802Y-82859494D01*
X116437380Y-82914641D01*
X116437375Y-82914643D01*
X116288154Y-83006684D01*
X116164183Y-83130655D01*
X116164179Y-83130660D01*
X116162326Y-83133665D01*
X116160518Y-83135290D01*
X116159702Y-83136323D01*
X116159525Y-83136183D01*
X116110374Y-83180385D01*
X116041411Y-83191601D01*
X115977331Y-83163752D01*
X115951253Y-83133653D01*
X115951237Y-83133628D01*
X115949212Y-83130344D01*
X115825819Y-83006951D01*
X115792334Y-82945628D01*
X115789500Y-82919270D01*
X115789500Y-82171199D01*
X115809185Y-82104160D01*
X115861989Y-82058405D01*
X115913500Y-82047199D01*
X115935371Y-82047199D01*
X115935372Y-82047199D01*
X115994983Y-82040791D01*
X116129831Y-81990496D01*
X116245046Y-81904246D01*
X116331296Y-81789031D01*
X116343085Y-81757424D01*
X116384954Y-81701492D01*
X116450417Y-81677074D01*
X116518691Y-81691925D01*
X116568097Y-81741329D01*
X116575447Y-81757424D01*
X116587143Y-81788781D01*
X116587149Y-81788793D01*
X116673309Y-81903887D01*
X116673312Y-81903890D01*
X116788406Y-81990050D01*
X116788413Y-81990054D01*
X116923120Y-82040296D01*
X116923127Y-82040298D01*
X116982655Y-82046699D01*
X116982672Y-82046700D01*
X117479000Y-82046700D01*
X117479000Y-77541500D01*
X116982655Y-77541500D01*
X116923127Y-77547901D01*
X116923120Y-77547903D01*
X116788413Y-77598145D01*
X116788406Y-77598149D01*
X116673312Y-77684309D01*
X116673309Y-77684312D01*
X116587149Y-77799406D01*
X116587144Y-77799416D01*
X116575447Y-77830776D01*
X116533575Y-77886709D01*
X116468110Y-77911125D01*
X116399837Y-77896272D01*
X116350433Y-77846866D01*
X116343084Y-77830773D01*
X116331298Y-77799173D01*
X116331293Y-77799164D01*
X116245047Y-77683955D01*
X116245044Y-77683952D01*
X116129835Y-77597706D01*
X116129828Y-77597702D01*
X115994982Y-77547408D01*
X115994983Y-77547408D01*
X115935383Y-77541001D01*
X115935381Y-77541000D01*
X115935373Y-77541000D01*
X115935364Y-77541000D01*
X114442629Y-77541000D01*
X114442623Y-77541001D01*
X114383016Y-77547408D01*
X114248171Y-77597702D01*
X114248164Y-77597706D01*
X114132955Y-77683952D01*
X114132952Y-77683955D01*
X114046706Y-77799164D01*
X114046702Y-77799171D01*
X113996408Y-77934017D01*
X113990001Y-77993616D01*
X113990001Y-77993623D01*
X113990000Y-77993635D01*
X113990000Y-81594570D01*
X113990001Y-81594576D01*
X113996408Y-81654183D01*
X114046702Y-81789028D01*
X114046706Y-81789035D01*
X114132952Y-81904244D01*
X114132955Y-81904247D01*
X114248164Y-81990493D01*
X114248171Y-81990497D01*
X114293118Y-82007261D01*
X114383017Y-82040791D01*
X114442627Y-82047200D01*
X114464497Y-82047199D01*
X114531535Y-82066881D01*
X114577292Y-82119683D01*
X114588500Y-82171199D01*
X114588500Y-82749645D01*
X114568815Y-82816684D01*
X114516011Y-82862439D01*
X114503504Y-82867351D01*
X114362168Y-82914185D01*
X114362163Y-82914187D01*
X114212842Y-83006289D01*
X114088789Y-83130342D01*
X113996687Y-83279663D01*
X113996685Y-83279668D01*
X113987695Y-83306799D01*
X113941501Y-83446203D01*
X113941501Y-83446204D01*
X113941500Y-83446204D01*
X113931000Y-83548983D01*
X113931000Y-84599001D01*
X112006500Y-84599001D01*
X112006500Y-73233512D01*
X112026185Y-73166473D01*
X112078989Y-73120718D01*
X112148147Y-73110774D01*
X112173834Y-73117330D01*
X112262223Y-73150297D01*
X112262227Y-73150298D01*
X112321755Y-73156699D01*
X112321772Y-73156700D01*
X117479000Y-73156700D01*
X117479000Y-68703000D01*
X117979000Y-68703000D01*
X117979000Y-73156700D01*
X123136228Y-73156700D01*
X123136244Y-73156699D01*
X123195772Y-73150298D01*
X123195779Y-73150296D01*
X123330486Y-73100054D01*
X123330493Y-73100050D01*
X123445587Y-73013890D01*
X123445590Y-73013887D01*
X123531750Y-72898793D01*
X123531754Y-72898786D01*
X123581996Y-72764079D01*
X123581998Y-72764072D01*
X123588399Y-72704544D01*
X123588400Y-72704527D01*
X123588400Y-68703000D01*
X117979000Y-68703000D01*
X117479000Y-68703000D01*
X117479000Y-63749300D01*
X117979000Y-63749300D01*
X117979000Y-68203000D01*
X123588400Y-68203000D01*
X123588400Y-64201472D01*
X123588399Y-64201455D01*
X123581998Y-64141927D01*
X123581996Y-64141920D01*
X123531754Y-64007213D01*
X123531750Y-64007206D01*
X123445590Y-63892112D01*
X123445587Y-63892109D01*
X123330493Y-63805949D01*
X123330486Y-63805945D01*
X123195779Y-63755703D01*
X123195772Y-63755701D01*
X123136244Y-63749300D01*
X117979000Y-63749300D01*
X117479000Y-63749300D01*
X112321755Y-63749300D01*
X112262227Y-63755701D01*
X112262219Y-63755703D01*
X112173833Y-63788669D01*
X112104141Y-63793653D01*
X112042818Y-63760167D01*
X112009334Y-63698844D01*
X112006500Y-63672487D01*
X112006500Y-63247544D01*
X112006501Y-63246992D01*
X112006789Y-63182337D01*
X112006787Y-63182332D01*
X112006788Y-63182307D01*
X112006706Y-63181677D01*
X112006634Y-63181114D01*
X112006512Y-63180154D01*
X111989795Y-63117765D01*
X111989740Y-63117558D01*
X111973247Y-63054892D01*
X111973245Y-63054888D01*
X111973235Y-63054850D01*
X111972905Y-63054052D01*
X111972711Y-63053582D01*
X111972408Y-63052842D01*
X111972392Y-63052814D01*
X111939988Y-62996690D01*
X110483594Y-60448000D01*
X117995501Y-60448000D01*
X117995501Y-60722986D01*
X118005994Y-60825697D01*
X118061141Y-60992119D01*
X118061143Y-60992124D01*
X118153184Y-61141345D01*
X118277154Y-61265315D01*
X118426375Y-61357356D01*
X118426380Y-61357358D01*
X118592802Y-61412505D01*
X118592809Y-61412506D01*
X118695519Y-61422999D01*
X118832999Y-61422999D01*
X118833000Y-61422998D01*
X118833000Y-60448000D01*
X117995501Y-60448000D01*
X110483594Y-60448000D01*
X110197880Y-59948000D01*
X117995500Y-59948000D01*
X118833000Y-59948000D01*
X118833000Y-58973000D01*
X118695527Y-58973000D01*
X118695512Y-58973001D01*
X118592802Y-58983494D01*
X118426380Y-59038641D01*
X118426375Y-59038643D01*
X118277154Y-59130684D01*
X118153184Y-59254654D01*
X118061143Y-59403875D01*
X118061141Y-59403880D01*
X118005994Y-59570302D01*
X118005993Y-59570309D01*
X117995500Y-59673013D01*
X117995500Y-59948000D01*
X110197880Y-59948000D01*
X109830099Y-59304383D01*
X108974838Y-57807675D01*
X108958500Y-57746154D01*
X108958500Y-56847837D01*
X108978185Y-56780798D01*
X109030989Y-56735043D01*
X109100147Y-56725099D01*
X109163703Y-56754124D01*
X109197061Y-56800385D01*
X109216284Y-56846795D01*
X109216286Y-56846799D01*
X109381480Y-57145696D01*
X109381483Y-57145701D01*
X109572397Y-57414767D01*
X109579096Y-57424208D01*
X109806654Y-57678846D01*
X110061292Y-57906404D01*
X110061295Y-57906406D01*
X110061296Y-57906407D01*
X110339798Y-58104016D01*
X110339803Y-58104019D01*
X110339806Y-58104020D01*
X110339808Y-58104022D01*
X110638698Y-58269212D01*
X110954204Y-58399899D01*
X111282359Y-58494439D01*
X111619036Y-58551643D01*
X111960000Y-58570791D01*
X112300964Y-58551643D01*
X112637641Y-58494439D01*
X112965796Y-58399899D01*
X113281302Y-58269212D01*
X113580192Y-58104022D01*
X113580197Y-58104018D01*
X113580201Y-58104016D01*
X113759549Y-57976761D01*
X113820985Y-57933170D01*
X117479700Y-57933170D01*
X117479701Y-57933176D01*
X117486108Y-57992783D01*
X117536402Y-58127628D01*
X117536406Y-58127635D01*
X117622652Y-58242844D01*
X117622655Y-58242847D01*
X117737864Y-58329093D01*
X117737871Y-58329097D01*
X117872717Y-58379391D01*
X117872716Y-58379391D01*
X117879644Y-58380135D01*
X117932327Y-58385800D01*
X119907672Y-58385799D01*
X119967283Y-58379391D01*
X120102131Y-58329096D01*
X120217346Y-58242846D01*
X120303596Y-58127631D01*
X120353891Y-57992783D01*
X120360300Y-57933173D01*
X120360299Y-57933155D01*
X120360468Y-57931593D01*
X120387205Y-57867041D01*
X120444597Y-57827192D01*
X120514422Y-57824697D01*
X120574512Y-57860349D01*
X120574983Y-57860858D01*
X120711168Y-58008795D01*
X120899531Y-58155403D01*
X121007443Y-58213802D01*
X121024517Y-58223042D01*
X121074108Y-58272261D01*
X121089500Y-58332097D01*
X121089500Y-58848500D01*
X121069815Y-58915539D01*
X121017011Y-58961294D01*
X120965501Y-58972500D01*
X120770499Y-58972500D01*
X120770480Y-58972501D01*
X120667703Y-58983000D01*
X120667700Y-58983001D01*
X120501168Y-59038185D01*
X120501163Y-59038187D01*
X120351842Y-59130289D01*
X120227788Y-59254343D01*
X120227783Y-59254349D01*
X120225741Y-59257661D01*
X120223747Y-59259453D01*
X120223307Y-59260011D01*
X120223211Y-59259935D01*
X120173791Y-59304383D01*
X120104828Y-59315602D01*
X120040747Y-59287755D01*
X120014668Y-59257656D01*
X120012819Y-59254659D01*
X120012816Y-59254655D01*
X119888845Y-59130684D01*
X119739624Y-59038643D01*
X119739619Y-59038641D01*
X119573197Y-58983494D01*
X119573190Y-58983493D01*
X119470486Y-58973000D01*
X119333000Y-58973000D01*
X119333000Y-61422999D01*
X119470472Y-61422999D01*
X119470486Y-61422998D01*
X119573197Y-61412505D01*
X119739619Y-61357358D01*
X119739624Y-61357356D01*
X119888845Y-61265315D01*
X120012818Y-61141342D01*
X120014665Y-61138348D01*
X120016469Y-61136724D01*
X120017298Y-61135677D01*
X120017476Y-61135818D01*
X120066610Y-61091621D01*
X120135573Y-61080396D01*
X120199656Y-61108236D01*
X120225742Y-61138339D01*
X120227788Y-61141656D01*
X120227789Y-61141657D01*
X120351844Y-61265712D01*
X120466711Y-61336562D01*
X120513436Y-61388510D01*
X120524659Y-61457472D01*
X120506609Y-61508073D01*
X120432211Y-61626476D01*
X120372631Y-61796745D01*
X120372630Y-61796750D01*
X120352435Y-61975996D01*
X120352435Y-61976003D01*
X120372630Y-62155249D01*
X120372631Y-62155254D01*
X120432211Y-62325523D01*
X120528184Y-62478262D01*
X120655738Y-62605816D01*
X120808478Y-62701789D01*
X120978745Y-62761368D01*
X120978750Y-62761369D01*
X121157996Y-62781565D01*
X121158000Y-62781565D01*
X121158004Y-62781565D01*
X121337249Y-62761369D01*
X121337252Y-62761368D01*
X121337255Y-62761368D01*
X121507522Y-62701789D01*
X121660262Y-62605816D01*
X121787816Y-62478262D01*
X121883789Y-62325522D01*
X121943368Y-62155255D01*
X121943369Y-62155249D01*
X121963565Y-61976003D01*
X121963565Y-61975996D01*
X121943369Y-61796750D01*
X121943368Y-61796745D01*
X121917215Y-61722003D01*
X121883789Y-61626478D01*
X121809389Y-61508072D01*
X121790390Y-61440837D01*
X121810758Y-61374001D01*
X121849285Y-61336563D01*
X121964156Y-61265712D01*
X122088212Y-61141656D01*
X122180314Y-60992334D01*
X122235499Y-60825797D01*
X122246000Y-60723009D01*
X122245999Y-59927459D01*
X122250222Y-59895373D01*
X122290501Y-59745057D01*
X122290501Y-59586942D01*
X122290501Y-59579347D01*
X122290500Y-59579329D01*
X122290500Y-58332097D01*
X122310185Y-58265058D01*
X122355483Y-58223042D01*
X122358041Y-58221657D01*
X122480469Y-58155403D01*
X122668832Y-58008795D01*
X122830494Y-57833182D01*
X122961047Y-57633356D01*
X122961712Y-57631840D01*
X122962150Y-57631318D01*
X122963489Y-57628845D01*
X122963997Y-57629120D01*
X123006663Y-57578350D01*
X123073397Y-57557654D01*
X123140727Y-57576323D01*
X123187275Y-57628429D01*
X123188830Y-57631834D01*
X123189394Y-57633119D01*
X123280055Y-57771888D01*
X123970504Y-57081440D01*
X123986619Y-57141581D01*
X124053498Y-57257420D01*
X124148080Y-57352002D01*
X124263919Y-57418881D01*
X124324057Y-57434995D01*
X123632840Y-58126212D01*
X123632840Y-58126213D01*
X123669802Y-58154982D01*
X123669807Y-58154985D01*
X123879650Y-58268546D01*
X123879660Y-58268551D01*
X124105335Y-58346025D01*
X124340696Y-58385300D01*
X124579304Y-58385300D01*
X124814664Y-58346025D01*
X125040339Y-58268551D01*
X125040349Y-58268546D01*
X125250191Y-58154986D01*
X125250197Y-58154981D01*
X125287158Y-58126213D01*
X125287159Y-58126211D01*
X124595942Y-57434994D01*
X124656081Y-57418881D01*
X124771920Y-57352002D01*
X124866502Y-57257420D01*
X124933381Y-57141581D01*
X124949495Y-57081442D01*
X125639942Y-57771889D01*
X125730605Y-57633119D01*
X125731165Y-57631844D01*
X125731536Y-57631402D01*
X125733049Y-57628607D01*
X125733623Y-57628918D01*
X125776115Y-57578353D01*
X125842849Y-57557655D01*
X125910179Y-57576322D01*
X125956728Y-57628427D01*
X125958278Y-57631819D01*
X125958950Y-57633351D01*
X125958952Y-57633354D01*
X125958953Y-57633356D01*
X126089506Y-57833182D01*
X126251168Y-58008795D01*
X126439531Y-58155403D01*
X126649455Y-58269009D01*
X126875216Y-58346512D01*
X127110653Y-58385800D01*
X127110654Y-58385800D01*
X127349346Y-58385800D01*
X127349347Y-58385800D01*
X127584784Y-58346512D01*
X127810545Y-58269009D01*
X127901088Y-58220008D01*
X127976682Y-58179100D01*
X128045010Y-58164504D01*
X128110383Y-58189167D01*
X128152044Y-58245257D01*
X128159700Y-58288154D01*
X128159700Y-58848500D01*
X128140015Y-58915539D01*
X128087211Y-58961294D01*
X128035701Y-58972500D01*
X127839499Y-58972500D01*
X127839480Y-58972501D01*
X127736703Y-58983000D01*
X127736700Y-58983001D01*
X127570168Y-59038185D01*
X127570163Y-59038187D01*
X127420842Y-59130289D01*
X127296789Y-59254342D01*
X127204687Y-59403663D01*
X127204685Y-59403668D01*
X127204615Y-59403880D01*
X127149501Y-59570203D01*
X127149501Y-59570204D01*
X127149500Y-59570204D01*
X127139000Y-59672983D01*
X127139000Y-60723001D01*
X127139001Y-60723019D01*
X127149500Y-60825796D01*
X127149501Y-60825799D01*
X127204615Y-60992119D01*
X127204686Y-60992334D01*
X127296788Y-61141656D01*
X127420844Y-61265712D01*
X127468153Y-61294892D01*
X127514878Y-61346839D01*
X127526101Y-61415802D01*
X127520099Y-61441386D01*
X127484631Y-61542745D01*
X127484630Y-61542750D01*
X127464435Y-61721996D01*
X127464435Y-61722003D01*
X127484630Y-61901249D01*
X127484631Y-61901254D01*
X127544211Y-62071523D01*
X127596820Y-62155249D01*
X127640184Y-62224262D01*
X127767738Y-62351816D01*
X127920478Y-62447789D01*
X128007565Y-62478262D01*
X128090745Y-62507368D01*
X128090750Y-62507369D01*
X128269996Y-62527565D01*
X128270000Y-62527565D01*
X128270004Y-62527565D01*
X128449249Y-62507369D01*
X128449252Y-62507368D01*
X128449255Y-62507368D01*
X128619522Y-62447789D01*
X128772262Y-62351816D01*
X128899816Y-62224262D01*
X128995789Y-62071522D01*
X129055368Y-61901255D01*
X129067143Y-61796750D01*
X129075565Y-61722003D01*
X129075565Y-61721996D01*
X129055369Y-61542750D01*
X129055368Y-61542745D01*
X129003533Y-61394609D01*
X128999972Y-61324830D01*
X129032894Y-61265972D01*
X129033150Y-61265715D01*
X129033156Y-61265712D01*
X129157212Y-61141656D01*
X129159252Y-61138347D01*
X129161245Y-61136555D01*
X129161693Y-61135989D01*
X129161789Y-61136065D01*
X129211194Y-61091623D01*
X129280156Y-61080395D01*
X129344240Y-61108234D01*
X129370329Y-61138339D01*
X129372181Y-61141341D01*
X129372183Y-61141344D01*
X129496154Y-61265315D01*
X129645375Y-61357356D01*
X129645380Y-61357358D01*
X129811802Y-61412505D01*
X129811809Y-61412506D01*
X129914519Y-61422999D01*
X130051999Y-61422999D01*
X130052000Y-61422998D01*
X130052000Y-60448000D01*
X130552000Y-60448000D01*
X130552000Y-61422999D01*
X130689472Y-61422999D01*
X130689486Y-61422998D01*
X130792197Y-61412505D01*
X130958619Y-61357358D01*
X130958624Y-61357356D01*
X131107845Y-61265315D01*
X131231815Y-61141345D01*
X131323856Y-60992124D01*
X131323858Y-60992119D01*
X131379005Y-60825697D01*
X131379006Y-60825690D01*
X131389499Y-60722986D01*
X131389500Y-60722973D01*
X131389500Y-60448000D01*
X130552000Y-60448000D01*
X130052000Y-60448000D01*
X130052000Y-58973000D01*
X130552000Y-58973000D01*
X130552000Y-59948000D01*
X131389499Y-59948000D01*
X131389499Y-59673028D01*
X131389498Y-59673013D01*
X131379005Y-59570302D01*
X131323858Y-59403880D01*
X131323856Y-59403875D01*
X131231815Y-59254654D01*
X131107845Y-59130684D01*
X130958624Y-59038643D01*
X130958619Y-59038641D01*
X130792197Y-58983494D01*
X130792190Y-58983493D01*
X130689486Y-58973000D01*
X130552000Y-58973000D01*
X130052000Y-58973000D01*
X129914527Y-58973000D01*
X129914512Y-58973001D01*
X129811802Y-58983494D01*
X129645380Y-59038641D01*
X129645375Y-59038643D01*
X129549797Y-59097597D01*
X129482404Y-59116037D01*
X129415741Y-59095114D01*
X129370971Y-59041472D01*
X129360700Y-58992058D01*
X129360700Y-58422510D01*
X129380385Y-58355471D01*
X129433189Y-58309716D01*
X129502347Y-58299772D01*
X129524957Y-58305227D01*
X129645216Y-58346512D01*
X129880653Y-58385800D01*
X129880654Y-58385800D01*
X130119346Y-58385800D01*
X130119347Y-58385800D01*
X130354784Y-58346512D01*
X130580545Y-58269009D01*
X130790469Y-58155403D01*
X130978832Y-58008795D01*
X131140494Y-57833182D01*
X131271047Y-57633356D01*
X131366929Y-57414767D01*
X131425525Y-57183378D01*
X131428647Y-57145701D01*
X131445236Y-56945505D01*
X131445236Y-56945494D01*
X131425526Y-56707630D01*
X131425524Y-56707618D01*
X131366929Y-56476232D01*
X131295179Y-56312660D01*
X131271047Y-56257644D01*
X131140494Y-56057818D01*
X130978832Y-55882205D01*
X130790469Y-55735597D01*
X130685237Y-55678648D01*
X130580546Y-55621991D01*
X130580541Y-55621989D01*
X130354786Y-55544488D01*
X130197826Y-55518296D01*
X130119347Y-55505200D01*
X130112238Y-55505200D01*
X130045199Y-55485515D01*
X129999444Y-55432711D01*
X129989500Y-55363553D01*
X130018525Y-55299997D01*
X130024557Y-55293519D01*
X130149281Y-55168795D01*
X130416713Y-54901363D01*
X130416716Y-54901362D01*
X130528520Y-54789558D01*
X130578639Y-54702746D01*
X130607577Y-54652627D01*
X130648500Y-54499900D01*
X130648500Y-54341785D01*
X130648500Y-53879217D01*
X130648501Y-53879204D01*
X130648501Y-53711103D01*
X130648501Y-53711101D01*
X130607577Y-53558373D01*
X130552293Y-53462619D01*
X130528520Y-53421442D01*
X130416716Y-53309638D01*
X130416715Y-53309637D01*
X130412385Y-53305307D01*
X130412374Y-53305297D01*
X129577432Y-52470355D01*
X129577430Y-52470352D01*
X129458559Y-52351481D01*
X129458558Y-52351480D01*
X129371746Y-52301360D01*
X129371746Y-52301359D01*
X129371742Y-52301358D01*
X129321627Y-52272423D01*
X129168899Y-52231499D01*
X129010785Y-52231499D01*
X129003189Y-52231499D01*
X129003173Y-52231500D01*
X124440169Y-52231500D01*
X124440153Y-52231499D01*
X124432557Y-52231499D01*
X124274443Y-52231499D01*
X124167087Y-52260265D01*
X124121710Y-52272424D01*
X124121709Y-52272425D01*
X124071596Y-52301359D01*
X124071595Y-52301360D01*
X124028189Y-52326420D01*
X123984785Y-52351479D01*
X123984782Y-52351481D01*
X123872978Y-52463286D01*
X123636165Y-52700098D01*
X123574842Y-52733583D01*
X123508222Y-52729698D01*
X123434788Y-52704488D01*
X123246434Y-52673057D01*
X123199347Y-52665200D01*
X122960653Y-52665200D01*
X122901793Y-52675022D01*
X122725213Y-52704488D01*
X122499458Y-52781989D01*
X122499453Y-52781991D01*
X122289529Y-52895598D01*
X122101169Y-53042204D01*
X121939506Y-53217817D01*
X121808951Y-53417646D01*
X121808555Y-53418551D01*
X121808292Y-53418863D01*
X121806511Y-53422155D01*
X121805833Y-53421788D01*
X121763597Y-53472036D01*
X121696861Y-53492724D01*
X121629533Y-53474048D01*
X121582991Y-53421936D01*
X121581445Y-53418551D01*
X121581048Y-53417646D01*
X121510483Y-53309638D01*
X121450494Y-53217818D01*
X121288832Y-53042205D01*
X121100469Y-52895597D01*
X121004152Y-52843472D01*
X120890546Y-52781991D01*
X120890541Y-52781989D01*
X120664786Y-52704488D01*
X120507826Y-52678296D01*
X120429347Y-52665200D01*
X120190653Y-52665200D01*
X120131793Y-52675022D01*
X119955213Y-52704488D01*
X119729458Y-52781989D01*
X119729453Y-52781991D01*
X119519529Y-52895598D01*
X119331169Y-53042204D01*
X119169506Y-53217817D01*
X119038951Y-53417647D01*
X118943070Y-53636232D01*
X118884475Y-53867618D01*
X118884473Y-53867630D01*
X118864764Y-54105494D01*
X118864764Y-54105505D01*
X118884473Y-54343369D01*
X118884475Y-54343381D01*
X118943070Y-54574767D01*
X119015096Y-54738968D01*
X119038953Y-54793356D01*
X119169506Y-54993182D01*
X119331168Y-55168795D01*
X119478344Y-55283346D01*
X119519157Y-55340057D01*
X119522832Y-55409830D01*
X119488201Y-55470513D01*
X119426259Y-55502840D01*
X119402182Y-55505200D01*
X117932329Y-55505200D01*
X117932323Y-55505201D01*
X117872716Y-55511608D01*
X117737871Y-55561902D01*
X117737864Y-55561906D01*
X117622655Y-55648152D01*
X117622652Y-55648155D01*
X117536406Y-55763364D01*
X117536402Y-55763371D01*
X117486108Y-55898217D01*
X117479701Y-55957816D01*
X117479700Y-55957835D01*
X117479700Y-57933170D01*
X113820985Y-57933170D01*
X113858708Y-57906404D01*
X114113346Y-57678846D01*
X114340904Y-57424208D01*
X114511780Y-57183381D01*
X114538516Y-57145701D01*
X114538519Y-57145696D01*
X114538522Y-57145692D01*
X114703712Y-56846802D01*
X114834399Y-56531296D01*
X114928939Y-56203141D01*
X114986143Y-55866464D01*
X115005291Y-55525500D01*
X114986143Y-55184536D01*
X114928939Y-54847859D01*
X114834399Y-54519704D01*
X114703712Y-54204198D01*
X114538522Y-53905308D01*
X114538520Y-53905306D01*
X114538519Y-53905303D01*
X114538516Y-53905298D01*
X114340907Y-53626796D01*
X114340906Y-53626795D01*
X114340904Y-53626792D01*
X114113346Y-53372154D01*
X113858708Y-53144596D01*
X113858705Y-53144594D01*
X113858703Y-53144592D01*
X113580201Y-52946983D01*
X113580196Y-52946980D01*
X113281669Y-52781991D01*
X113281302Y-52781788D01*
X112965796Y-52651101D01*
X112881448Y-52626800D01*
X112637646Y-52556562D01*
X112637637Y-52556560D01*
X112300971Y-52499358D01*
X112300959Y-52499356D01*
X111960000Y-52480209D01*
X111619040Y-52499356D01*
X111619028Y-52499358D01*
X111282362Y-52556560D01*
X111282353Y-52556562D01*
X110954207Y-52651100D01*
X110954204Y-52651101D01*
X110920166Y-52665200D01*
X110638699Y-52781787D01*
X110339803Y-52946980D01*
X110339798Y-52946983D01*
X110061296Y-53144592D01*
X109806654Y-53372154D01*
X109579092Y-53626796D01*
X109381483Y-53905298D01*
X109381480Y-53905303D01*
X109216287Y-54204199D01*
X109197061Y-54250615D01*
X109153220Y-54305018D01*
X109086925Y-54327083D01*
X109019226Y-54309804D01*
X108971616Y-54258666D01*
X108958500Y-54203162D01*
X108958500Y-46090500D01*
X108978185Y-46023461D01*
X109030989Y-45977706D01*
X109082500Y-45966500D01*
X139837500Y-45966500D01*
X139904539Y-45986185D01*
G37*
%TD.AperFunction*%
%TA.AperFunction,Conductor*%
G36*
X131698297Y-66329985D02*
G01*
X131730212Y-66359573D01*
X131852133Y-66521024D01*
X132016344Y-66670721D01*
X132016346Y-66670723D01*
X132205266Y-66787697D01*
X132205272Y-66787700D01*
X132234206Y-66798909D01*
X132412472Y-66867970D01*
X132630896Y-66908800D01*
X132630899Y-66908800D01*
X132853102Y-66908800D01*
X132853104Y-66908800D01*
X132989932Y-66883222D01*
X133059444Y-66890253D01*
X133100395Y-66917430D01*
X135507181Y-69324216D01*
X135540666Y-69385539D01*
X135543500Y-69411897D01*
X135543500Y-81623699D01*
X135523815Y-81690738D01*
X135471011Y-81736493D01*
X135458507Y-81741403D01*
X135425962Y-81752188D01*
X135374668Y-81769185D01*
X135374663Y-81769187D01*
X135225342Y-81861289D01*
X135101289Y-81985342D01*
X135009187Y-82134663D01*
X135009186Y-82134666D01*
X134954001Y-82301203D01*
X134954001Y-82301204D01*
X134954000Y-82301204D01*
X134943500Y-82403983D01*
X134943500Y-83204001D01*
X134943501Y-83204019D01*
X134954000Y-83306796D01*
X134954001Y-83306799D01*
X134990032Y-83415532D01*
X135009186Y-83473334D01*
X135100571Y-83621494D01*
X135101289Y-83622657D01*
X135194951Y-83716319D01*
X135228436Y-83777642D01*
X135223452Y-83847334D01*
X135194951Y-83891681D01*
X135101289Y-83985342D01*
X135009187Y-84134663D01*
X135009185Y-84134668D01*
X134954001Y-84301203D01*
X134943500Y-84403983D01*
X134943500Y-85204001D01*
X134943502Y-85204022D01*
X134950888Y-85276333D01*
X134938118Y-85345026D01*
X134890236Y-85395909D01*
X134822446Y-85412829D01*
X134756270Y-85390412D01*
X134739852Y-85376617D01*
X133837589Y-84474354D01*
X133837588Y-84474352D01*
X133718717Y-84355481D01*
X133718709Y-84355475D01*
X133624706Y-84301203D01*
X133624704Y-84301202D01*
X133581790Y-84276425D01*
X133581789Y-84276424D01*
X133546764Y-84267039D01*
X133429057Y-84235499D01*
X133270943Y-84235499D01*
X133263347Y-84235499D01*
X133263331Y-84235500D01*
X129700085Y-84235500D01*
X129633046Y-84215815D01*
X129587291Y-84163011D01*
X129582379Y-84150504D01*
X129546314Y-84041666D01*
X129454212Y-83892344D01*
X129330156Y-83768288D01*
X129180834Y-83676186D01*
X129014297Y-83621001D01*
X129014295Y-83621000D01*
X128911510Y-83610500D01*
X128136498Y-83610500D01*
X128136480Y-83610501D01*
X128033703Y-83621000D01*
X128033700Y-83621001D01*
X127867168Y-83676185D01*
X127867163Y-83676187D01*
X127717842Y-83768289D01*
X127593788Y-83892343D01*
X127593783Y-83892349D01*
X127591741Y-83895661D01*
X127589747Y-83897453D01*
X127589307Y-83898011D01*
X127589211Y-83897935D01*
X127539791Y-83942383D01*
X127470828Y-83953602D01*
X127406747Y-83925755D01*
X127380668Y-83895656D01*
X127378819Y-83892659D01*
X127378816Y-83892655D01*
X127254845Y-83768684D01*
X127105624Y-83676643D01*
X127105619Y-83676641D01*
X126939197Y-83621494D01*
X126939190Y-83621493D01*
X126836486Y-83611000D01*
X126699000Y-83611000D01*
X126699000Y-86060999D01*
X126836472Y-86060999D01*
X126836486Y-86060998D01*
X126939197Y-86050505D01*
X127105619Y-85995358D01*
X127105624Y-85995356D01*
X127254845Y-85903315D01*
X127378818Y-85779342D01*
X127380665Y-85776348D01*
X127382469Y-85774724D01*
X127383298Y-85773677D01*
X127383476Y-85773818D01*
X127432610Y-85729621D01*
X127501573Y-85718396D01*
X127565656Y-85746236D01*
X127591743Y-85776341D01*
X127593788Y-85779656D01*
X127717844Y-85903712D01*
X127864597Y-85994229D01*
X127911321Y-86046175D01*
X127923500Y-86099767D01*
X127923500Y-86638091D01*
X127903815Y-86705130D01*
X127859731Y-86743641D01*
X127860813Y-86745395D01*
X127854667Y-86749185D01*
X127854666Y-86749186D01*
X127756419Y-86809784D01*
X127705342Y-86841289D01*
X127611681Y-86934951D01*
X127550358Y-86968436D01*
X127480666Y-86963452D01*
X127436319Y-86934951D01*
X127342657Y-86841289D01*
X127342656Y-86841288D01*
X127193334Y-86749186D01*
X127026797Y-86694001D01*
X127026795Y-86694000D01*
X126924016Y-86683500D01*
X126200500Y-86683500D01*
X126133461Y-86663815D01*
X126087706Y-86611011D01*
X126076500Y-86559500D01*
X126076500Y-86184999D01*
X126096185Y-86117960D01*
X126148989Y-86072205D01*
X126198582Y-86061416D01*
X126199000Y-86060999D01*
X126199000Y-83611000D01*
X126198376Y-83610376D01*
X126133461Y-83591315D01*
X126087706Y-83538511D01*
X126076500Y-83487000D01*
X126076500Y-77139800D01*
X131538366Y-77139800D01*
X131558859Y-77360966D01*
X131558860Y-77360968D01*
X131619643Y-77574598D01*
X131619649Y-77574613D01*
X131718652Y-77773436D01*
X131734208Y-77794036D01*
X132304352Y-77223893D01*
X132327792Y-77311371D01*
X132386311Y-77412730D01*
X132469070Y-77495489D01*
X132570429Y-77554008D01*
X132657905Y-77577447D01*
X132089761Y-78145590D01*
X132089762Y-78145591D01*
X132205490Y-78217247D01*
X132205496Y-78217250D01*
X132412607Y-78297484D01*
X132630945Y-78338300D01*
X132853055Y-78338300D01*
X133071392Y-78297484D01*
X133278505Y-78217249D01*
X133278506Y-78217248D01*
X133394237Y-78145590D01*
X132826095Y-77577447D01*
X132913571Y-77554008D01*
X133014930Y-77495489D01*
X133097689Y-77412730D01*
X133156208Y-77311371D01*
X133179647Y-77223894D01*
X133749790Y-77794036D01*
X133765348Y-77773434D01*
X133765353Y-77773426D01*
X133864350Y-77574613D01*
X133864356Y-77574598D01*
X133925139Y-77360968D01*
X133925140Y-77360966D01*
X133945634Y-77139800D01*
X133945634Y-77139799D01*
X133925140Y-76918633D01*
X133925139Y-76918631D01*
X133864356Y-76705001D01*
X133864350Y-76704986D01*
X133765353Y-76506174D01*
X133765348Y-76506167D01*
X133749789Y-76485562D01*
X133179647Y-77055704D01*
X133156208Y-76968229D01*
X133097689Y-76866870D01*
X133014930Y-76784111D01*
X132913571Y-76725592D01*
X132826094Y-76702152D01*
X133394237Y-76134008D01*
X133394236Y-76134007D01*
X133278509Y-76062352D01*
X133278503Y-76062349D01*
X133071392Y-75982115D01*
X132853055Y-75941300D01*
X132630945Y-75941300D01*
X132412607Y-75982115D01*
X132205495Y-76062350D01*
X132089761Y-76134008D01*
X132657906Y-76702152D01*
X132570429Y-76725592D01*
X132469070Y-76784111D01*
X132386311Y-76866870D01*
X132327792Y-76968229D01*
X132304352Y-77055705D01*
X131734209Y-76485562D01*
X131718651Y-76506165D01*
X131619649Y-76704986D01*
X131619643Y-76705001D01*
X131558860Y-76918631D01*
X131558859Y-76918633D01*
X131538366Y-77139799D01*
X131538366Y-77139800D01*
X126076500Y-77139800D01*
X126076500Y-75177767D01*
X126096185Y-75110728D01*
X126135401Y-75072230D01*
X126282156Y-74981712D01*
X126406212Y-74857656D01*
X126408252Y-74854347D01*
X126410245Y-74852555D01*
X126410693Y-74851989D01*
X126410789Y-74852065D01*
X126460194Y-74807623D01*
X126529156Y-74796395D01*
X126593240Y-74824234D01*
X126619329Y-74854339D01*
X126621181Y-74857341D01*
X126621183Y-74857344D01*
X126745154Y-74981315D01*
X126894375Y-75073356D01*
X126894380Y-75073358D01*
X127060802Y-75128505D01*
X127060809Y-75128506D01*
X127163519Y-75138999D01*
X127300999Y-75138999D01*
X127301000Y-75138998D01*
X127301000Y-74164000D01*
X127801000Y-74164000D01*
X127801000Y-75138999D01*
X127938472Y-75138999D01*
X127938486Y-75138998D01*
X128041197Y-75128505D01*
X128207619Y-75073358D01*
X128207624Y-75073356D01*
X128356845Y-74981315D01*
X128480815Y-74857345D01*
X128572856Y-74708124D01*
X128572858Y-74708119D01*
X128628005Y-74541697D01*
X128628006Y-74541690D01*
X128638499Y-74438986D01*
X128638500Y-74438973D01*
X128638500Y-74164000D01*
X127801000Y-74164000D01*
X127301000Y-74164000D01*
X127301000Y-72689000D01*
X127801000Y-72689000D01*
X127801000Y-73664000D01*
X128638499Y-73664000D01*
X128638499Y-73389028D01*
X128638498Y-73389013D01*
X128632449Y-73329800D01*
X131537863Y-73329800D01*
X131558365Y-73551059D01*
X131558366Y-73551061D01*
X131619174Y-73764779D01*
X131619180Y-73764794D01*
X131718222Y-73963696D01*
X131852133Y-74141024D01*
X132016344Y-74290721D01*
X132016346Y-74290723D01*
X132205266Y-74407697D01*
X132205272Y-74407700D01*
X132234206Y-74418909D01*
X132412472Y-74487970D01*
X132630896Y-74528800D01*
X132630899Y-74528800D01*
X132853101Y-74528800D01*
X132853104Y-74528800D01*
X133071528Y-74487970D01*
X133278730Y-74407699D01*
X133467655Y-74290722D01*
X133631868Y-74141022D01*
X133765778Y-73963696D01*
X133864824Y-73764784D01*
X133925634Y-73551060D01*
X133946137Y-73329800D01*
X133937214Y-73233512D01*
X133925634Y-73108540D01*
X133925633Y-73108538D01*
X133923219Y-73100054D01*
X133864824Y-72894816D01*
X133765778Y-72695904D01*
X133631868Y-72518578D01*
X133631866Y-72518575D01*
X133467655Y-72368878D01*
X133467653Y-72368876D01*
X133278733Y-72251902D01*
X133278727Y-72251899D01*
X133171080Y-72210197D01*
X133071528Y-72171630D01*
X132853104Y-72130800D01*
X132630896Y-72130800D01*
X132412472Y-72171630D01*
X132371985Y-72187315D01*
X132205272Y-72251899D01*
X132205266Y-72251902D01*
X132016346Y-72368876D01*
X132016344Y-72368878D01*
X131852133Y-72518575D01*
X131718222Y-72695903D01*
X131619180Y-72894805D01*
X131619174Y-72894820D01*
X131558366Y-73108538D01*
X131558365Y-73108540D01*
X131537863Y-73329799D01*
X131537863Y-73329800D01*
X128632449Y-73329800D01*
X128628005Y-73286302D01*
X128572858Y-73119880D01*
X128572856Y-73119875D01*
X128480815Y-72970654D01*
X128356845Y-72846684D01*
X128207624Y-72754643D01*
X128207619Y-72754641D01*
X128041197Y-72699494D01*
X128041190Y-72699493D01*
X127938486Y-72689000D01*
X127801000Y-72689000D01*
X127301000Y-72689000D01*
X127163527Y-72689000D01*
X127163512Y-72689001D01*
X127060802Y-72699494D01*
X126894380Y-72754641D01*
X126894375Y-72754643D01*
X126745154Y-72846684D01*
X126621183Y-72970655D01*
X126621179Y-72970660D01*
X126619326Y-72973665D01*
X126617518Y-72975290D01*
X126616702Y-72976323D01*
X126616525Y-72976183D01*
X126567374Y-73020385D01*
X126498411Y-73031601D01*
X126434331Y-73003752D01*
X126408253Y-72973653D01*
X126408237Y-72973628D01*
X126406212Y-72970344D01*
X126282156Y-72846288D01*
X126135402Y-72755770D01*
X126088679Y-72703823D01*
X126076500Y-72650232D01*
X126076500Y-72383767D01*
X126096185Y-72316728D01*
X126135401Y-72278230D01*
X126282156Y-72187712D01*
X126406212Y-72063656D01*
X126408252Y-72060347D01*
X126410245Y-72058555D01*
X126410693Y-72057989D01*
X126410789Y-72058065D01*
X126460194Y-72013623D01*
X126529156Y-72002395D01*
X126593240Y-72030234D01*
X126619329Y-72060339D01*
X126621181Y-72063341D01*
X126621183Y-72063344D01*
X126745154Y-72187315D01*
X126894375Y-72279356D01*
X126894380Y-72279358D01*
X127060802Y-72334505D01*
X127060809Y-72334506D01*
X127163519Y-72344999D01*
X127300999Y-72344999D01*
X127301000Y-72344998D01*
X127301000Y-71370000D01*
X127801000Y-71370000D01*
X127801000Y-72344999D01*
X127938472Y-72344999D01*
X127938486Y-72344998D01*
X128041197Y-72334505D01*
X128207619Y-72279358D01*
X128207624Y-72279356D01*
X128356845Y-72187315D01*
X128480815Y-72063345D01*
X128572856Y-71914124D01*
X128572858Y-71914119D01*
X128628005Y-71747697D01*
X128628006Y-71747690D01*
X128638499Y-71644986D01*
X128638500Y-71644973D01*
X128638500Y-71370000D01*
X127801000Y-71370000D01*
X127301000Y-71370000D01*
X127301000Y-70994000D01*
X127320685Y-70926961D01*
X127373489Y-70881206D01*
X127425000Y-70870000D01*
X128638499Y-70870000D01*
X128638499Y-70595028D01*
X128638498Y-70595013D01*
X128628005Y-70492302D01*
X128572858Y-70325880D01*
X128572856Y-70325875D01*
X128480815Y-70176654D01*
X128356845Y-70052684D01*
X128207624Y-69960643D01*
X128207621Y-69960642D01*
X128175964Y-69950152D01*
X128118519Y-69910379D01*
X128091697Y-69845863D01*
X128104012Y-69777087D01*
X128151556Y-69725887D01*
X128175977Y-69714736D01*
X128177124Y-69714355D01*
X128326345Y-69622315D01*
X128428860Y-69519800D01*
X131537863Y-69519800D01*
X131558365Y-69741059D01*
X131558366Y-69741061D01*
X131619174Y-69954779D01*
X131619180Y-69954794D01*
X131718222Y-70153696D01*
X131852133Y-70331024D01*
X132016344Y-70480721D01*
X132016346Y-70480723D01*
X132205266Y-70597697D01*
X132205272Y-70597700D01*
X132234206Y-70608909D01*
X132412472Y-70677970D01*
X132630896Y-70718800D01*
X132630899Y-70718800D01*
X132853101Y-70718800D01*
X132853104Y-70718800D01*
X133071528Y-70677970D01*
X133278730Y-70597699D01*
X133467655Y-70480722D01*
X133631868Y-70331022D01*
X133765778Y-70153696D01*
X133864824Y-69954784D01*
X133925634Y-69741060D01*
X133946137Y-69519800D01*
X133925634Y-69298540D01*
X133864824Y-69084816D01*
X133862435Y-69080019D01*
X133816548Y-68987865D01*
X133765778Y-68885904D01*
X133686436Y-68780838D01*
X133631866Y-68708575D01*
X133467655Y-68558878D01*
X133467653Y-68558876D01*
X133278733Y-68441902D01*
X133278727Y-68441899D01*
X133171080Y-68400197D01*
X133071528Y-68361630D01*
X132853104Y-68320800D01*
X132630896Y-68320800D01*
X132412472Y-68361630D01*
X132362695Y-68380913D01*
X132205272Y-68441899D01*
X132205266Y-68441902D01*
X132016346Y-68558876D01*
X132016344Y-68558878D01*
X131852133Y-68708575D01*
X131718222Y-68885903D01*
X131619180Y-69084805D01*
X131619174Y-69084820D01*
X131558366Y-69298538D01*
X131558365Y-69298540D01*
X131537863Y-69519799D01*
X131537863Y-69519800D01*
X128428860Y-69519800D01*
X128450315Y-69498345D01*
X128542356Y-69349124D01*
X128542358Y-69349119D01*
X128597505Y-69182697D01*
X128597506Y-69182690D01*
X128607999Y-69079986D01*
X128608000Y-69079973D01*
X128608000Y-68830000D01*
X127382000Y-68830000D01*
X127314961Y-68810315D01*
X127269206Y-68757511D01*
X127258000Y-68706000D01*
X127258000Y-67380000D01*
X127758000Y-67380000D01*
X127758000Y-68330000D01*
X128607999Y-68330000D01*
X128607999Y-68080028D01*
X128607998Y-68080013D01*
X128597505Y-67977302D01*
X128542358Y-67810880D01*
X128542356Y-67810875D01*
X128450315Y-67661654D01*
X128326345Y-67537684D01*
X128177124Y-67445643D01*
X128177119Y-67445641D01*
X128010697Y-67390494D01*
X128010690Y-67390493D01*
X127907986Y-67380000D01*
X127758000Y-67380000D01*
X127258000Y-67380000D01*
X127108027Y-67380000D01*
X127108012Y-67380001D01*
X127005302Y-67390494D01*
X126838880Y-67445641D01*
X126838875Y-67445643D01*
X126689657Y-67537682D01*
X126596034Y-67631305D01*
X126534710Y-67664789D01*
X126465019Y-67659805D01*
X126420672Y-67631304D01*
X126326657Y-67537289D01*
X126326656Y-67537288D01*
X126177334Y-67445186D01*
X126177328Y-67445184D01*
X126143494Y-67433972D01*
X126086050Y-67394199D01*
X126059228Y-67329683D01*
X126058500Y-67316267D01*
X126058500Y-67017057D01*
X126078185Y-66950018D01*
X126117401Y-66911520D01*
X126251656Y-66828712D01*
X126375712Y-66704656D01*
X126377461Y-66701819D01*
X126379169Y-66700283D01*
X126380193Y-66698989D01*
X126380414Y-66699163D01*
X126429406Y-66655096D01*
X126498368Y-66643872D01*
X126562451Y-66671713D01*
X126588537Y-66701817D01*
X126590288Y-66704656D01*
X126714344Y-66828712D01*
X126863666Y-66920814D01*
X127030203Y-66975999D01*
X127132991Y-66986500D01*
X127883008Y-66986499D01*
X127883016Y-66986498D01*
X127883019Y-66986498D01*
X127939302Y-66980748D01*
X127985797Y-66975999D01*
X128152334Y-66920814D01*
X128301656Y-66828712D01*
X128425712Y-66704656D01*
X128517814Y-66555334D01*
X128570846Y-66395295D01*
X128610619Y-66337851D01*
X128675135Y-66311028D01*
X128688552Y-66310300D01*
X131631258Y-66310300D01*
X131698297Y-66329985D01*
G37*
%TD.AperFunction*%
%TD*%
M02*
