%TF.GenerationSoftware,KiCad,Pcbnew,8.0.0*%
%TF.CreationDate,2025-04-28T20:28:04+05:30*%
%TF.ProjectId,ATA6503_mikrobus,41544136-3530-4335-9f6d-696b726f6275,rev?*%
%TF.SameCoordinates,Original*%
%TF.FileFunction,Soldermask,Top*%
%TF.FilePolarity,Negative*%
%FSLAX46Y46*%
G04 Gerber Fmt 4.6, Leading zero omitted, Abs format (unit mm)*
G04 Created by KiCad (PCBNEW 8.0.0) date 2025-04-28 20:28:04*
%MOMM*%
%LPD*%
G01*
G04 APERTURE LIST*
G04 Aperture macros list*
%AMRoundRect*
0 Rectangle with rounded corners*
0 $1 Rounding radius*
0 $2 $3 $4 $5 $6 $7 $8 $9 X,Y pos of 4 corners*
0 Add a 4 corners polygon primitive as box body*
4,1,4,$2,$3,$4,$5,$6,$7,$8,$9,$2,$3,0*
0 Add four circle primitives for the rounded corners*
1,1,$1+$1,$2,$3*
1,1,$1+$1,$4,$5*
1,1,$1+$1,$6,$7*
1,1,$1+$1,$8,$9*
0 Add four rect primitives between the rounded corners*
20,1,$1+$1,$2,$3,$4,$5,0*
20,1,$1+$1,$4,$5,$6,$7,0*
20,1,$1+$1,$6,$7,$8,$9,0*
20,1,$1+$1,$8,$9,$2,$3,0*%
G04 Aperture macros list end*
%ADD10RoundRect,0.250000X0.450000X-0.350000X0.450000X0.350000X-0.450000X0.350000X-0.450000X-0.350000X0*%
%ADD11RoundRect,0.250000X-0.450000X0.325000X-0.450000X-0.325000X0.450000X-0.325000X0.450000X0.325000X0*%
%ADD12RoundRect,0.250000X-0.337500X-0.475000X0.337500X-0.475000X0.337500X0.475000X-0.337500X0.475000X0*%
%ADD13RoundRect,0.250000X-0.475000X0.337500X-0.475000X-0.337500X0.475000X-0.337500X0.475000X0.337500X0*%
%ADD14RoundRect,0.250000X-0.450000X0.350000X-0.450000X-0.350000X0.450000X-0.350000X0.450000X0.350000X0*%
%ADD15C,1.397000*%
%ADD16RoundRect,0.250000X-0.350000X-0.450000X0.350000X-0.450000X0.350000X0.450000X-0.350000X0.450000X0*%
%ADD17RoundRect,0.250000X-0.325000X-0.450000X0.325000X-0.450000X0.325000X0.450000X-0.325000X0.450000X0*%
%ADD18RoundRect,0.250000X0.350000X0.450000X-0.350000X0.450000X-0.350000X-0.450000X0.350000X-0.450000X0*%
%ADD19R,0.711200X0.254000*%
%ADD20R,1.803400X2.387600*%
%ADD21RoundRect,0.250000X0.337500X0.475000X-0.337500X0.475000X-0.337500X-0.475000X0.337500X-0.475000X0*%
%ADD22R,1.397000X3.505200*%
%ADD23R,10.718800X8.407400*%
%ADD24RoundRect,0.102000X-0.939800X-0.939800X0.939800X-0.939800X0.939800X0.939800X-0.939800X0.939800X0*%
%ADD25C,2.083600*%
%ADD26C,5.284000*%
%ADD27R,1.300000X1.550000*%
%ADD28R,1.700000X1.700000*%
%ADD29O,1.700000X1.700000*%
G04 APERTURE END LIST*
D10*
%TO.C,R11*%
X114046000Y-95758000D03*
X114046000Y-93758000D03*
%TD*%
D11*
%TO.C,D4*%
X114300000Y-88882000D03*
X114300000Y-90932000D03*
%TD*%
D12*
%TO.C,C10*%
X115019000Y-84074000D03*
X117094000Y-84074000D03*
%TD*%
%TO.C,C1*%
X125476000Y-73914000D03*
X127551000Y-73914000D03*
%TD*%
D13*
%TO.C,C6*%
X119888000Y-102319000D03*
X119888000Y-104394000D03*
%TD*%
D14*
%TO.C,R9*%
X136144000Y-82804000D03*
X136144000Y-84804000D03*
%TD*%
D10*
%TO.C,R12*%
X116996000Y-95758000D03*
X116996000Y-93758000D03*
%TD*%
D15*
%TO.C,J4*%
X132742000Y-65709800D03*
X132742000Y-69519800D03*
X132742000Y-73329800D03*
X132742000Y-77139800D03*
%TD*%
D12*
%TO.C,C3*%
X128227000Y-60198000D03*
X130302000Y-60198000D03*
%TD*%
D16*
%TO.C,R4*%
X118142000Y-111252000D03*
X120142000Y-111252000D03*
%TD*%
D17*
%TO.C,D3*%
X125458000Y-65786000D03*
X127508000Y-65786000D03*
%TD*%
D12*
%TO.C,C2*%
X125476000Y-71120000D03*
X127551000Y-71120000D03*
%TD*%
%TO.C,C4*%
X119083000Y-60198000D03*
X121158000Y-60198000D03*
%TD*%
D13*
%TO.C,C5*%
X132820500Y-98509000D03*
X132820500Y-100584000D03*
%TD*%
D16*
%TO.C,R8*%
X121444000Y-114808000D03*
X123444000Y-114808000D03*
%TD*%
D18*
%TO.C,R5*%
X128016000Y-118110000D03*
X126016000Y-118110000D03*
%TD*%
D11*
%TO.C,D6*%
X119888000Y-88900000D03*
X119888000Y-90950000D03*
%TD*%
D10*
%TO.C,R13*%
X119946000Y-95758000D03*
X119946000Y-93758000D03*
%TD*%
D18*
%TO.C,R7*%
X127762000Y-114808000D03*
X125762000Y-114808000D03*
%TD*%
D16*
%TO.C,R2*%
X128302000Y-97514500D03*
X130302000Y-97514500D03*
%TD*%
D19*
%TO.C,U1*%
X122250200Y-97551999D03*
X122250200Y-98052001D03*
X122250200Y-98552000D03*
X122250200Y-99051999D03*
X122250200Y-99552001D03*
X125145800Y-99552001D03*
X125145800Y-99051999D03*
X125145800Y-98552000D03*
X125145800Y-98052001D03*
X125145800Y-97551999D03*
D20*
X123698000Y-98552000D03*
%TD*%
D12*
%TO.C,C8*%
X128989000Y-111252000D03*
X131064000Y-111252000D03*
%TD*%
D18*
%TO.C,R6*%
X123698000Y-118110000D03*
X121698000Y-118110000D03*
%TD*%
D21*
%TO.C,C11*%
X121158000Y-84074000D03*
X119083000Y-84074000D03*
%TD*%
D16*
%TO.C,R1*%
X125508000Y-68580000D03*
X127508000Y-68580000D03*
%TD*%
D22*
%TO.C,U2*%
X115189000Y-79794100D03*
X117729000Y-79794100D03*
X120269000Y-79794100D03*
D23*
X117729000Y-68453000D03*
%TD*%
D21*
%TO.C,C9*%
X128524000Y-84836000D03*
X126449000Y-84836000D03*
%TD*%
D16*
%TO.C,R10*%
X126524000Y-87884000D03*
X128524000Y-87884000D03*
%TD*%
D24*
%TO.C,J3*%
X118920000Y-56945500D03*
D25*
X121690000Y-56945500D03*
X124460000Y-56945500D03*
X127230000Y-56945500D03*
X130000000Y-56945500D03*
X120310000Y-54105500D03*
X123080000Y-54105500D03*
X125840000Y-54105500D03*
X128610000Y-54105500D03*
D26*
X111960000Y-55525500D03*
X136960000Y-55525500D03*
%TD*%
D27*
%TO.C,SW1*%
X135689000Y-87175000D03*
X135689000Y-95125000D03*
X131189000Y-87175000D03*
X131189000Y-95125000D03*
%TD*%
D13*
%TO.C,C7*%
X122428000Y-102362000D03*
X122428000Y-104437000D03*
%TD*%
D16*
%TO.C,R3*%
X128302000Y-99800500D03*
X130302000Y-99800500D03*
%TD*%
D11*
%TO.C,D5*%
X117094000Y-88882000D03*
X117094000Y-90932000D03*
%TD*%
D28*
%TO.C,J1*%
X113030000Y-100330000D03*
D29*
X113030000Y-102870000D03*
X113030000Y-105410000D03*
X113030000Y-107950000D03*
X113030000Y-110490000D03*
X113030000Y-113030000D03*
X113030000Y-115570000D03*
X113030000Y-118110000D03*
%TD*%
D28*
%TO.C,J2*%
X135890000Y-100330000D03*
D29*
X135890000Y-102870000D03*
X135890000Y-105410000D03*
X135890000Y-107950000D03*
X135890000Y-110490000D03*
X135890000Y-113030000D03*
X135890000Y-115570000D03*
X135890000Y-118110000D03*
%TD*%
M02*
