%TF.GenerationSoftware,KiCad,Pcbnew,8.0.0*%
%TF.CreationDate,2025-04-28T20:27:13+05:30*%
%TF.ProjectId,ATA6503_mikrobus,41544136-3530-4335-9f6d-696b726f6275,rev?*%
%TF.SameCoordinates,Original*%
%TF.FileFunction,Copper,L2,Bot*%
%TF.FilePolarity,Positive*%
%FSLAX46Y46*%
G04 Gerber Fmt 4.6, Leading zero omitted, Abs format (unit mm)*
G04 Created by KiCad (PCBNEW 8.0.0) date 2025-04-28 20:27:13*
%MOMM*%
%LPD*%
G01*
G04 APERTURE LIST*
%TA.AperFunction,ComponentPad*%
%ADD10C,1.397000*%
%TD*%
%TA.AperFunction,ComponentPad*%
%ADD11R,1.879600X1.879600*%
%TD*%
%TA.AperFunction,ComponentPad*%
%ADD12C,1.879600*%
%TD*%
%TA.AperFunction,ComponentPad*%
%ADD13C,5.080000*%
%TD*%
%TA.AperFunction,ComponentPad*%
%ADD14R,1.700000X1.700000*%
%TD*%
%TA.AperFunction,ComponentPad*%
%ADD15O,1.700000X1.700000*%
%TD*%
%TA.AperFunction,ViaPad*%
%ADD16C,0.600000*%
%TD*%
%TA.AperFunction,Conductor*%
%ADD17C,0.200000*%
%TD*%
G04 APERTURE END LIST*
D10*
%TO.P,J4,1,Pin_1*%
%TO.N,Vbat*%
X132742000Y-65709800D03*
%TO.P,J4,2,Pin_2*%
%TO.N,VCC*%
X132742000Y-69519800D03*
%TO.P,J4,3,Pin_3*%
%TO.N,3.3V*%
X132742000Y-73329800D03*
%TO.P,J4,4,Pin_4*%
%TO.N,GND*%
X132742000Y-77139800D03*
%TD*%
D11*
%TO.P,J3,1,1*%
%TO.N,unconnected-(J3-Pad1)*%
X118920000Y-56945500D03*
D12*
%TO.P,J3,2,2*%
%TO.N,/CAN_L*%
X121690000Y-56945500D03*
%TO.P,J3,3,3*%
%TO.N,GND*%
X124460000Y-56945500D03*
%TO.P,J3,4,4*%
%TO.N,unconnected-(J3-Pad4)*%
X127230000Y-56945500D03*
%TO.P,J3,5,5*%
%TO.N,unconnected-(J3-Pad5)*%
X130000000Y-56945500D03*
%TO.P,J3,6,6*%
%TO.N,unconnected-(J3-Pad6)*%
X120310000Y-54105500D03*
%TO.P,J3,7,7*%
%TO.N,/CAN_H*%
X123080000Y-54105500D03*
%TO.P,J3,8,8*%
%TO.N,unconnected-(J3-Pad8)*%
X125840000Y-54105500D03*
%TO.P,J3,9,9*%
%TO.N,unconnected-(J3-Pad9)*%
X128610000Y-54105500D03*
D13*
%TO.P,J3,G1*%
%TO.N,N/C*%
X111960000Y-55525500D03*
%TO.P,J3,G2*%
X136960000Y-55525500D03*
%TD*%
D14*
%TO.P,J1,1,Pin_1*%
%TO.N,unconnected-(J1-Pin_1-Pad1)*%
X113030000Y-100330000D03*
D15*
%TO.P,J1,2,Pin_2*%
%TO.N,unconnected-(J1-Pin_2-Pad2)*%
X113030000Y-102870000D03*
%TO.P,J1,3,Pin_3*%
%TO.N,EP*%
X113030000Y-105410000D03*
%TO.P,J1,4,Pin_4*%
%TO.N,Comm*%
X113030000Y-107950000D03*
%TO.P,J1,5,Pin_5*%
%TO.N,unconnected-(J1-Pin_5-Pad5)*%
X113030000Y-110490000D03*
%TO.P,J1,6,Pin_6*%
%TO.N,unconnected-(J1-Pin_6-Pad6)*%
X113030000Y-113030000D03*
%TO.P,J1,7,Pin_7*%
%TO.N,3.3V*%
X113030000Y-115570000D03*
%TO.P,J1,8,Pin_8*%
%TO.N,GND*%
X113030000Y-118110000D03*
%TD*%
D14*
%TO.P,J2,1,Pin_1*%
%TO.N,/En*%
X135890000Y-100330000D03*
D15*
%TO.P,J2,2,Pin_2*%
%TO.N,/RST*%
X135890000Y-102870000D03*
%TO.P,J2,3,Pin_3*%
%TO.N,/Tx*%
X135890000Y-105410000D03*
%TO.P,J2,4,Pin_4*%
%TO.N,/Rx*%
X135890000Y-107950000D03*
%TO.P,J2,5,Pin_5*%
%TO.N,unconnected-(J2-Pin_5-Pad5)*%
X135890000Y-110490000D03*
%TO.P,J2,6,Pin_6*%
%TO.N,unconnected-(J2-Pin_6-Pad6)*%
X135890000Y-113030000D03*
%TO.P,J2,7,Pin_7*%
%TO.N,VCC*%
X135890000Y-115570000D03*
%TO.P,J2,8,Pin_8*%
%TO.N,GND*%
X135890000Y-118110000D03*
%TD*%
D16*
%TO.N,GND*%
X133604000Y-86868000D03*
X116078000Y-99568000D03*
X118618000Y-103632000D03*
X134112000Y-83820000D03*
X134112000Y-118872000D03*
X130810000Y-114554000D03*
X132842000Y-102870000D03*
%TO.N,Net-(D3-K)*%
X126492000Y-99314000D03*
X126492000Y-96012000D03*
%TO.N,/CAN_H*%
X128270000Y-61722000D03*
X128016000Y-96012000D03*
%TO.N,/CAN_L*%
X121158000Y-61976000D03*
X128270000Y-101092000D03*
%TO.N,VIO*%
X121412000Y-96520000D03*
X120904000Y-100584000D03*
X125476000Y-102870000D03*
X122682000Y-106172000D03*
X114046000Y-97282000D03*
X122682000Y-108712000D03*
%TO.N,3.3V*%
X122682000Y-84074000D03*
%TO.N,/RST*%
X122428000Y-100838000D03*
X120396000Y-109728000D03*
X124968000Y-101092000D03*
%TO.N,/En*%
X124714000Y-96266000D03*
%TO.N,Comm*%
X119888000Y-97028000D03*
X115316000Y-107950000D03*
%TO.N,EP*%
X115316000Y-105410000D03*
X117094000Y-97028000D03*
%TO.N,/Tx*%
X118364000Y-97282000D03*
X118364000Y-99060000D03*
X118364000Y-99060000D03*
%TO.N,VCC*%
X133350000Y-114808000D03*
X123952000Y-102362000D03*
X115062000Y-85598000D03*
%TO.N,Net-(R4-Pad1)*%
X118364000Y-116332000D03*
X118110000Y-112776000D03*
%TO.N,/WUP*%
X126746000Y-89408000D03*
X126238000Y-100076000D03*
%TD*%
D17*
%TO.N,GND*%
X116078000Y-101092000D02*
X116078000Y-99568000D01*
X134112000Y-83820000D02*
X134112000Y-86360000D01*
X134112000Y-118872000D02*
X130810000Y-115570000D01*
X130810000Y-115570000D02*
X130810000Y-114554000D01*
X134112000Y-86360000D02*
X133604000Y-86868000D01*
X118618000Y-103632000D02*
X116078000Y-101092000D01*
%TO.N,Net-(D3-K)*%
X126492000Y-99314000D02*
X126492000Y-96012000D01*
%TO.N,/CAN_H*%
X136814000Y-68234000D02*
X130302000Y-61722000D01*
X136814000Y-87214000D02*
X136814000Y-68234000D01*
X130302000Y-61722000D02*
X128270000Y-61722000D01*
X128016000Y-96012000D02*
X136814000Y-87214000D01*
%TO.N,/CAN_L*%
X133858000Y-69815893D02*
X122082000Y-81591893D01*
X123028000Y-84674000D02*
X127346000Y-88992000D01*
X122082000Y-81591893D02*
X122082000Y-84322529D01*
X122082000Y-84322529D02*
X122433471Y-84674000D01*
X127346000Y-100168000D02*
X128270000Y-101092000D01*
X122433471Y-84674000D02*
X123028000Y-84674000D01*
X127346000Y-88992000D02*
X127346000Y-100168000D01*
X133858000Y-69223707D02*
X133858000Y-69815893D01*
X126610293Y-61976000D02*
X133858000Y-69223707D01*
X121158000Y-61976000D02*
X126610293Y-61976000D01*
%TO.N,VIO*%
X120904000Y-97028000D02*
X121412000Y-96520000D01*
X115062000Y-96266000D02*
X114046000Y-97282000D01*
X121412000Y-96520000D02*
X121158000Y-96266000D01*
X121158000Y-96266000D02*
X115062000Y-96266000D01*
X122682000Y-106172000D02*
X122682000Y-108712000D01*
X120904000Y-100584000D02*
X120904000Y-97028000D01*
%TO.N,3.3V*%
X132742000Y-73329800D02*
X122682000Y-83389800D01*
X122682000Y-83389800D02*
X122682000Y-84074000D01*
%TO.N,/RST*%
X120396000Y-109728000D02*
X120396000Y-102870000D01*
X120396000Y-102870000D02*
X122428000Y-100838000D01*
%TO.N,/En*%
X134528000Y-101692000D02*
X135890000Y-100330000D01*
X127005471Y-101692000D02*
X134528000Y-101692000D01*
X124714000Y-99400529D02*
X127005471Y-101692000D01*
X124714000Y-96266000D02*
X124714000Y-99400529D01*
%TO.N,Comm*%
X119888000Y-97028000D02*
X119888000Y-103378000D01*
X119888000Y-103378000D02*
X115316000Y-107950000D01*
%TO.N,EP*%
X117094000Y-97028000D02*
X115316000Y-98806000D01*
X115316000Y-98806000D02*
X115316000Y-105410000D01*
%TO.N,/Tx*%
X118364000Y-99060000D02*
X118364000Y-97282000D01*
%TO.N,VCC*%
X123952000Y-105410000D02*
X123952000Y-102362000D01*
X133350000Y-114808000D02*
X123952000Y-105410000D01*
X123952000Y-94488000D02*
X115062000Y-85598000D01*
X131140200Y-69519800D02*
X132742000Y-69519800D01*
X115062000Y-85598000D02*
X131140200Y-69519800D01*
X123952000Y-102362000D02*
X123952000Y-94488000D01*
%TO.N,Net-(R4-Pad1)*%
X118364000Y-116332000D02*
X118364000Y-113030000D01*
X118364000Y-113030000D02*
X118110000Y-112776000D01*
%TO.N,/WUP*%
X126746000Y-89408000D02*
X125562529Y-90591471D01*
X125562529Y-99487058D02*
X126151471Y-100076000D01*
X126746000Y-89408000D02*
X126838000Y-89500000D01*
X126151471Y-100076000D02*
X126238000Y-100076000D01*
X125562529Y-90591471D02*
X125562529Y-99487058D01*
%TD*%
%TA.AperFunction,Conductor*%
%TO.N,GND*%
G36*
X123307743Y-101208744D02*
G01*
X123346115Y-101267133D01*
X123351500Y-101303280D01*
X123351500Y-101779587D01*
X123331815Y-101846626D01*
X123324450Y-101856896D01*
X123322186Y-101859734D01*
X123226211Y-102012476D01*
X123166631Y-102182745D01*
X123166630Y-102182750D01*
X123146435Y-102361996D01*
X123146435Y-102362003D01*
X123166630Y-102541249D01*
X123166631Y-102541254D01*
X123226211Y-102711523D01*
X123322185Y-102864263D01*
X123324445Y-102867097D01*
X123325334Y-102869275D01*
X123325889Y-102870158D01*
X123325734Y-102870255D01*
X123350855Y-102931783D01*
X123351500Y-102944412D01*
X123351500Y-105323330D01*
X123351499Y-105323348D01*
X123351499Y-105422904D01*
X123331814Y-105489943D01*
X123279010Y-105535698D01*
X123209852Y-105545642D01*
X123161527Y-105527898D01*
X123031523Y-105446211D01*
X122861254Y-105386631D01*
X122861249Y-105386630D01*
X122682004Y-105366435D01*
X122681996Y-105366435D01*
X122502750Y-105386630D01*
X122502745Y-105386631D01*
X122332476Y-105446211D01*
X122179737Y-105542184D01*
X122052184Y-105669737D01*
X121956211Y-105822476D01*
X121896631Y-105992745D01*
X121896630Y-105992750D01*
X121876435Y-106171996D01*
X121876435Y-106172003D01*
X121896630Y-106351249D01*
X121896631Y-106351254D01*
X121956211Y-106521523D01*
X122052185Y-106674263D01*
X122054445Y-106677097D01*
X122055334Y-106679275D01*
X122055889Y-106680158D01*
X122055734Y-106680255D01*
X122080855Y-106741783D01*
X122081500Y-106754412D01*
X122081500Y-108129587D01*
X122061815Y-108196626D01*
X122054450Y-108206896D01*
X122052186Y-108209734D01*
X121956211Y-108362476D01*
X121896631Y-108532745D01*
X121896630Y-108532750D01*
X121876435Y-108711996D01*
X121876435Y-108712003D01*
X121896630Y-108891249D01*
X121896631Y-108891254D01*
X121956211Y-109061523D01*
X122040974Y-109196422D01*
X122052184Y-109214262D01*
X122179738Y-109341816D01*
X122332478Y-109437789D01*
X122502745Y-109497368D01*
X122502750Y-109497369D01*
X122681996Y-109517565D01*
X122682000Y-109517565D01*
X122682004Y-109517565D01*
X122861249Y-109497369D01*
X122861252Y-109497368D01*
X122861255Y-109497368D01*
X123031522Y-109437789D01*
X123184262Y-109341816D01*
X123311816Y-109214262D01*
X123407789Y-109061522D01*
X123467368Y-108891255D01*
X123473549Y-108836396D01*
X123487565Y-108712003D01*
X123487565Y-108711996D01*
X123467369Y-108532750D01*
X123467368Y-108532745D01*
X123425699Y-108413663D01*
X123407789Y-108362478D01*
X123311816Y-108209738D01*
X123311814Y-108209736D01*
X123311813Y-108209734D01*
X123309550Y-108206896D01*
X123308659Y-108204715D01*
X123308111Y-108203842D01*
X123308264Y-108203745D01*
X123283144Y-108142209D01*
X123282500Y-108129587D01*
X123282500Y-106754412D01*
X123302185Y-106687373D01*
X123309555Y-106677097D01*
X123311810Y-106674267D01*
X123311816Y-106674262D01*
X123407789Y-106521522D01*
X123467368Y-106351255D01*
X123473549Y-106296396D01*
X123487565Y-106172003D01*
X123487565Y-106171997D01*
X123479345Y-106099046D01*
X123491399Y-106030224D01*
X123538748Y-105978845D01*
X123606358Y-105961220D01*
X123672764Y-105982946D01*
X123690246Y-105997481D01*
X132519298Y-114826533D01*
X132552783Y-114887856D01*
X132554837Y-114900330D01*
X132564630Y-114987249D01*
X132624210Y-115157521D01*
X132720184Y-115310262D01*
X132847738Y-115437816D01*
X133000478Y-115533789D01*
X133103963Y-115570000D01*
X133170745Y-115593368D01*
X133170750Y-115593369D01*
X133349996Y-115613565D01*
X133350000Y-115613565D01*
X133350004Y-115613565D01*
X133529249Y-115593369D01*
X133529252Y-115593368D01*
X133529255Y-115593368D01*
X133699522Y-115533789D01*
X133852262Y-115437816D01*
X133979816Y-115310262D01*
X134075789Y-115157522D01*
X134135368Y-114987255D01*
X134145162Y-114900330D01*
X134155565Y-114808003D01*
X134155565Y-114807996D01*
X134135369Y-114628750D01*
X134135368Y-114628745D01*
X134075789Y-114458478D01*
X133979816Y-114305738D01*
X133852262Y-114178184D01*
X133699521Y-114082210D01*
X133529249Y-114022630D01*
X133442330Y-114012837D01*
X133377916Y-113985770D01*
X133368533Y-113977298D01*
X124588819Y-105197584D01*
X124555334Y-105136261D01*
X124552500Y-105109903D01*
X124552500Y-103335280D01*
X124572185Y-103268241D01*
X124624989Y-103222486D01*
X124694147Y-103212542D01*
X124757703Y-103241567D01*
X124781492Y-103269306D01*
X124846184Y-103372262D01*
X124973738Y-103499816D01*
X125126478Y-103595789D01*
X125296745Y-103655368D01*
X125296750Y-103655369D01*
X125475996Y-103675565D01*
X125476000Y-103675565D01*
X125476004Y-103675565D01*
X125655249Y-103655369D01*
X125655252Y-103655368D01*
X125655255Y-103655368D01*
X125825522Y-103595789D01*
X125978262Y-103499816D01*
X126105816Y-103372262D01*
X126201789Y-103219522D01*
X126261368Y-103049255D01*
X126274604Y-102931783D01*
X126281565Y-102870003D01*
X126281565Y-102869996D01*
X126261369Y-102690750D01*
X126261368Y-102690745D01*
X126201788Y-102520476D01*
X126105815Y-102367737D01*
X125978262Y-102240184D01*
X125825523Y-102144211D01*
X125655254Y-102084631D01*
X125655249Y-102084630D01*
X125476004Y-102064435D01*
X125475996Y-102064435D01*
X125296232Y-102084689D01*
X125255487Y-102077552D01*
X125209687Y-102114847D01*
X125202606Y-102117571D01*
X125126479Y-102144209D01*
X124973739Y-102240183D01*
X124949191Y-102264731D01*
X124887867Y-102298215D01*
X124818175Y-102293229D01*
X124762243Y-102251357D01*
X124738291Y-102190931D01*
X124737369Y-102182750D01*
X124737366Y-102182737D01*
X124689197Y-102045078D01*
X124685635Y-101975299D01*
X124720363Y-101914672D01*
X124782357Y-101882444D01*
X124820120Y-101880903D01*
X124890378Y-101888819D01*
X124967997Y-101897565D01*
X124968000Y-101897565D01*
X124968003Y-101897565D01*
X125047673Y-101888588D01*
X125147255Y-101877368D01*
X125147256Y-101877367D01*
X125147766Y-101877310D01*
X125188512Y-101884446D01*
X125234313Y-101847151D01*
X125241395Y-101844427D01*
X125243643Y-101843640D01*
X125317522Y-101817789D01*
X125470262Y-101721816D01*
X125597816Y-101594262D01*
X125692857Y-101443004D01*
X125745192Y-101396714D01*
X125814245Y-101386066D01*
X125878094Y-101414441D01*
X125885532Y-101421296D01*
X126520610Y-102056374D01*
X126520620Y-102056385D01*
X126524950Y-102060715D01*
X126524951Y-102060716D01*
X126636755Y-102172520D01*
X126636757Y-102172521D01*
X126636761Y-102172524D01*
X126773306Y-102251357D01*
X126773687Y-102251577D01*
X126885490Y-102281534D01*
X126926413Y-102292500D01*
X126926414Y-102292500D01*
X134441331Y-102292500D01*
X134441347Y-102292501D01*
X134484999Y-102292501D01*
X134552038Y-102312186D01*
X134597793Y-102364990D01*
X134607737Y-102434148D01*
X134604774Y-102448594D01*
X134554938Y-102634586D01*
X134554936Y-102634596D01*
X134534341Y-102869999D01*
X134534341Y-102870000D01*
X134554936Y-103105403D01*
X134554938Y-103105413D01*
X134616094Y-103333655D01*
X134616096Y-103333659D01*
X134616097Y-103333663D01*
X134634096Y-103372262D01*
X134715965Y-103547830D01*
X134715967Y-103547834D01*
X134851501Y-103741395D01*
X134851506Y-103741402D01*
X135018597Y-103908493D01*
X135018603Y-103908498D01*
X135204158Y-104038425D01*
X135247783Y-104093002D01*
X135254977Y-104162500D01*
X135223454Y-104224855D01*
X135204158Y-104241575D01*
X135018597Y-104371505D01*
X134851505Y-104538597D01*
X134715965Y-104732169D01*
X134715964Y-104732171D01*
X134616098Y-104946335D01*
X134616094Y-104946344D01*
X134554938Y-105174586D01*
X134554936Y-105174596D01*
X134534341Y-105409999D01*
X134534341Y-105410000D01*
X134554936Y-105645403D01*
X134554938Y-105645413D01*
X134616094Y-105873655D01*
X134616096Y-105873659D01*
X134616097Y-105873663D01*
X134689103Y-106030224D01*
X134715965Y-106087830D01*
X134715967Y-106087834D01*
X134851501Y-106281395D01*
X134851506Y-106281402D01*
X135018597Y-106448493D01*
X135018603Y-106448498D01*
X135204158Y-106578425D01*
X135247783Y-106633002D01*
X135254977Y-106702500D01*
X135223454Y-106764855D01*
X135204158Y-106781575D01*
X135018597Y-106911505D01*
X134851505Y-107078597D01*
X134715965Y-107272169D01*
X134715964Y-107272171D01*
X134616098Y-107486335D01*
X134616094Y-107486344D01*
X134554938Y-107714586D01*
X134554936Y-107714596D01*
X134534341Y-107949999D01*
X134534341Y-107950000D01*
X134554936Y-108185403D01*
X134554938Y-108185413D01*
X134616094Y-108413655D01*
X134616096Y-108413659D01*
X134616097Y-108413663D01*
X134693575Y-108579815D01*
X134715965Y-108627830D01*
X134715967Y-108627834D01*
X134851501Y-108821395D01*
X134851506Y-108821402D01*
X135018597Y-108988493D01*
X135018603Y-108988498D01*
X135204158Y-109118425D01*
X135247783Y-109173002D01*
X135254977Y-109242500D01*
X135223454Y-109304855D01*
X135204158Y-109321575D01*
X135018597Y-109451505D01*
X134851505Y-109618597D01*
X134715965Y-109812169D01*
X134715964Y-109812171D01*
X134616098Y-110026335D01*
X134616094Y-110026344D01*
X134554938Y-110254586D01*
X134554936Y-110254596D01*
X134534341Y-110489999D01*
X134534341Y-110490000D01*
X134554936Y-110725403D01*
X134554938Y-110725413D01*
X134616094Y-110953655D01*
X134616096Y-110953659D01*
X134616097Y-110953663D01*
X134715965Y-111167830D01*
X134715967Y-111167834D01*
X134851501Y-111361395D01*
X134851506Y-111361402D01*
X135018597Y-111528493D01*
X135018603Y-111528498D01*
X135204158Y-111658425D01*
X135247783Y-111713002D01*
X135254977Y-111782500D01*
X135223454Y-111844855D01*
X135204158Y-111861575D01*
X135018597Y-111991505D01*
X134851505Y-112158597D01*
X134715965Y-112352169D01*
X134715964Y-112352171D01*
X134616098Y-112566335D01*
X134616094Y-112566344D01*
X134554938Y-112794586D01*
X134554936Y-112794596D01*
X134534341Y-113029999D01*
X134534341Y-113030000D01*
X134554936Y-113265403D01*
X134554938Y-113265413D01*
X134616094Y-113493655D01*
X134616096Y-113493659D01*
X134616097Y-113493663D01*
X134652729Y-113572220D01*
X134715965Y-113707830D01*
X134715967Y-113707834D01*
X134851501Y-113901395D01*
X134851506Y-113901402D01*
X135018597Y-114068493D01*
X135018603Y-114068498D01*
X135204158Y-114198425D01*
X135247783Y-114253002D01*
X135254977Y-114322500D01*
X135223454Y-114384855D01*
X135204158Y-114401575D01*
X135018597Y-114531505D01*
X134851505Y-114698597D01*
X134715965Y-114892169D01*
X134715964Y-114892171D01*
X134616098Y-115106335D01*
X134616094Y-115106344D01*
X134554938Y-115334586D01*
X134554936Y-115334596D01*
X134534341Y-115569999D01*
X134534341Y-115570000D01*
X134554936Y-115805403D01*
X134554938Y-115805413D01*
X134616094Y-116033655D01*
X134616096Y-116033659D01*
X134616097Y-116033663D01*
X134715965Y-116247830D01*
X134715967Y-116247834D01*
X134851501Y-116441395D01*
X134851506Y-116441402D01*
X135018597Y-116608493D01*
X135018603Y-116608498D01*
X135204594Y-116738730D01*
X135248219Y-116793307D01*
X135255413Y-116862805D01*
X135223890Y-116925160D01*
X135204595Y-116941880D01*
X135018922Y-117071890D01*
X135018920Y-117071891D01*
X134851891Y-117238920D01*
X134851886Y-117238926D01*
X134716400Y-117432420D01*
X134716399Y-117432422D01*
X134616570Y-117646507D01*
X134616567Y-117646513D01*
X134559364Y-117859999D01*
X134559364Y-117860000D01*
X135456988Y-117860000D01*
X135424075Y-117917007D01*
X135390000Y-118044174D01*
X135390000Y-118175826D01*
X135424075Y-118302993D01*
X135456988Y-118360000D01*
X134559364Y-118360000D01*
X134616567Y-118573486D01*
X134616570Y-118573492D01*
X134716399Y-118787578D01*
X134851894Y-118981082D01*
X135018917Y-119148105D01*
X135212421Y-119283600D01*
X135426507Y-119383429D01*
X135426516Y-119383433D01*
X135640000Y-119440634D01*
X135640000Y-118543012D01*
X135697007Y-118575925D01*
X135824174Y-118610000D01*
X135955826Y-118610000D01*
X136082993Y-118575925D01*
X136140000Y-118543012D01*
X136140000Y-119440633D01*
X136353483Y-119383433D01*
X136353492Y-119383429D01*
X136567579Y-119283599D01*
X136567585Y-119283595D01*
X136718376Y-119178010D01*
X136784582Y-119155682D01*
X136852349Y-119172692D01*
X136900163Y-119223639D01*
X136913500Y-119279584D01*
X136913500Y-121295500D01*
X136893815Y-121362539D01*
X136841011Y-121408294D01*
X136789500Y-121419500D01*
X112130500Y-121419500D01*
X112063461Y-121399815D01*
X112017706Y-121347011D01*
X112006500Y-121295500D01*
X112006500Y-119279584D01*
X112026185Y-119212545D01*
X112078989Y-119166790D01*
X112148147Y-119156846D01*
X112201624Y-119178010D01*
X112352414Y-119283595D01*
X112352420Y-119283599D01*
X112566507Y-119383429D01*
X112566516Y-119383433D01*
X112780000Y-119440634D01*
X112780000Y-118543012D01*
X112837007Y-118575925D01*
X112964174Y-118610000D01*
X113095826Y-118610000D01*
X113222993Y-118575925D01*
X113280000Y-118543012D01*
X113280000Y-119440633D01*
X113493483Y-119383433D01*
X113493492Y-119383429D01*
X113707578Y-119283600D01*
X113901082Y-119148105D01*
X114068105Y-118981082D01*
X114203600Y-118787578D01*
X114303429Y-118573492D01*
X114303432Y-118573486D01*
X114360636Y-118360000D01*
X113463012Y-118360000D01*
X113495925Y-118302993D01*
X113530000Y-118175826D01*
X113530000Y-118044174D01*
X113495925Y-117917007D01*
X113463012Y-117860000D01*
X114360636Y-117860000D01*
X114360635Y-117859999D01*
X114303432Y-117646513D01*
X114303429Y-117646507D01*
X114203600Y-117432422D01*
X114203599Y-117432420D01*
X114068113Y-117238926D01*
X114068108Y-117238920D01*
X113901078Y-117071890D01*
X113715405Y-116941879D01*
X113671780Y-116887302D01*
X113664588Y-116817804D01*
X113696110Y-116755449D01*
X113715406Y-116738730D01*
X113797106Y-116681523D01*
X113901401Y-116608495D01*
X114068495Y-116441401D01*
X114204035Y-116247830D01*
X114303903Y-116033663D01*
X114365063Y-115805408D01*
X114385659Y-115570000D01*
X114365063Y-115334592D01*
X114303903Y-115106337D01*
X114204035Y-114892171D01*
X114145101Y-114808003D01*
X114068494Y-114698597D01*
X113901402Y-114531506D01*
X113901396Y-114531501D01*
X113715842Y-114401575D01*
X113672217Y-114346998D01*
X113665023Y-114277500D01*
X113696546Y-114215145D01*
X113715842Y-114198425D01*
X113744749Y-114178184D01*
X113901401Y-114068495D01*
X114068495Y-113901401D01*
X114204035Y-113707830D01*
X114303903Y-113493663D01*
X114365063Y-113265408D01*
X114385659Y-113030000D01*
X114365063Y-112794592D01*
X114360082Y-112776003D01*
X117304435Y-112776003D01*
X117324630Y-112955249D01*
X117324631Y-112955254D01*
X117384211Y-113125523D01*
X117472104Y-113265403D01*
X117480184Y-113278262D01*
X117607738Y-113405816D01*
X117705472Y-113467226D01*
X117751763Y-113519561D01*
X117763500Y-113572220D01*
X117763500Y-115749587D01*
X117743815Y-115816626D01*
X117736450Y-115826896D01*
X117734186Y-115829734D01*
X117638211Y-115982476D01*
X117578631Y-116152745D01*
X117578630Y-116152750D01*
X117558435Y-116331996D01*
X117558435Y-116332003D01*
X117578630Y-116511249D01*
X117578631Y-116511254D01*
X117638211Y-116681523D01*
X117684662Y-116755449D01*
X117734184Y-116834262D01*
X117861738Y-116961816D01*
X118014478Y-117057789D01*
X118184745Y-117117368D01*
X118184750Y-117117369D01*
X118363996Y-117137565D01*
X118364000Y-117137565D01*
X118364004Y-117137565D01*
X118543249Y-117117369D01*
X118543252Y-117117368D01*
X118543255Y-117117368D01*
X118713522Y-117057789D01*
X118866262Y-116961816D01*
X118993816Y-116834262D01*
X119089789Y-116681522D01*
X119149368Y-116511255D01*
X119155549Y-116456396D01*
X119169565Y-116332003D01*
X119169565Y-116331996D01*
X119149369Y-116152750D01*
X119149368Y-116152745D01*
X119107699Y-116033663D01*
X119089789Y-115982478D01*
X118993816Y-115829738D01*
X118993814Y-115829736D01*
X118993813Y-115829734D01*
X118991550Y-115826896D01*
X118990659Y-115824715D01*
X118990111Y-115823842D01*
X118990264Y-115823745D01*
X118965144Y-115762209D01*
X118964500Y-115749587D01*
X118964500Y-112950945D01*
X118964498Y-112950936D01*
X118959644Y-112932818D01*
X118923577Y-112798215D01*
X118923573Y-112798208D01*
X118922710Y-112796123D01*
X118914049Y-112762548D01*
X118895369Y-112596750D01*
X118895368Y-112596745D01*
X118835788Y-112426476D01*
X118789099Y-112352171D01*
X118739816Y-112273738D01*
X118612262Y-112146184D01*
X118608156Y-112143604D01*
X118459523Y-112050211D01*
X118289254Y-111990631D01*
X118289249Y-111990630D01*
X118110004Y-111970435D01*
X118109996Y-111970435D01*
X117930750Y-111990630D01*
X117930745Y-111990631D01*
X117760476Y-112050211D01*
X117607737Y-112146184D01*
X117480184Y-112273737D01*
X117384211Y-112426476D01*
X117324631Y-112596745D01*
X117324630Y-112596750D01*
X117304435Y-112775996D01*
X117304435Y-112776003D01*
X114360082Y-112776003D01*
X114303903Y-112566337D01*
X114204035Y-112352171D01*
X114149116Y-112273737D01*
X114068494Y-112158597D01*
X113901402Y-111991506D01*
X113901396Y-111991501D01*
X113715842Y-111861575D01*
X113672217Y-111806998D01*
X113665023Y-111737500D01*
X113696546Y-111675145D01*
X113715842Y-111658425D01*
X113738026Y-111642891D01*
X113901401Y-111528495D01*
X114068495Y-111361401D01*
X114204035Y-111167830D01*
X114303903Y-110953663D01*
X114365063Y-110725408D01*
X114385659Y-110490000D01*
X114365063Y-110254592D01*
X114303903Y-110026337D01*
X114204035Y-109812171D01*
X114145101Y-109728003D01*
X114068494Y-109618597D01*
X113901402Y-109451506D01*
X113901396Y-109451501D01*
X113715842Y-109321575D01*
X113672217Y-109266998D01*
X113665023Y-109197500D01*
X113696546Y-109135145D01*
X113715842Y-109118425D01*
X113797106Y-109061523D01*
X113901401Y-108988495D01*
X114068495Y-108821401D01*
X114204035Y-108627830D01*
X114303903Y-108413663D01*
X114341341Y-108273937D01*
X114377705Y-108214279D01*
X114440552Y-108183749D01*
X114509928Y-108192043D01*
X114563806Y-108236528D01*
X114578157Y-108265077D01*
X114590209Y-108299519D01*
X114590211Y-108299522D01*
X114686184Y-108452262D01*
X114813738Y-108579816D01*
X114966478Y-108675789D01*
X115069952Y-108711996D01*
X115136745Y-108735368D01*
X115136750Y-108735369D01*
X115315996Y-108755565D01*
X115316000Y-108755565D01*
X115316004Y-108755565D01*
X115495249Y-108735369D01*
X115495252Y-108735368D01*
X115495255Y-108735368D01*
X115665522Y-108675789D01*
X115818262Y-108579816D01*
X115945816Y-108452262D01*
X116041789Y-108299522D01*
X116101368Y-108129255D01*
X116111161Y-108042329D01*
X116138226Y-107977918D01*
X116146690Y-107968543D01*
X119583821Y-104531413D01*
X119645142Y-104497930D01*
X119714834Y-104502914D01*
X119770767Y-104544786D01*
X119795184Y-104610250D01*
X119795500Y-104619096D01*
X119795500Y-109145587D01*
X119775815Y-109212626D01*
X119768450Y-109222896D01*
X119766186Y-109225734D01*
X119670211Y-109378476D01*
X119610631Y-109548745D01*
X119610630Y-109548750D01*
X119590435Y-109727996D01*
X119590435Y-109728003D01*
X119610630Y-109907249D01*
X119610631Y-109907254D01*
X119670211Y-110077523D01*
X119766184Y-110230262D01*
X119893738Y-110357816D01*
X120046478Y-110453789D01*
X120149963Y-110490000D01*
X120216745Y-110513368D01*
X120216750Y-110513369D01*
X120395996Y-110533565D01*
X120396000Y-110533565D01*
X120396004Y-110533565D01*
X120575249Y-110513369D01*
X120575252Y-110513368D01*
X120575255Y-110513368D01*
X120745522Y-110453789D01*
X120898262Y-110357816D01*
X121025816Y-110230262D01*
X121121789Y-110077522D01*
X121181368Y-109907255D01*
X121181369Y-109907249D01*
X121201565Y-109728003D01*
X121201565Y-109727996D01*
X121181369Y-109548750D01*
X121181368Y-109548745D01*
X121163390Y-109497368D01*
X121121789Y-109378478D01*
X121025816Y-109225738D01*
X121025814Y-109225736D01*
X121025813Y-109225734D01*
X121023550Y-109222896D01*
X121022659Y-109220715D01*
X121022111Y-109219842D01*
X121022264Y-109219745D01*
X120997144Y-109158209D01*
X120996500Y-109145587D01*
X120996500Y-103170096D01*
X121016185Y-103103057D01*
X121032814Y-103082420D01*
X122446535Y-101668698D01*
X122507856Y-101635215D01*
X122520311Y-101633163D01*
X122607255Y-101623368D01*
X122777522Y-101563789D01*
X122930262Y-101467816D01*
X123057816Y-101340262D01*
X123122506Y-101237307D01*
X123174841Y-101191017D01*
X123243894Y-101180369D01*
X123307743Y-101208744D01*
G37*
%TD.AperFunction*%
%TA.AperFunction,Conductor*%
G36*
X117667260Y-97698816D02*
G01*
X117704153Y-97736469D01*
X117725561Y-97770539D01*
X117734184Y-97784262D01*
X117734185Y-97784263D01*
X117736445Y-97787097D01*
X117737335Y-97789277D01*
X117737888Y-97790157D01*
X117737733Y-97790253D01*
X117762855Y-97851783D01*
X117763500Y-97864412D01*
X117763500Y-98477587D01*
X117743815Y-98544626D01*
X117736450Y-98554896D01*
X117734186Y-98557734D01*
X117638211Y-98710476D01*
X117578631Y-98880745D01*
X117578630Y-98880750D01*
X117558435Y-99059996D01*
X117558435Y-99060003D01*
X117578630Y-99239249D01*
X117578631Y-99239254D01*
X117638211Y-99409523D01*
X117734184Y-99562262D01*
X117861738Y-99689816D01*
X118014478Y-99785789D01*
X118184745Y-99845368D01*
X118184750Y-99845369D01*
X118363996Y-99865565D01*
X118364000Y-99865565D01*
X118364004Y-99865565D01*
X118543249Y-99845369D01*
X118543252Y-99845368D01*
X118543255Y-99845368D01*
X118713522Y-99785789D01*
X118866262Y-99689816D01*
X118993816Y-99562262D01*
X119058506Y-99459307D01*
X119110841Y-99413017D01*
X119179894Y-99402369D01*
X119243743Y-99430744D01*
X119282115Y-99489133D01*
X119287500Y-99525280D01*
X119287500Y-103077902D01*
X119267815Y-103144941D01*
X119251181Y-103165583D01*
X115297465Y-107119298D01*
X115236142Y-107152783D01*
X115223668Y-107154837D01*
X115136750Y-107164630D01*
X114966478Y-107224210D01*
X114813737Y-107320184D01*
X114686184Y-107447737D01*
X114590209Y-107600479D01*
X114578157Y-107634923D01*
X114537435Y-107691699D01*
X114472482Y-107717445D01*
X114403920Y-107703988D01*
X114353518Y-107655600D01*
X114341341Y-107626060D01*
X114334486Y-107600478D01*
X114303903Y-107486337D01*
X114204035Y-107272171D01*
X114170454Y-107224211D01*
X114068494Y-107078597D01*
X113901402Y-106911506D01*
X113901396Y-106911501D01*
X113715842Y-106781575D01*
X113672217Y-106726998D01*
X113665023Y-106657500D01*
X113696546Y-106595145D01*
X113715842Y-106578425D01*
X113797106Y-106521523D01*
X113901401Y-106448495D01*
X114068495Y-106281401D01*
X114204035Y-106087830D01*
X114303903Y-105873663D01*
X114341341Y-105733937D01*
X114377705Y-105674279D01*
X114440552Y-105643749D01*
X114509928Y-105652043D01*
X114563806Y-105696528D01*
X114578157Y-105725077D01*
X114590209Y-105759519D01*
X114590211Y-105759522D01*
X114686184Y-105912262D01*
X114813738Y-106039816D01*
X114966478Y-106135789D01*
X115069952Y-106171996D01*
X115136745Y-106195368D01*
X115136750Y-106195369D01*
X115315996Y-106215565D01*
X115316000Y-106215565D01*
X115316004Y-106215565D01*
X115495249Y-106195369D01*
X115495252Y-106195368D01*
X115495255Y-106195368D01*
X115665522Y-106135789D01*
X115818262Y-106039816D01*
X115945816Y-105912262D01*
X116041789Y-105759522D01*
X116101368Y-105589255D01*
X116106672Y-105542184D01*
X116121565Y-105410003D01*
X116121565Y-105409996D01*
X116101369Y-105230750D01*
X116101368Y-105230745D01*
X116089764Y-105197584D01*
X116041789Y-105060478D01*
X115945816Y-104907738D01*
X115945814Y-104907736D01*
X115945813Y-104907734D01*
X115943550Y-104904896D01*
X115942659Y-104902715D01*
X115942111Y-104901842D01*
X115942264Y-104901745D01*
X115917144Y-104840209D01*
X115916500Y-104827587D01*
X115916500Y-99106097D01*
X115936185Y-99039058D01*
X115952819Y-99018416D01*
X116493648Y-98477587D01*
X117112536Y-97858698D01*
X117173857Y-97825215D01*
X117186310Y-97823163D01*
X117273255Y-97813368D01*
X117443522Y-97753789D01*
X117533188Y-97697447D01*
X117600424Y-97678448D01*
X117667260Y-97698816D01*
G37*
%TD.AperFunction*%
%TA.AperFunction,Conductor*%
G36*
X139904539Y-45986185D02*
G01*
X139950294Y-46038989D01*
X139961500Y-46090500D01*
X139961500Y-54203162D01*
X139941815Y-54270201D01*
X139889011Y-54315956D01*
X139819853Y-54325900D01*
X139756297Y-54296875D01*
X139722939Y-54250615D01*
X139703712Y-54204199D01*
X139703712Y-54204198D01*
X139538522Y-53905308D01*
X139538520Y-53905306D01*
X139538519Y-53905303D01*
X139538516Y-53905298D01*
X139340907Y-53626796D01*
X139340906Y-53626795D01*
X139340904Y-53626792D01*
X139113346Y-53372154D01*
X138858708Y-53144596D01*
X138858705Y-53144594D01*
X138858703Y-53144592D01*
X138580201Y-52946983D01*
X138580196Y-52946980D01*
X138281669Y-52781991D01*
X138281302Y-52781788D01*
X137965796Y-52651101D01*
X137881448Y-52626800D01*
X137637646Y-52556562D01*
X137637637Y-52556560D01*
X137300971Y-52499358D01*
X137300959Y-52499356D01*
X136960000Y-52480209D01*
X136619040Y-52499356D01*
X136619028Y-52499358D01*
X136282362Y-52556560D01*
X136282353Y-52556562D01*
X135954207Y-52651100D01*
X135954204Y-52651101D01*
X135920166Y-52665200D01*
X135638699Y-52781787D01*
X135339803Y-52946980D01*
X135339798Y-52946983D01*
X135061296Y-53144592D01*
X134806654Y-53372154D01*
X134579092Y-53626796D01*
X134381483Y-53905298D01*
X134381480Y-53905303D01*
X134216287Y-54204199D01*
X134085600Y-54519707D01*
X133991062Y-54847853D01*
X133991060Y-54847862D01*
X133933858Y-55184528D01*
X133933856Y-55184540D01*
X133914709Y-55525500D01*
X133933856Y-55866459D01*
X133933858Y-55866471D01*
X133967424Y-56064026D01*
X133991061Y-56203141D01*
X134085601Y-56531296D01*
X134188948Y-56780798D01*
X134216287Y-56846800D01*
X134381480Y-57145696D01*
X134381483Y-57145701D01*
X134572397Y-57414767D01*
X134579096Y-57424208D01*
X134806654Y-57678846D01*
X135061292Y-57906404D01*
X135061295Y-57906406D01*
X135061296Y-57906407D01*
X135339798Y-58104016D01*
X135339803Y-58104019D01*
X135339806Y-58104020D01*
X135339808Y-58104022D01*
X135638698Y-58269212D01*
X135954204Y-58399899D01*
X136282359Y-58494439D01*
X136619036Y-58551643D01*
X136960000Y-58570791D01*
X137300964Y-58551643D01*
X137637641Y-58494439D01*
X137965796Y-58399899D01*
X138281302Y-58269212D01*
X138580192Y-58104022D01*
X138580197Y-58104018D01*
X138580201Y-58104016D01*
X138759549Y-57976761D01*
X138858708Y-57906404D01*
X139113346Y-57678846D01*
X139340904Y-57424208D01*
X139511780Y-57183381D01*
X139538516Y-57145701D01*
X139538519Y-57145696D01*
X139538522Y-57145692D01*
X139703712Y-56846802D01*
X139722939Y-56800385D01*
X139766780Y-56745981D01*
X139833074Y-56723916D01*
X139900773Y-56741195D01*
X139948384Y-56792332D01*
X139961500Y-56847837D01*
X139961500Y-57746155D01*
X139945162Y-57807676D01*
X136980200Y-62996358D01*
X136979927Y-62996834D01*
X136947584Y-63052855D01*
X136947354Y-63053420D01*
X136947115Y-63054001D01*
X136946768Y-63054837D01*
X136930323Y-63117317D01*
X136930182Y-63117847D01*
X136913488Y-63180148D01*
X136913374Y-63181051D01*
X136913305Y-63181579D01*
X136913210Y-63182294D01*
X136913499Y-63246993D01*
X136913500Y-63247545D01*
X136913500Y-67184902D01*
X136893815Y-67251941D01*
X136841011Y-67297696D01*
X136771853Y-67307640D01*
X136708297Y-67278615D01*
X136701819Y-67272583D01*
X130789590Y-61360355D01*
X130789588Y-61360352D01*
X130670717Y-61241481D01*
X130670709Y-61241475D01*
X130568936Y-61182717D01*
X130568934Y-61182716D01*
X130533790Y-61162425D01*
X130533789Y-61162424D01*
X130521263Y-61159067D01*
X130381057Y-61121499D01*
X130222943Y-61121499D01*
X130215347Y-61121499D01*
X130215331Y-61121500D01*
X128852412Y-61121500D01*
X128785373Y-61101815D01*
X128775097Y-61094445D01*
X128772263Y-61092185D01*
X128772262Y-61092184D01*
X128715496Y-61056515D01*
X128619523Y-60996211D01*
X128449254Y-60936631D01*
X128449249Y-60936630D01*
X128270004Y-60916435D01*
X128269996Y-60916435D01*
X128090750Y-60936630D01*
X128090745Y-60936631D01*
X127920476Y-60996211D01*
X127767737Y-61092184D01*
X127640184Y-61219737D01*
X127544211Y-61372476D01*
X127484631Y-61542745D01*
X127484630Y-61542749D01*
X127467046Y-61698820D01*
X127439979Y-61763234D01*
X127382385Y-61802789D01*
X127312548Y-61804926D01*
X127256145Y-61772617D01*
X127097883Y-61614355D01*
X127097881Y-61614352D01*
X126979010Y-61495481D01*
X126979002Y-61495475D01*
X126877229Y-61436717D01*
X126877227Y-61436716D01*
X126842083Y-61416425D01*
X126842082Y-61416424D01*
X126829556Y-61413067D01*
X126689350Y-61375499D01*
X126531236Y-61375499D01*
X126523640Y-61375499D01*
X126523624Y-61375500D01*
X121740412Y-61375500D01*
X121673373Y-61355815D01*
X121663097Y-61348445D01*
X121660263Y-61346185D01*
X121660262Y-61346184D01*
X121603496Y-61310515D01*
X121507523Y-61250211D01*
X121337254Y-61190631D01*
X121337249Y-61190630D01*
X121158004Y-61170435D01*
X121157996Y-61170435D01*
X120978750Y-61190630D01*
X120978745Y-61190631D01*
X120808476Y-61250211D01*
X120655737Y-61346184D01*
X120528184Y-61473737D01*
X120432211Y-61626476D01*
X120372631Y-61796745D01*
X120372630Y-61796750D01*
X120352435Y-61975996D01*
X120352435Y-61976003D01*
X120372630Y-62155249D01*
X120372631Y-62155254D01*
X120432211Y-62325523D01*
X120512702Y-62453623D01*
X120528184Y-62478262D01*
X120655738Y-62605816D01*
X120808478Y-62701789D01*
X120978745Y-62761368D01*
X120978750Y-62761369D01*
X121157996Y-62781565D01*
X121158000Y-62781565D01*
X121158004Y-62781565D01*
X121337249Y-62761369D01*
X121337252Y-62761368D01*
X121337255Y-62761368D01*
X121507522Y-62701789D01*
X121660262Y-62605816D01*
X121660267Y-62605810D01*
X121663097Y-62603555D01*
X121665275Y-62602665D01*
X121666158Y-62602111D01*
X121666255Y-62602265D01*
X121727783Y-62577145D01*
X121740412Y-62576500D01*
X126310196Y-62576500D01*
X126377235Y-62596185D01*
X126397877Y-62612819D01*
X132107968Y-68322911D01*
X132141453Y-68384234D01*
X132136469Y-68453926D01*
X132094597Y-68509859D01*
X132085565Y-68516019D01*
X132016343Y-68558879D01*
X131852133Y-68708575D01*
X131730212Y-68870027D01*
X131674103Y-68911663D01*
X131631258Y-68919300D01*
X131061140Y-68919300D01*
X131020219Y-68930264D01*
X131020219Y-68930265D01*
X130982951Y-68940251D01*
X130908414Y-68960223D01*
X130908409Y-68960226D01*
X130771490Y-69039275D01*
X130771482Y-69039281D01*
X130659678Y-69151086D01*
X115043465Y-84767298D01*
X114982142Y-84800783D01*
X114969668Y-84802837D01*
X114882750Y-84812630D01*
X114712478Y-84872210D01*
X114559737Y-84968184D01*
X114432184Y-85095737D01*
X114336211Y-85248476D01*
X114276631Y-85418745D01*
X114276630Y-85418750D01*
X114256435Y-85597996D01*
X114256435Y-85598003D01*
X114276630Y-85777249D01*
X114276631Y-85777254D01*
X114336211Y-85947523D01*
X114432184Y-86100262D01*
X114559738Y-86227816D01*
X114712478Y-86323789D01*
X114882745Y-86383368D01*
X114969669Y-86393161D01*
X115034080Y-86420226D01*
X115043465Y-86428700D01*
X123315181Y-94700416D01*
X123348666Y-94761739D01*
X123351500Y-94788097D01*
X123351500Y-100372719D01*
X123331815Y-100439758D01*
X123279011Y-100485513D01*
X123209853Y-100495457D01*
X123146297Y-100466432D01*
X123122506Y-100438691D01*
X123057815Y-100335737D01*
X122930262Y-100208184D01*
X122777523Y-100112211D01*
X122607254Y-100052631D01*
X122607249Y-100052630D01*
X122428004Y-100032435D01*
X122427996Y-100032435D01*
X122248750Y-100052630D01*
X122248745Y-100052631D01*
X122078476Y-100112211D01*
X121925739Y-100208183D01*
X121839231Y-100294691D01*
X121777907Y-100328175D01*
X121708216Y-100323191D01*
X121652282Y-100281319D01*
X121634509Y-100247964D01*
X121629790Y-100234480D01*
X121613267Y-100208184D01*
X121533816Y-100081738D01*
X121533814Y-100081736D01*
X121533813Y-100081734D01*
X121531550Y-100078896D01*
X121530659Y-100076715D01*
X121530111Y-100075842D01*
X121530264Y-100075745D01*
X121505144Y-100014209D01*
X121504500Y-100001587D01*
X121504500Y-97423707D01*
X121524185Y-97356668D01*
X121576989Y-97310913D01*
X121587546Y-97306665D01*
X121591251Y-97305368D01*
X121591255Y-97305368D01*
X121761522Y-97245789D01*
X121914262Y-97149816D01*
X122041816Y-97022262D01*
X122137789Y-96869522D01*
X122197368Y-96699255D01*
X122217565Y-96520000D01*
X122216918Y-96514262D01*
X122197369Y-96340750D01*
X122197368Y-96340745D01*
X122137788Y-96170476D01*
X122069134Y-96061215D01*
X122041816Y-96017738D01*
X121914262Y-95890184D01*
X121761523Y-95794211D01*
X121591254Y-95734631D01*
X121591249Y-95734630D01*
X121425450Y-95715950D01*
X121391877Y-95707290D01*
X121389787Y-95706424D01*
X121389785Y-95706423D01*
X121237057Y-95665499D01*
X121078943Y-95665499D01*
X121071347Y-95665499D01*
X121071331Y-95665500D01*
X115148669Y-95665500D01*
X115148653Y-95665499D01*
X115141057Y-95665499D01*
X114982943Y-95665499D01*
X114875587Y-95694265D01*
X114830210Y-95706424D01*
X114830209Y-95706425D01*
X114795066Y-95726716D01*
X114795064Y-95726717D01*
X114693290Y-95785475D01*
X114693282Y-95785481D01*
X114581478Y-95897286D01*
X114027465Y-96451298D01*
X113966142Y-96484783D01*
X113953668Y-96486837D01*
X113866750Y-96496630D01*
X113696478Y-96556210D01*
X113543737Y-96652184D01*
X113416184Y-96779737D01*
X113320211Y-96932476D01*
X113260631Y-97102745D01*
X113260630Y-97102750D01*
X113240435Y-97281996D01*
X113240435Y-97282003D01*
X113260630Y-97461249D01*
X113260631Y-97461254D01*
X113320211Y-97631523D01*
X113416183Y-97784260D01*
X113416184Y-97784262D01*
X113543738Y-97911816D01*
X113696478Y-98007789D01*
X113866745Y-98067368D01*
X113866750Y-98067369D01*
X114045996Y-98087565D01*
X114046000Y-98087565D01*
X114046004Y-98087565D01*
X114225249Y-98067369D01*
X114225252Y-98067368D01*
X114225255Y-98067368D01*
X114395522Y-98007789D01*
X114548262Y-97911816D01*
X114675816Y-97784262D01*
X114771789Y-97631522D01*
X114831368Y-97461255D01*
X114841161Y-97374329D01*
X114868226Y-97309918D01*
X114876690Y-97300543D01*
X115274416Y-96902819D01*
X115335739Y-96869334D01*
X115362097Y-96866500D01*
X116106901Y-96866500D01*
X116173940Y-96886185D01*
X116219695Y-96938989D01*
X116229639Y-97008147D01*
X116200614Y-97071703D01*
X116194582Y-97078181D01*
X114947286Y-98325478D01*
X114835481Y-98437282D01*
X114787310Y-98520717D01*
X114756424Y-98574212D01*
X114756423Y-98574213D01*
X114735961Y-98650579D01*
X114715499Y-98726943D01*
X114715499Y-98726945D01*
X114715499Y-98895046D01*
X114715500Y-98895059D01*
X114715500Y-104827587D01*
X114695815Y-104894626D01*
X114688450Y-104904896D01*
X114686186Y-104907734D01*
X114590209Y-105060479D01*
X114578157Y-105094923D01*
X114537435Y-105151699D01*
X114472482Y-105177445D01*
X114403920Y-105163988D01*
X114353518Y-105115600D01*
X114341341Y-105086060D01*
X114334486Y-105060478D01*
X114303903Y-104946337D01*
X114204035Y-104732171D01*
X114124860Y-104619096D01*
X114068494Y-104538597D01*
X113901402Y-104371506D01*
X113901396Y-104371501D01*
X113715842Y-104241575D01*
X113672217Y-104186998D01*
X113665023Y-104117500D01*
X113696546Y-104055145D01*
X113715842Y-104038425D01*
X113738026Y-104022891D01*
X113901401Y-103908495D01*
X114068495Y-103741401D01*
X114204035Y-103547830D01*
X114303903Y-103333663D01*
X114365063Y-103105408D01*
X114385659Y-102870000D01*
X114365063Y-102634592D01*
X114303903Y-102406337D01*
X114204035Y-102192171D01*
X114197438Y-102182750D01*
X114068496Y-101998600D01*
X114045195Y-101975299D01*
X113946567Y-101876671D01*
X113913084Y-101815351D01*
X113918068Y-101745659D01*
X113959939Y-101689725D01*
X113990915Y-101672810D01*
X114122331Y-101623796D01*
X114237546Y-101537546D01*
X114323796Y-101422331D01*
X114374091Y-101287483D01*
X114380500Y-101227873D01*
X114380499Y-99432128D01*
X114374091Y-99372517D01*
X114324385Y-99239249D01*
X114323797Y-99237671D01*
X114323793Y-99237664D01*
X114237547Y-99122455D01*
X114237544Y-99122452D01*
X114122335Y-99036206D01*
X114122328Y-99036202D01*
X113987482Y-98985908D01*
X113987483Y-98985908D01*
X113927883Y-98979501D01*
X113927881Y-98979500D01*
X113927873Y-98979500D01*
X113927865Y-98979500D01*
X112130500Y-98979500D01*
X112063461Y-98959815D01*
X112017706Y-98907011D01*
X112006500Y-98855500D01*
X112006500Y-63247544D01*
X112006501Y-63246992D01*
X112006789Y-63182337D01*
X112006787Y-63182332D01*
X112006788Y-63182307D01*
X112006706Y-63181677D01*
X112006634Y-63181114D01*
X112006512Y-63180154D01*
X111989795Y-63117765D01*
X111989740Y-63117558D01*
X111973247Y-63054892D01*
X111973245Y-63054888D01*
X111973235Y-63054850D01*
X111972905Y-63054052D01*
X111972711Y-63053582D01*
X111972408Y-63052842D01*
X111972392Y-63052814D01*
X111939988Y-62996690D01*
X109367273Y-58494437D01*
X108974838Y-57807675D01*
X108958500Y-57746154D01*
X108958500Y-56847837D01*
X108978185Y-56780798D01*
X109030989Y-56735043D01*
X109100147Y-56725099D01*
X109163703Y-56754124D01*
X109197061Y-56800385D01*
X109216284Y-56846795D01*
X109216286Y-56846799D01*
X109381480Y-57145696D01*
X109381483Y-57145701D01*
X109572397Y-57414767D01*
X109579096Y-57424208D01*
X109806654Y-57678846D01*
X110061292Y-57906404D01*
X110061295Y-57906406D01*
X110061296Y-57906407D01*
X110339798Y-58104016D01*
X110339803Y-58104019D01*
X110339806Y-58104020D01*
X110339808Y-58104022D01*
X110638698Y-58269212D01*
X110954204Y-58399899D01*
X111282359Y-58494439D01*
X111619036Y-58551643D01*
X111960000Y-58570791D01*
X112300964Y-58551643D01*
X112637641Y-58494439D01*
X112965796Y-58399899D01*
X113281302Y-58269212D01*
X113580192Y-58104022D01*
X113580197Y-58104018D01*
X113580201Y-58104016D01*
X113759549Y-57976761D01*
X113820985Y-57933170D01*
X117479700Y-57933170D01*
X117479701Y-57933176D01*
X117486108Y-57992783D01*
X117536402Y-58127628D01*
X117536406Y-58127635D01*
X117622652Y-58242844D01*
X117622655Y-58242847D01*
X117737864Y-58329093D01*
X117737871Y-58329097D01*
X117872717Y-58379391D01*
X117872716Y-58379391D01*
X117879644Y-58380135D01*
X117932327Y-58385800D01*
X119907672Y-58385799D01*
X119967283Y-58379391D01*
X120102131Y-58329096D01*
X120217346Y-58242846D01*
X120303596Y-58127631D01*
X120353891Y-57992783D01*
X120360300Y-57933173D01*
X120360299Y-57933155D01*
X120360468Y-57931593D01*
X120387205Y-57867041D01*
X120444597Y-57827192D01*
X120514422Y-57824697D01*
X120574512Y-57860349D01*
X120574983Y-57860858D01*
X120711168Y-58008795D01*
X120899531Y-58155403D01*
X121109455Y-58269009D01*
X121335216Y-58346512D01*
X121570653Y-58385800D01*
X121570654Y-58385800D01*
X121809346Y-58385800D01*
X121809347Y-58385800D01*
X122044784Y-58346512D01*
X122270545Y-58269009D01*
X122480469Y-58155403D01*
X122668832Y-58008795D01*
X122830494Y-57833182D01*
X122961047Y-57633356D01*
X122961712Y-57631840D01*
X122962150Y-57631318D01*
X122963489Y-57628845D01*
X122963997Y-57629120D01*
X123006663Y-57578350D01*
X123073397Y-57557654D01*
X123140727Y-57576323D01*
X123187275Y-57628429D01*
X123188830Y-57631834D01*
X123189394Y-57633119D01*
X123280055Y-57771888D01*
X123970504Y-57081440D01*
X123986619Y-57141581D01*
X124053498Y-57257420D01*
X124148080Y-57352002D01*
X124263919Y-57418881D01*
X124324057Y-57434995D01*
X123632840Y-58126212D01*
X123632840Y-58126213D01*
X123669802Y-58154982D01*
X123669807Y-58154985D01*
X123879650Y-58268546D01*
X123879660Y-58268551D01*
X124105335Y-58346025D01*
X124340696Y-58385300D01*
X124579304Y-58385300D01*
X124814664Y-58346025D01*
X125040339Y-58268551D01*
X125040349Y-58268546D01*
X125250191Y-58154986D01*
X125250197Y-58154981D01*
X125287158Y-58126213D01*
X125287159Y-58126211D01*
X124595942Y-57434994D01*
X124656081Y-57418881D01*
X124771920Y-57352002D01*
X124866502Y-57257420D01*
X124933381Y-57141581D01*
X124949495Y-57081442D01*
X125639942Y-57771889D01*
X125730605Y-57633119D01*
X125731165Y-57631844D01*
X125731536Y-57631402D01*
X125733049Y-57628607D01*
X125733623Y-57628918D01*
X125776115Y-57578353D01*
X125842849Y-57557655D01*
X125910179Y-57576322D01*
X125956728Y-57628427D01*
X125958278Y-57631819D01*
X125958950Y-57633351D01*
X125958952Y-57633354D01*
X125958953Y-57633356D01*
X126089506Y-57833182D01*
X126251168Y-58008795D01*
X126439531Y-58155403D01*
X126649455Y-58269009D01*
X126875216Y-58346512D01*
X127110653Y-58385800D01*
X127110654Y-58385800D01*
X127349346Y-58385800D01*
X127349347Y-58385800D01*
X127584784Y-58346512D01*
X127810545Y-58269009D01*
X128020469Y-58155403D01*
X128208832Y-58008795D01*
X128370494Y-57833182D01*
X128501047Y-57633356D01*
X128501442Y-57632454D01*
X128501704Y-57632143D01*
X128503489Y-57628845D01*
X128504167Y-57629212D01*
X128546396Y-57578968D01*
X128613131Y-57558275D01*
X128680460Y-57576947D01*
X128727005Y-57629056D01*
X128728552Y-57632443D01*
X128728953Y-57633356D01*
X128859506Y-57833182D01*
X129021168Y-58008795D01*
X129209531Y-58155403D01*
X129419455Y-58269009D01*
X129645216Y-58346512D01*
X129880653Y-58385800D01*
X129880654Y-58385800D01*
X130119346Y-58385800D01*
X130119347Y-58385800D01*
X130354784Y-58346512D01*
X130580545Y-58269009D01*
X130790469Y-58155403D01*
X130978832Y-58008795D01*
X131140494Y-57833182D01*
X131271047Y-57633356D01*
X131366929Y-57414767D01*
X131425525Y-57183378D01*
X131428647Y-57145701D01*
X131445236Y-56945505D01*
X131445236Y-56945494D01*
X131425526Y-56707630D01*
X131425524Y-56707618D01*
X131366929Y-56476232D01*
X131295179Y-56312660D01*
X131271047Y-56257644D01*
X131140494Y-56057818D01*
X130978832Y-55882205D01*
X130790469Y-55735597D01*
X130685237Y-55678648D01*
X130580546Y-55621991D01*
X130580541Y-55621989D01*
X130354786Y-55544488D01*
X130197826Y-55518296D01*
X130119347Y-55505200D01*
X129880653Y-55505200D01*
X129821793Y-55515022D01*
X129645213Y-55544488D01*
X129419458Y-55621989D01*
X129419453Y-55621991D01*
X129209529Y-55735598D01*
X129021169Y-55882204D01*
X128859506Y-56057817D01*
X128728951Y-56257646D01*
X128728555Y-56258551D01*
X128728292Y-56258863D01*
X128726511Y-56262155D01*
X128725833Y-56261788D01*
X128683597Y-56312036D01*
X128616861Y-56332724D01*
X128549533Y-56314048D01*
X128502991Y-56261936D01*
X128501445Y-56258551D01*
X128501048Y-56257646D01*
X128410537Y-56119109D01*
X128370494Y-56057818D01*
X128208832Y-55882205D01*
X128020469Y-55735597D01*
X127915237Y-55678648D01*
X127810546Y-55621991D01*
X127810541Y-55621989D01*
X127584786Y-55544488D01*
X127427826Y-55518296D01*
X127349347Y-55505200D01*
X127110653Y-55505200D01*
X127051793Y-55515022D01*
X126875213Y-55544488D01*
X126649458Y-55621989D01*
X126649453Y-55621991D01*
X126439529Y-55735598D01*
X126251169Y-55882204D01*
X126089506Y-56057817D01*
X125958949Y-56257649D01*
X125958275Y-56259187D01*
X125957832Y-56259713D01*
X125956511Y-56262155D01*
X125956008Y-56261882D01*
X125913310Y-56312665D01*
X125846571Y-56333344D01*
X125779246Y-56314659D01*
X125732711Y-56262541D01*
X125731168Y-56259162D01*
X125730605Y-56257879D01*
X125639942Y-56119109D01*
X124949494Y-56809557D01*
X124933381Y-56749419D01*
X124866502Y-56633580D01*
X124771920Y-56538998D01*
X124656081Y-56472119D01*
X124595941Y-56456004D01*
X125287158Y-55764786D01*
X125287158Y-55764784D01*
X125250203Y-55736021D01*
X125250192Y-55736014D01*
X125040349Y-55622453D01*
X125040339Y-55622448D01*
X124814664Y-55544974D01*
X124579304Y-55505700D01*
X124340696Y-55505700D01*
X124105335Y-55544974D01*
X123879660Y-55622448D01*
X123879655Y-55622450D01*
X123669804Y-55736016D01*
X123632839Y-55764786D01*
X124324058Y-56456004D01*
X124263919Y-56472119D01*
X124148080Y-56538998D01*
X124053498Y-56633580D01*
X123986619Y-56749419D01*
X123970504Y-56809558D01*
X123280056Y-56119110D01*
X123189392Y-56257883D01*
X123189389Y-56257888D01*
X123188824Y-56259178D01*
X123188452Y-56259619D01*
X123186949Y-56262398D01*
X123186377Y-56262088D01*
X123143863Y-56312660D01*
X123077125Y-56333344D01*
X123009799Y-56314664D01*
X122963260Y-56262549D01*
X122961718Y-56259172D01*
X122961049Y-56257649D01*
X122961048Y-56257647D01*
X122961047Y-56257644D01*
X122830494Y-56057818D01*
X122668832Y-55882205D01*
X122480469Y-55735597D01*
X122375237Y-55678648D01*
X122270546Y-55621991D01*
X122270541Y-55621989D01*
X122044786Y-55544488D01*
X121887826Y-55518296D01*
X121809347Y-55505200D01*
X121570653Y-55505200D01*
X121511793Y-55515022D01*
X121335213Y-55544488D01*
X121109458Y-55621989D01*
X121109453Y-55621991D01*
X120899529Y-55735598D01*
X120711169Y-55882204D01*
X120574988Y-56030136D01*
X120515101Y-56066127D01*
X120445262Y-56064026D01*
X120387646Y-56024502D01*
X120360545Y-55960102D01*
X120360468Y-55959405D01*
X120360299Y-55957832D01*
X120360299Y-55957828D01*
X120353891Y-55898217D01*
X120303596Y-55763369D01*
X120289179Y-55744111D01*
X120264762Y-55678648D01*
X120279613Y-55610375D01*
X120329017Y-55560969D01*
X120388446Y-55545800D01*
X120429346Y-55545800D01*
X120429347Y-55545800D01*
X120664784Y-55506512D01*
X120890545Y-55429009D01*
X121100469Y-55315403D01*
X121288832Y-55168795D01*
X121450494Y-54993182D01*
X121581047Y-54793356D01*
X121581442Y-54792454D01*
X121581704Y-54792143D01*
X121583489Y-54788845D01*
X121584167Y-54789212D01*
X121626396Y-54738968D01*
X121693131Y-54718275D01*
X121760460Y-54736947D01*
X121807005Y-54789056D01*
X121808552Y-54792443D01*
X121808953Y-54793356D01*
X121939506Y-54993182D01*
X122101168Y-55168795D01*
X122289531Y-55315403D01*
X122499455Y-55429009D01*
X122725216Y-55506512D01*
X122960653Y-55545800D01*
X122960654Y-55545800D01*
X123199346Y-55545800D01*
X123199347Y-55545800D01*
X123434784Y-55506512D01*
X123660545Y-55429009D01*
X123870469Y-55315403D01*
X124058832Y-55168795D01*
X124220494Y-54993182D01*
X124351047Y-54793356D01*
X124351049Y-54793352D01*
X124353852Y-54789062D01*
X124354789Y-54789674D01*
X124400155Y-54743958D01*
X124468370Y-54728844D01*
X124533928Y-54753009D01*
X124565522Y-54789470D01*
X124566148Y-54789062D01*
X124568951Y-54793352D01*
X124568953Y-54793356D01*
X124699506Y-54993182D01*
X124861168Y-55168795D01*
X125049531Y-55315403D01*
X125259455Y-55429009D01*
X125485216Y-55506512D01*
X125720653Y-55545800D01*
X125720654Y-55545800D01*
X125959346Y-55545800D01*
X125959347Y-55545800D01*
X126194784Y-55506512D01*
X126420545Y-55429009D01*
X126630469Y-55315403D01*
X126818832Y-55168795D01*
X126980494Y-54993182D01*
X127111047Y-54793356D01*
X127111442Y-54792454D01*
X127111704Y-54792143D01*
X127113489Y-54788845D01*
X127114167Y-54789212D01*
X127156396Y-54738968D01*
X127223131Y-54718275D01*
X127290460Y-54736947D01*
X127337005Y-54789056D01*
X127338552Y-54792443D01*
X127338953Y-54793356D01*
X127469506Y-54993182D01*
X127631168Y-55168795D01*
X127819531Y-55315403D01*
X128029455Y-55429009D01*
X128255216Y-55506512D01*
X128490653Y-55545800D01*
X128490654Y-55545800D01*
X128729346Y-55545800D01*
X128729347Y-55545800D01*
X128964784Y-55506512D01*
X129190545Y-55429009D01*
X129400469Y-55315403D01*
X129588832Y-55168795D01*
X129750494Y-54993182D01*
X129881047Y-54793356D01*
X129976929Y-54574767D01*
X130035525Y-54343378D01*
X130036875Y-54327083D01*
X130055236Y-54105505D01*
X130055236Y-54105494D01*
X130035526Y-53867630D01*
X130035524Y-53867618D01*
X129976929Y-53636232D01*
X129905788Y-53474048D01*
X129881047Y-53417644D01*
X129750494Y-53217818D01*
X129588832Y-53042205D01*
X129400469Y-52895597D01*
X129304152Y-52843472D01*
X129190546Y-52781991D01*
X129190541Y-52781989D01*
X128964786Y-52704488D01*
X128807826Y-52678296D01*
X128729347Y-52665200D01*
X128490653Y-52665200D01*
X128431793Y-52675022D01*
X128255213Y-52704488D01*
X128029458Y-52781989D01*
X128029453Y-52781991D01*
X127819529Y-52895598D01*
X127631169Y-53042204D01*
X127469506Y-53217817D01*
X127338951Y-53417646D01*
X127338555Y-53418551D01*
X127338292Y-53418863D01*
X127336511Y-53422155D01*
X127335833Y-53421788D01*
X127293597Y-53472036D01*
X127226861Y-53492724D01*
X127159533Y-53474048D01*
X127112991Y-53421936D01*
X127111445Y-53418551D01*
X127111048Y-53417646D01*
X126980493Y-53217817D01*
X126818832Y-53042205D01*
X126630469Y-52895597D01*
X126534152Y-52843472D01*
X126420546Y-52781991D01*
X126420541Y-52781989D01*
X126194786Y-52704488D01*
X126037826Y-52678296D01*
X125959347Y-52665200D01*
X125720653Y-52665200D01*
X125661793Y-52675022D01*
X125485213Y-52704488D01*
X125259458Y-52781989D01*
X125259453Y-52781991D01*
X125049529Y-52895598D01*
X124861169Y-53042204D01*
X124699506Y-53217817D01*
X124566148Y-53421938D01*
X124565212Y-53421326D01*
X124519834Y-53467047D01*
X124451618Y-53482154D01*
X124386062Y-53457983D01*
X124354476Y-53421530D01*
X124353852Y-53421938D01*
X124321326Y-53372154D01*
X124220494Y-53217818D01*
X124058832Y-53042205D01*
X123870469Y-52895597D01*
X123774152Y-52843472D01*
X123660546Y-52781991D01*
X123660541Y-52781989D01*
X123434786Y-52704488D01*
X123277826Y-52678296D01*
X123199347Y-52665200D01*
X122960653Y-52665200D01*
X122901793Y-52675022D01*
X122725213Y-52704488D01*
X122499458Y-52781989D01*
X122499453Y-52781991D01*
X122289529Y-52895598D01*
X122101169Y-53042204D01*
X121939506Y-53217817D01*
X121808951Y-53417646D01*
X121808555Y-53418551D01*
X121808292Y-53418863D01*
X121806511Y-53422155D01*
X121805833Y-53421788D01*
X121763597Y-53472036D01*
X121696861Y-53492724D01*
X121629533Y-53474048D01*
X121582991Y-53421936D01*
X121581445Y-53418551D01*
X121581048Y-53417646D01*
X121450493Y-53217817D01*
X121288832Y-53042205D01*
X121100469Y-52895597D01*
X121004152Y-52843472D01*
X120890546Y-52781991D01*
X120890541Y-52781989D01*
X120664786Y-52704488D01*
X120507826Y-52678296D01*
X120429347Y-52665200D01*
X120190653Y-52665200D01*
X120131793Y-52675022D01*
X119955213Y-52704488D01*
X119729458Y-52781989D01*
X119729453Y-52781991D01*
X119519529Y-52895598D01*
X119331169Y-53042204D01*
X119169506Y-53217817D01*
X119038951Y-53417647D01*
X118943070Y-53636232D01*
X118884475Y-53867618D01*
X118884473Y-53867630D01*
X118864764Y-54105494D01*
X118864764Y-54105505D01*
X118884473Y-54343369D01*
X118884475Y-54343381D01*
X118943070Y-54574767D01*
X119015096Y-54738968D01*
X119038953Y-54793356D01*
X119169506Y-54993182D01*
X119331168Y-55168795D01*
X119478344Y-55283346D01*
X119519157Y-55340057D01*
X119522832Y-55409830D01*
X119488201Y-55470513D01*
X119426259Y-55502840D01*
X119402182Y-55505200D01*
X117932329Y-55505200D01*
X117932323Y-55505201D01*
X117872716Y-55511608D01*
X117737871Y-55561902D01*
X117737864Y-55561906D01*
X117622655Y-55648152D01*
X117622652Y-55648155D01*
X117536406Y-55763364D01*
X117536402Y-55763371D01*
X117486108Y-55898217D01*
X117479701Y-55957816D01*
X117479700Y-55957835D01*
X117479700Y-57933170D01*
X113820985Y-57933170D01*
X113858708Y-57906404D01*
X114113346Y-57678846D01*
X114340904Y-57424208D01*
X114511780Y-57183381D01*
X114538516Y-57145701D01*
X114538519Y-57145696D01*
X114538522Y-57145692D01*
X114703712Y-56846802D01*
X114834399Y-56531296D01*
X114928939Y-56203141D01*
X114986143Y-55866464D01*
X115005291Y-55525500D01*
X114986143Y-55184536D01*
X114928939Y-54847859D01*
X114834399Y-54519704D01*
X114703712Y-54204198D01*
X114538522Y-53905308D01*
X114538520Y-53905306D01*
X114538519Y-53905303D01*
X114538516Y-53905298D01*
X114340907Y-53626796D01*
X114340906Y-53626795D01*
X114340904Y-53626792D01*
X114113346Y-53372154D01*
X113858708Y-53144596D01*
X113858705Y-53144594D01*
X113858703Y-53144592D01*
X113580201Y-52946983D01*
X113580196Y-52946980D01*
X113281669Y-52781991D01*
X113281302Y-52781788D01*
X112965796Y-52651101D01*
X112881448Y-52626800D01*
X112637646Y-52556562D01*
X112637637Y-52556560D01*
X112300971Y-52499358D01*
X112300959Y-52499356D01*
X111960000Y-52480209D01*
X111619040Y-52499356D01*
X111619028Y-52499358D01*
X111282362Y-52556560D01*
X111282353Y-52556562D01*
X110954207Y-52651100D01*
X110954204Y-52651101D01*
X110920166Y-52665200D01*
X110638699Y-52781787D01*
X110339803Y-52946980D01*
X110339798Y-52946983D01*
X110061296Y-53144592D01*
X109806654Y-53372154D01*
X109579092Y-53626796D01*
X109381483Y-53905298D01*
X109381480Y-53905303D01*
X109216287Y-54204199D01*
X109197061Y-54250615D01*
X109153220Y-54305018D01*
X109086925Y-54327083D01*
X109019226Y-54309804D01*
X108971616Y-54258666D01*
X108958500Y-54203162D01*
X108958500Y-46090500D01*
X108978185Y-46023461D01*
X109030989Y-45977706D01*
X109082500Y-45966500D01*
X139837500Y-45966500D01*
X139904539Y-45986185D01*
G37*
%TD.AperFunction*%
%TA.AperFunction,Conductor*%
G36*
X133973074Y-66245162D02*
G01*
X133990251Y-66259487D01*
X136177181Y-68446416D01*
X136210666Y-68507739D01*
X136213500Y-68534097D01*
X136213500Y-86913902D01*
X136193815Y-86980941D01*
X136177181Y-87001583D01*
X128158181Y-95020583D01*
X128096858Y-95054068D01*
X128027166Y-95049084D01*
X127971233Y-95007212D01*
X127946816Y-94941748D01*
X127946500Y-94932902D01*
X127946500Y-88912945D01*
X127946500Y-88912943D01*
X127929212Y-88848423D01*
X127905577Y-88760215D01*
X127860541Y-88682211D01*
X127826520Y-88623284D01*
X127714716Y-88511480D01*
X127714715Y-88511479D01*
X127710385Y-88507149D01*
X127710374Y-88507139D01*
X123515590Y-84312355D01*
X123515588Y-84312352D01*
X123508491Y-84305255D01*
X123505941Y-84300586D01*
X123500097Y-84293457D01*
X123500095Y-84293454D01*
X123501526Y-84292499D01*
X123475006Y-84243932D01*
X123472952Y-84203693D01*
X123487565Y-84074000D01*
X123467368Y-83894745D01*
X123467367Y-83894743D01*
X123467366Y-83894737D01*
X123407790Y-83724481D01*
X123407789Y-83724478D01*
X123378888Y-83678483D01*
X123359889Y-83611247D01*
X123380257Y-83544412D01*
X123396197Y-83524836D01*
X129781233Y-77139800D01*
X131538366Y-77139800D01*
X131558859Y-77360966D01*
X131558860Y-77360968D01*
X131619643Y-77574598D01*
X131619649Y-77574613D01*
X131718652Y-77773436D01*
X131734208Y-77794036D01*
X132304352Y-77223893D01*
X132327792Y-77311371D01*
X132386311Y-77412730D01*
X132469070Y-77495489D01*
X132570429Y-77554008D01*
X132657905Y-77577447D01*
X132089761Y-78145590D01*
X132089762Y-78145591D01*
X132205490Y-78217247D01*
X132205496Y-78217250D01*
X132412607Y-78297484D01*
X132630945Y-78338300D01*
X132853055Y-78338300D01*
X133071392Y-78297484D01*
X133278505Y-78217249D01*
X133278506Y-78217248D01*
X133394237Y-78145590D01*
X132826095Y-77577447D01*
X132913571Y-77554008D01*
X133014930Y-77495489D01*
X133097689Y-77412730D01*
X133156208Y-77311371D01*
X133179647Y-77223894D01*
X133749790Y-77794036D01*
X133765348Y-77773434D01*
X133765353Y-77773426D01*
X133864350Y-77574613D01*
X133864356Y-77574598D01*
X133925139Y-77360968D01*
X133925140Y-77360966D01*
X133945634Y-77139800D01*
X133945634Y-77139799D01*
X133925140Y-76918633D01*
X133925139Y-76918631D01*
X133864356Y-76705001D01*
X133864350Y-76704986D01*
X133765353Y-76506174D01*
X133765348Y-76506167D01*
X133749789Y-76485562D01*
X133179647Y-77055704D01*
X133156208Y-76968229D01*
X133097689Y-76866870D01*
X133014930Y-76784111D01*
X132913571Y-76725592D01*
X132826094Y-76702152D01*
X133394237Y-76134008D01*
X133394236Y-76134007D01*
X133278509Y-76062352D01*
X133278503Y-76062349D01*
X133071392Y-75982115D01*
X132853055Y-75941300D01*
X132630945Y-75941300D01*
X132412607Y-75982115D01*
X132205495Y-76062350D01*
X132089761Y-76134008D01*
X132657906Y-76702152D01*
X132570429Y-76725592D01*
X132469070Y-76784111D01*
X132386311Y-76866870D01*
X132327792Y-76968229D01*
X132304352Y-77055705D01*
X131734209Y-76485562D01*
X131718651Y-76506165D01*
X131619649Y-76704986D01*
X131619643Y-76705001D01*
X131558860Y-76918631D01*
X131558859Y-76918633D01*
X131538366Y-77139799D01*
X131538366Y-77139800D01*
X129781233Y-77139800D01*
X132383605Y-74537428D01*
X132444926Y-74503945D01*
X132494064Y-74503222D01*
X132630896Y-74528800D01*
X132630899Y-74528800D01*
X132853101Y-74528800D01*
X132853104Y-74528800D01*
X133071528Y-74487970D01*
X133278730Y-74407699D01*
X133467655Y-74290722D01*
X133631868Y-74141022D01*
X133765778Y-73963696D01*
X133864824Y-73764784D01*
X133925634Y-73551060D01*
X133946137Y-73329800D01*
X133925634Y-73108540D01*
X133864824Y-72894816D01*
X133765778Y-72695904D01*
X133631868Y-72518578D01*
X133631866Y-72518575D01*
X133467655Y-72368878D01*
X133467653Y-72368876D01*
X133278733Y-72251902D01*
X133278727Y-72251899D01*
X133171060Y-72210189D01*
X133071528Y-72171630D01*
X132853104Y-72130800D01*
X132691689Y-72130800D01*
X132624650Y-72111115D01*
X132578895Y-72058311D01*
X132568951Y-71989153D01*
X132597976Y-71925597D01*
X132604008Y-71919119D01*
X134216506Y-70306621D01*
X134216511Y-70306617D01*
X134226714Y-70296413D01*
X134226716Y-70296413D01*
X134338520Y-70184609D01*
X134399275Y-70079377D01*
X134417577Y-70047678D01*
X134458501Y-69894950D01*
X134458501Y-69736836D01*
X134458501Y-69729241D01*
X134458500Y-69729223D01*
X134458500Y-69312767D01*
X134458501Y-69312754D01*
X134458501Y-69144651D01*
X134458501Y-69144650D01*
X134417577Y-68991923D01*
X134381979Y-68930265D01*
X134338524Y-68854997D01*
X134338518Y-68854989D01*
X132604010Y-67120481D01*
X132570525Y-67059158D01*
X132575509Y-66989466D01*
X132617381Y-66933533D01*
X132682845Y-66909116D01*
X132691691Y-66908800D01*
X132853101Y-66908800D01*
X132853104Y-66908800D01*
X133071528Y-66867970D01*
X133278730Y-66787699D01*
X133467655Y-66670722D01*
X133631868Y-66521022D01*
X133765778Y-66343696D01*
X133791571Y-66291895D01*
X133839071Y-66240660D01*
X133906733Y-66223238D01*
X133973074Y-66245162D01*
G37*
%TD.AperFunction*%
%TD*%
M02*
