M48
; DRILL file {KiCad 8.0.0} date 2025-04-28T20:26:49+0530
; FORMAT={-:-/ absolute / inch / decimal}
; #@! TF.CreationDate,2025-04-28T20:26:49+05:30
; #@! TF.GenerationSoftware,Kicad,Pcbnew,8.0.0
; #@! TF.FileFunction,Plated,1,2,PTH
FMAT,2
INCH
; #@! TA.AperFunction,Plated,PTH,ViaDrill
T1C0.0118
; #@! TA.AperFunction,Plated,PTH,ComponentDrill
T2C0.0350
; #@! TA.AperFunction,Plated,PTH,ComponentDrill
T3C0.0394
; #@! TA.AperFunction,Plated,PTH,ComponentDrill
T4C0.0400
; #@! TA.AperFunction,Plated,PTH,ComponentDrill
T5C0.1300
%
G90
G05
T1
X4.49Y-3.83
X4.53Y-3.37
X4.54Y-4.15
X4.54Y-4.25
X4.57Y-3.92
X4.61Y-3.82
X4.65Y-4.44
X4.66Y-3.83
X4.66Y-3.9
X4.66Y-3.9
X4.66Y-4.58
X4.67Y-4.08
X4.72Y-3.82
X4.74Y-4.32
X4.76Y-3.96
X4.77Y-2.44
X4.78Y-3.8
X4.82Y-3.97
X4.83Y-3.31
X4.83Y-4.18
X4.83Y-4.28
X4.88Y-4.03
X4.91Y-3.79
X4.92Y-3.98
X4.94Y-4.05
X4.97Y-3.94
X4.98Y-3.78
X4.98Y-3.91
X4.99Y-3.52
X5.04Y-3.78
X5.05Y-2.43
X5.05Y-3.98
X5.15Y-4.51
X5.23Y-4.05
X5.25Y-4.52
X5.26Y-3.42
X5.28Y-3.3
X5.28Y-4.68
T2
X5.2261Y-2.587
X5.2261Y-2.737
X5.2261Y-2.887
X5.2261Y-3.037
T3
X4.45Y-3.95
X4.45Y-4.05
X4.45Y-4.15
X4.45Y-4.25
X4.45Y-4.35
X4.45Y-4.45
X4.45Y-4.55
X4.45Y-4.65
X5.35Y-3.95
X5.35Y-4.05
X5.35Y-4.15
X5.35Y-4.25
X5.35Y-4.35
X5.35Y-4.45
X5.35Y-4.55
X5.35Y-4.65
T4
X4.6819Y-2.2419
X4.7366Y-2.1301
X4.7909Y-2.2419
X4.8457Y-2.1301
X4.9Y-2.2419
X4.9543Y-2.1301
X5.0091Y-2.2419
X5.0634Y-2.1301
X5.1181Y-2.2419
T5
X4.4079Y-2.186
X5.3921Y-2.186
M30
